SplineFontDB: 3.0
FontName: Chess
FullName: Chess
FamilyName: Chess
Weight: Medium
Copyright: Created by James Kilfiger with FontForge 2.0 (http://fontforge.sf.net)\nDedicated to Public domain
UComments: "2010-5-1: Created." 
Version: 1.1
ItalicAngle: 0
UnderlinePosition: -100
UnderlineWidth: 50
Ascent: 800
Descent: 200
LayerCount: 2
Layer: 0 0 "Back"  1
Layer: 1 0 "Fore"  0
XUID: [1021 891 1892535858 16472432]
FSType: 0
OS2Version: 0
OS2_WeightWidthSlopeOnly: 0
OS2_UseTypoMetrics: 1
CreationTime: 1272752506
ModificationTime: 1312054329
PfmFamily: 17
TTFWeight: 500
TTFWidth: 5
LineGap: 0
VLineGap: 90
OS2TypoAscent: 0
OS2TypoAOffset: 1
OS2TypoDescent: 0
OS2TypoDOffset: 1
OS2TypoLinegap: 0
OS2WinAscent: 0
OS2WinAOffset: 1
OS2WinDescent: 0
OS2WinDOffset: 1
HheadAscent: 0
HheadAOffset: 1
HheadDescent: 0
HheadDOffset: 1
OS2Vendor: 'PfEd'
MarkAttachClasses: 1
DEI: 91125

StartChar: uni2654
Encoding: 9812 9812 0
Width: 1000
VWidth: 0
Flags: W
HStem: -15 30<191.5 819.5> 121 30<377.957 628.382> 224 30<388.832 620.707> 279 30<335.138 405.909 607.138 677.909> 517 30<333.901 404.602 605.901 676.602> 558 96<472.488 530.408> 660 30<195.745 304.527 693.861 796.904> 741 30<470.445 534.555>
VStem: 107.5 30<448.756 596.514> 272.5 30<347.039 481.346> 435.5 30<342.518 482.121 660.529 734.514> 471.5 60<592 645.01> 544.5 30<347.039 481.346 665.069 731.178> 707.5 30<342.518 482.121> 855.5 30<447.795 598.384>
LayerCount: 2
Back
Fore
SplineSet
502.5 151 m 0
 650.5 151 786.5 96 868.5 10 c 2
 892.5 -15 l 1
 118.5 -15 l 1
 142.5 10 l 2
 224.5 95 354.5 151 502.5 151 c 0
191.5 15 m 1
 819.5 15 l 1
 742.5 79 627.5 121 502.5 121 c 0
 377.5 121 267.5 79 191.5 15 c 1
721.5 206 m 1
 824.5 381 855.5 465 855.5 531 c 0
 855.5 613 804.5 659 746.5 659 c 0
 664.5 659 604.5 558 501.5 558 c 27
 395.5 558 331.5 660 248.5 660 c 0
 204.5 660 137.5 627 137.5 530 c 0
 137.5 457 177.5 350 300.5 210 c 1
 365.5 239 431.5 254 502.5 254 c 0
 576.5 254 652.5 238 721.5 206 c 1
502.5 224 m 0
 432.5 224 366.5 208 302.5 178 c 2
 292.5 174 l 1
 285.5 182 l 2
 155.5 328 107.5 444 107.5 530 c 0
 107.5 645 188.5 690 248.5 690 c 0
 332.5 690 395.5 609 471.5 592 c 1
 471.5 632 l 1
 446.5 644 429.5 669 429.5 698 c 3
 429.5 738 462.5 771 502.5 771 c 3
 542.5 771 575.5 738 575.5 698 c 3
 575.5 668 557.5 642 531.5 631 c 1
 531.5 591 l 1
 605.5 609 665.5 689 746.5 689 c 0
 820.5 689 885.5 629 885.5 531 c 0
 885.5 457 853.5 369 740.5 178 c 2
 733.5 166 l 1
 720.5 173 l 2
 652.5 207 576.5 224 502.5 224 c 0
501.5 654 m 3
 520.5 654 545.5 670 545.5 698 c 3
 545.5 722 526.5 741 502.5 741 c 3
 478.5 741 459.5 722 459.5 698 c 3
 459.5 669 483.5 654 501.5 654 c 3
641.5 517 m 0
 601.5 517 574.5 473 574.5 416 c 0
 574.5 358 600.5 309 641.5 309 c 0
 667.5 309 707.5 331 707.5 410 c 0
 707.5 488 672.5 517 641.5 517 c 0
737.5 410 m 0
 737.5 318 687.5 279 641.5 279 c 0
 581.5 279 544.5 340 544.5 416 c 0
 544.5 490 583.5 547 641.5 547 c 0
 692.5 547 737.5 501 737.5 410 c 0
369.5 517 m 0
 329.5 517 302.5 473 302.5 416 c 0
 302.5 358 328.5 309 369.5 309 c 0
 395.5 309 435.5 331 435.5 410 c 0
 435.5 488 400.5 517 369.5 517 c 0
465.5 410 m 0
 465.5 318 415.5 279 369.5 279 c 0
 309.5 279 272.5 340 272.5 416 c 0
 272.5 490 311.5 547 369.5 547 c 0
 420.5 547 465.5 501 465.5 410 c 0
EndSplineSet
Validated: 1
EndChar

StartChar: uni2655
Encoding: 9813 9813 1
Width: 1000
VWidth: 0
Flags: W
HStem: -15 30<189 817> 121 30<375.763 622.375> 219 30<379.394 620.237> 325 30<309.554 358.382 639.987 690.76> 393 32<481.229 522.485> 447 30<128.159 180.765 819.235 871.841> 567 30<128.159 187.841 812.159 871.841> 697 30<368.159 427.841 572.159 631.841>
VStem: 87 30<487.814 556.186> 199 30<487.481 556.186> 232 29<190 311.816> 327 30<618.08 686.186> 439 30<617.782 686.186> 531 30<617.782 686.186> 643 30<618.08 686.186> 739 29<190 311.875> 771 30<487.481 556.186> 883 30<487.814 556.186>
LayerCount: 2
Back
Fore
SplineSet
117 522 m 0
 117 496 136 477 158 477 c 0
 180 477 199 496 199 522 c 0
 199 548 180 567 158 567 c 0
 136 567 117 548 117 522 c 0
158 597 m 0
 198 597 229 563 229 522 c 0
 229 497 218 475 200 461 c 1
 202 459 306 355 346 355 c 1
 346 355 349 355 353 360 c 0
 383 395 392 573 392 577 c 1
 355 581 327 614 327 652 c 0
 327 693 358 727 398 727 c 0
 438 727 469 693 469 652 c 0
 469 618 447 589 417 580 c 1
 458 476 480 425 502 425 c 0
 524 425 544 476 583 580 c 1
 553 589 531 618 531 652 c 0
 531 693 562 727 602 727 c 0
 642 727 673 693 673 652 c 0
 673 614 645 581 608 577 c 1
 610 564 621 355 654 355 c 0
 695 355 799 460 800 461 c 1
 782 475 771 497 771 522 c 0
 771 563 802 597 842 597 c 0
 882 597 913 563 913 522 c 0
 913 481 882 447 842 447 c 0
 835 447 828 448 822 450 c 1
 794 368 768 284 768 187 c 0
 768 172 769 157 770 141 c 1
 669 194 603 219 500 219 c 0
 396 219 330 193 230 141 c 1
 231 179 232 184 232 189 c 0
 232 282 203 382 178 450 c 1
 172 448 165 447 158 447 c 0
 118 447 87 481 87 522 c 0
 87 563 118 597 158 597 c 0
357 652 m 0
 357 626 376 607 398 607 c 0
 420 607 439 626 439 652 c 0
 439 678 420 697 398 697 c 0
 376 697 357 678 357 652 c 0
643 652 m 0
 643 678 624 697 602 697 c 0
 580 697 561 678 561 652 c 0
 561 626 580 607 602 607 c 0
 624 607 643 626 643 652 c 0
883 522 m 0
 883 548 864 567 842 567 c 0
 820 567 801 548 801 522 c 0
 801 496 820 477 842 477 c 0
 864 477 883 496 883 522 c 0
189 15 m 1
 817 15 l 1
 740 79 625 121 500 121 c 0
 375 121 265 79 189 15 c 1
500 151 m 0
 757 151 877 -2 890 -15 c 1
 116 -15 l 1
 161 31 270 151 500 151 c 0
500 393 m 0
 456 393 446 434 417 506 c 1
 408 416 395 364 376 341 c 0
 364 326 352 325 346 325 c 0
 313 325 265 361 227 394 c 1
 246 330 261 263 261 190 c 1
 345 230 404 249 500 249 c 0
 596 249 655 230 739 190 c 1
 739 263 754 330 773 394 c 1
 735 361 687 325 654 325 c 0
 642 325 632 331 624 340 c 0
 603 366 591 424 584 505 c 1
 557 434 550 393 500 393 c 0
EndSplineSet
Validated: 1
EndChar

StartChar: uni2656
Encoding: 9814 9814 2
Width: 1000
VWidth: 0
Flags: W
HStem: -15 30<186 814> 121 30<372.457 622.882> 224 30<382.109 615.172> 401 30<348.741 650.025> 487 30<366.169 627.831> 618 30<342.208 400.79 593.209 651.792> 665 30<262.831 310.98 683.02 731.169> 709 30<466.21 527.791>
VStem: 231 30<576.032 664.017> 317 30<288.827 392.894> 733 30<580.984 664.017>
LayerCount: 2
Back
Fore
SplineSet
624 648 m 0
 651 648 667 695 713 695 c 0
 743 695 763 669 763 642 c 0
 763 629 758 552 678 466 c 2
 672 459 l 1
 663 462 l 2
 616 478 558 487 497 487 c 0
 436 487 378 478 331 462 c 2
 323 459 l 1
 316 465 l 2
 236 541 231 624 231 642 c 0
 231 669 251 695 281 695 c 0
 327 695 343 648 370 648 c 0
 419 648 428 739 497 739 c 0
 566 739 575 648 624 648 c 0
497 709 m 0
 448 709 439 618 370 618 c 0
 327 618 312 665 281 665 c 0
 269 665 261 651 261 642 c 0
 261 629 265 559 331 493 c 1
 380 508 436 517 497 517 c 0
 558 517 614 508 663 493 c 1
 731 570 733 635 733 642 c 0
 733 651 725 665 713 665 c 0
 682 665 667 618 624 618 c 0
 555 618 546 709 497 709 c 0
652 390 m 1
 607 397 554 401 497 401 c 0
 442 401 391 397 347 391 c 1
 346 351 337 298 315 219 c 1
 374 242 434 254 497 254 c 0
 563 254 631 241 694 215 c 1
 662 300 654 356 652 390 c 1
736 192 m 2
 752 154 l 1
 715 173 l 2
 647 207 571 224 497 224 c 0
 427 224 361 208 297 178 c 2
 267 164 l 1
 277 196 l 2
 309 299 317 362 317 404 c 2
 317 417 l 1
 330 419 l 2
 378 427 435 431 497 431 c 0
 561 431 620 426 669 418 c 2
 681 416 l 1
 681 404 l 2
 682 372 688 307 736 192 c 2
497 151 m 0
 645 151 781 96 863 10 c 2
 887 -15 l 1
 113 -15 l 1
 137 10 l 2
 219 95 349 151 497 151 c 0
186 15 m 1
 814 15 l 1
 737 79 622 121 497 121 c 0
 372 121 262 79 186 15 c 1
EndSplineSet
Validated: 1
EndChar

StartChar: uni2658
Encoding: 9816 9816 3
Width: 1000
VWidth: 0
Flags: W
HStem: -15 30<201.5 829.5> 121 30<387.957 638.382> 224 30<392.563 631.665> 329 30<149.48 186.573> 369 30<209.923 328.192> 421 30<366.601 395.26> 508 64<270.034 326.966>
VStem: 268.5 60<509.19 570.81> 338.5 30<662.857 729.688> 396.5 30<368.413 420.506> 714.5 30<211.633 492.223>
LayerCount: 2
Back
Fore
SplineSet
268.5 540 m 0
 268.5 558 281.5 572 298.5 572 c 0
 315.5 572 328.5 558 328.5 540 c 0
 328.5 522 315.5 508 298.5 508 c 0
 281.5 508 268.5 522 268.5 540 c 0
163.5 329 m 1
 131.5 334 113.5 371 97.5 392 c 1
 97.5 397 l 2
 97.5 441 132.5 457 149.5 484 c 0
 180.5 533 192.5 576 237.5 622 c 0
 271.5 657 313.5 642 331.5 672 c 0
 334.5 676 338.5 684 338.5 696 c 0
 338.5 705 328.5 731 328.5 747 c 0
 328.5 753 329.5 761 333.5 768 c 2
 342.5 781 l 1
 355.5 772 l 2
 402.5 739 425.5 717 472.5 689 c 0
 539.5 649 587.5 642 645.5 597 c 0
 718.5 541 747.5 493 747.5 403 c 0
 747.5 381 744.5 337 744.5 292 c 0
 744.5 271 751.5 237 752.5 186 c 2
 753.5 161 l 1
 730.5 173 l 2
 663.5 207 588.5 224 512.5 224 c 0
 438.5 224 363.5 208 294.5 173 c 2
 260.5 156 l 1
 273.5 191 l 2
 294.5 250 309.5 271 335.5 316 c 0
 358.5 356 396.5 368 396.5 398 c 0
 396.5 414 386.5 421 378.5 421 c 0
 376.5 421 374.5 420 372.5 419 c 0
 355.5 410 346.5 365 291.5 365 c 0
 278.5 365 260.5 369 247.5 369 c 0
 246.5 369 246.5 369 245.5 369 c 0
 199.5 367 206.5 329 165.5 329 c 2
 163.5 329 l 1
314.5 215 m 1
 378.5 241 445.5 254 512.5 254 c 0
 583.5 254 654.5 239 721.5 210 c 1
 719.5 245 714.5 270 714.5 292 c 0
 714.5 337 717.5 381 717.5 403 c 0
 717.5 486 690.5 525 627.5 573 c 0
 572.5 615 524.5 622 456.5 663 c 0
 416.5 687 392.5 706 361.5 730 c 1
 364.5 719 368.5 705 368.5 696 c 0
 368.5 688 367.5 673 357.5 656 c 0
 331.5 613 285.5 629 259.5 602 c 0
 218.5 560 210.5 523 175.5 468 c 0
 154.5 435 129.5 428 127.5 402 c 1
 149.5 370 160.5 359 168.5 359 c 0
 183.5 359 188.5 397 245.5 399 c 0
 246.5 399 248.5 399 249.5 399 c 0
 265.5 399 278.5 395 291.5 395 c 0
 339.5 395 329.5 449 380.5 451 c 0
 390.5 451 423.5 445 426.5 398 c 1
 426.5 353 381.5 334 361.5 300 c 0
 340.5 264 328.5 247 314.5 215 c 1
512.5 151 m 0
 660.5 151 796.5 96 878.5 10 c 2
 902.5 -15 l 1
 128.5 -15 l 1
 152.5 10 l 2
 234.5 95 364.5 151 512.5 151 c 0
201.5 15 m 1
 829.5 15 l 1
 752.5 79 637.5 121 512.5 121 c 0
 387.5 121 277.5 79 201.5 15 c 1
EndSplineSet
Validated: 1
EndChar

StartChar: uni2659
Encoding: 9817 9817 4
Width: 1000
VWidth: 0
Flags: W
HStem: -15 30<186 814> 121 30<372.457 622.882> 224 30<378.648 615.765> 340 30<449.444 544.582> 395 30<439.64 554.36> 663 30<439.64 554.36>
VStem: 348 30<486.64 601.36> 616 30<486.64 601.36>
LayerCount: 2
Back
Fore
SplineSet
497 693 m 0
 579 693 646 626 646 544 c 0
 646 462 579 395 497 395 c 0
 415 395 348 462 348 544 c 0
 348 626 415 693 497 693 c 0
378 544 m 0
 378 478 431 425 497 425 c 0
 563 425 616 478 616 544 c 0
 616 610 563 663 497 663 c 0
 431 663 378 610 378 544 c 0
336 228 m 1
 389 245 443 254 497 254 c 0
 551 254 606 245 659 228 c 1
 578 307 537 340 497 340 c 0
 457 340 416 307 336 228 c 1
497 370 m 0
 564 370 632 298 733 197 c 0
 738 192 739 183 734 177 c 0
 729 171 722 170 715 173 c 0
 647 207 571 224 497 224 c 0
 423 224 347 207 279 173 c 0
 272 170 265 171 260 177 c 0
 255 183 256 192 261 197 c 0
 362 298 430 370 497 370 c 0
497 151 m 0
 645 151 781 96 863 10 c 2
 887 -15 l 1
 113 -15 l 1
 137 10 l 2
 219 95 349 151 497 151 c 0
186 15 m 1
 814 15 l 1
 737 79 622 121 497 121 c 0
 372 121 262 79 186 15 c 1
EndSplineSet
Validated: 1
EndChar

StartChar: uni2657
Encoding: 9815 9815 5
Width: 1000
VWidth: 0
Flags: W
HStem: -15 30<186 814> 121 30<372.457 622.882> 224 30<376.865 616.455> 347 30<469.159 528.841>
VStem: 208 30<300.985 461.85> 428 30<388.042 520.299> 540 30<387.814 467.234> 756 30<298.294 462.194>
LayerCount: 2
Back
Fore
SplineSet
186 15 m 1
 814 15 l 1
 737 79 622 121 497 121 c 0
 372 121 262 79 186 15 c 1
497 151 m 0
 645 151 781 96 863 10 c 2
 887 -15 l 1
 113 -15 l 1
 137 10 l 2
 219 95 349 151 497 151 c 0
508 761 m 2
 722 545 786 498 786 402 c 0
 786 313 768 296 736 182 c 2
 731 164 l 1
 715 173 l 2
 648 207 573 224 497 224 c 0
 423 224 348 208 279 173 c 2
 263 164 l 1
 258 182 l 2
 226 296 208 313 208 402 c 0
 208 509 325 608 352 608 c 0
 385 608 464 521 464 475 c 0
 464 460 458 441 458 422 c 0
 458 396 477 377 499 377 c 0
 521 377 540 396 540 422 c 0
 540 448 537 452 521 473 c 2
 383 653 l 1
 497 771 l 1
 508 761 l 2
282 207 m 1
 351 238 424 254 497 254 c 0
 570 254 644 238 713 207 c 1
 743 309 756 323 756 402 c 0
 756 459 717 507 687 537 c 0
 676 549 593 632 497 729 c 1
 423 651 l 1
 545 491 l 2
 564 467 570 457 570 422 c 0
 570 381 539 347 499 347 c 0
 459 347 428 381 428 422 c 0
 428 443 434 464 434 475 c 0
 434 505 374 576 352 579 c 1
 352 579 238 500 238 402 c 0
 238 323 252 309 282 207 c 1
EndSplineSet
Validated: 1
EndChar

StartChar: uni265A
Encoding: 9818 9818 6
Width: 1000
VWidth: 0
Flags: W
HStem: 0 136<420.721 591.921> 239 55<365.685 422.864 596.505 652.007> 532 143<226.5 393.5 620.5 783> 532 42<401 414 596 607>
VStem: 126 165<386 583.5> 454 109<331.6 496.597 652.209 743.619> 490 30<574 647.539> 726 148<367.5 576>
LayerCount: 2
Back
Fore
SplineSet
157 0 m 1xc9
 236 82 362 136 506 136 c 0
 650 136 782 82 861 0 c 1
 157 0 l 1xc9
731 186 m 1
 661 221 582 239 506 239 c 0
 434 239 366 223 300 192 c 1
 171 337 126 450 126 530 c 0
 126 637 201 675 252 675 c 0xeb
 336 675 401 582 490 574 c 1
 490 642 l 1
 466 649 448 672 448 698 c 0
 448 730 474 756 506 756 c 0
 538 756 564 730 564 698 c 0
 564 671 545 648 520 642 c 1
 520 573 l 1xdb
 607 582 669 674 750 674 c 0
 816 674 874 621 874 531 c 0
 874 462 844 377 731 186 c 1
645 532 m 4
 596 532 563 482 563 416 c 4xed
 563 356 590 294 645 294 c 4
 682 294 726 325 726 410 c 4
 726 494 686 532 645 532 c 4
373 532 m 4
 324 532 291 482 291 416 c 4
 291 356 318 294 373 294 c 4
 410 294 454 325 454 410 c 4
 454 494 414 532 373 532 c 4
EndSplineSet
Validated: 1
EndChar

StartChar: uni265B
Encoding: 9819 9819 7
Width: 1000
VWidth: 0
Flags: W
HStem: 0 136<414.721 585.921> 234 174<467.745 536.631> 462 120<114.764 201.236 798.764 885.236> 592 120<354.764 441.236 558.764 645.236>
VStem: 102 112<474.839 569.161> 342 112<604.839 699.161> 546 112<604.839 699.161> 786 112<474.839 569.161>
LayerCount: 2
Back
Fore
SplineSet
500 408 m 3
 550 408 544 462 594 568 c 1
 605 383 630 340 654 340 c 0
 689 340 757 397 804 444 c 1
 778 364 754 281 754 189 c 0
 754 182 754 174 754 166 c 5
 660 212 603 234 500 234 c 28
 397 234 340 212 246 166 c 5
 246 174 246 182 246 189 c 0
 246 281 222 364 196 444 c 1
 243 397 311 340 346 340 c 0
 370 340 395 384 406 568 c 1
 456 462 458 408 500 408 c 3
151 0 m 1
 230 82 356 136 500 136 c 0
 644 136 776 82 855 0 c 1
 151 0 l 1
898 522 m 0
 898 489 873 462 842 462 c 0
 811 462 786 489 786 522 c 0
 786 555 811 582 842 582 c 0
 873 582 898 555 898 522 c 0
658 652 m 0
 658 619 633 592 602 592 c 0
 571 592 546 619 546 652 c 0
 546 685 571 712 602 712 c 0
 633 712 658 685 658 652 c 0
342 652 m 0
 342 685 367 712 398 712 c 0
 429 712 454 685 454 652 c 0
 454 619 429 592 398 592 c 0
 367 592 342 619 342 652 c 0
102 522 m 0
 102 555 127 582 158 582 c 0
 189 582 214 555 214 522 c 0
 214 489 189 462 158 462 c 0
 127 462 102 489 102 522 c 0
EndSplineSet
Validated: 1
EndChar

StartChar: uni265C
Encoding: 9820 9820 8
Width: 1000
VWidth: 0
Flags: W
HStem: 0 136<411.721 582.921> 239 177<355.713 643.194> 502 131<341.015 413.958 580.042 652.985>
LayerCount: 2
Back
Fore
SplineSet
497 724 m 24
 557 724 564 633 624 633 c 0
 659 633 674 680 713 680 c 0
 733 680 748 661 748 642 c 0
 748 632 744 559 667 476 c 1
 618 492 560 502 497 502 c 0
 434 502 376 492 327 476 c 1
 251 548 246 626 246 642 c 0
 246 661 261 680 281 680 c 0
 320 680 335 633 370 633 c 0
 430 633 437 724 497 724 c 24
666 403 m 1
 667 370 673 302 722 186 c 1
 652 221 573 239 497 239 c 0
 425 239 357 223 291 192 c 1
 323 296 332 360 332 404 c 1
 379 412 436 416 497 416 c 0
 560 416 618 411 666 403 c 1
148 0 m 1
 227 82 353 136 497 136 c 0
 641 136 773 82 852 0 c 1
 148 0 l 1
EndSplineSet
Validated: 1
EndChar

StartChar: uni265D
Encoding: 9821 9821 9
Width: 1000
VWidth: 0
Flags: W
HStem: 0 136<411.721 582.921> 239 123<457.608 539.987>
VStem: 223 220<376.138 480.759> 555 216<375.489 480.124>
LayerCount: 2
Back
Fore
SplineSet
497 750 m 13
 576 670 698 548 699 546 c 0
 727 518 771 465 771 402 c 27
 771 316 755 302 722 186 c 1
 652 221 573 238 497 239 c 0
 421 239 342 221 272 186 c 1
 239 302 223 316 223 402 c 27
 223 465 265 520 295 546 c 0
 295 547 335 594 351 594 c 3
 376 594 449 513 449 475 c 0
 449 459 443 444 443 422 c 0
 443 389 468 362 499 362 c 0
 530 362 555 389 555 422 c 0
 555 455 548 462 533 482 c 26
 403 652 l 17
 497 750 l 13
148 0 m 1
 227 82 353 136 497 136 c 0
 641 136 773 82 852 0 c 1
 148 0 l 1
EndSplineSet
Validated: 1
EndChar

StartChar: uni265E
Encoding: 9822 9822 10
Width: 1000
VWidth: 0
Flags: W
HStem: 0 136<437.221 608.421> 380 128<268.141 336.91>
LayerCount: 2
Back
Fore
SplineSet
278.5 540 m 0
 278.5 522 291.5 508 308.5 508 c 0
 325.5 508 338.5 522 338.5 540 c 0
 338.5 558 325.5 572 308.5 572 c 0
 291.5 572 278.5 558 278.5 540 c 0
301.5 380 m 4
 286.5 380 271.5 384 255.5 384 c 4
 207.5 384 205.5 344 175.5 344 c 5
 155.5 348 137.5 376 122.5 397 c 5
 122.5 434 153.5 445 172.5 476 c 28
 206.5 529 214.5 567 258.5 612 c 28
 288.5 643 332.5 628 354.5 664 c 20
 361.5 675 363.5 685 363.5 696 c 4
 363.5 711 353.5 731 353.5 747 c 4
 353.5 752 354.5 756 356.5 760 c 13
 402.5 727 426.5 705 474.5 676 c 28
 539.5 637 591.5 627 646.5 585 c 4
 714.5 533 742.5 489 742.5 403 c 4
 742.5 381 739.5 337 739.5 292 c 4
 739.5 268 746.5 236 747.5 186 c 5
 677.5 221 598.5 238 522.5 239 c 4
 446.5 239 367.5 221 297.5 186 c 5
 318.5 244 331.5 262 358.5 308 c 28
 380.5 345 421.5 360 421.5 398 c 4
 421.5 417 408.5 436 390.5 436 c 4
 351.5 436 358.5 380 301.5 380 c 4
173.5 0 m 1
 252.5 82 378.5 136 522.5 136 c 0
 666.5 136 798.5 82 877.5 0 c 1
 173.5 0 l 1
EndSplineSet
Validated: 1
EndChar

StartChar: uni265F
Encoding: 9823 9823 11
Width: 1000
VWidth: 0
Flags: W
HStem: 0 136<411.721 582.921> 239 116<441.053 558.37> 412 268<424.778 569.222>
VStem: 363 268<473.778 618.222>
LayerCount: 2
Fore
SplineSet
148 0 m 1
 227 82 353 136 497 136 c 0
 641 136 773 82 852 0 c 1
 148 0 l 1
498 355 m 3
 563 355 638 268 699 202 c 1
 624 226 578 239 498 239 c 27
 418 239 373 225 297 203 c 1
 356 268 442 355 498 355 c 3
363 546 m 0
 363 620 423 680 497 680 c 0
 571 680 631 620 631 546 c 0
 631 472 571 412 497 412 c 0
 423 412 363 472 363 546 c 0
EndSplineSet
Validated: 1
EndChar

StartChar: uniE040
Encoding: 57408 57408 12
Width: 1000
VWidth: 0
Flags: W
HStem: -200 10<10 991> -15 30<192 820> 121 30<377.594 628.019> 224 30<388.332 620.48> 279 30<335.458 406.409 607.458 678.409> 517 30<334.203 405.102 606.203 677.102> 558 96<472.975 530.895> 660 30<195.488 304.166 693.492 796.59> 741 30<470.327 535.238> 790 10<10 990>
VStem: 0 10<-190 790> 108 30<446.334 598.496> 272 30<348.025 479.963> 436 30<342.518 482.121 660.529 734.777> 472 60<592 645.01> 544 30<348.025 479.963 664.145 731.5> 708 30<342.518 482.121> 856 30<447.795 597.027> 991 10<-190 790>
LayerCount: 2
Fore
SplineSet
0 -200 m 5
 0 800 l 5
 1000 800 l 5
 1001 -200 l 5
 0 -200 l 5
10 -190 m 5
 991 -190 l 5
 990 790 l 5
 10 790 l 5
 10 -190 l 5
502 151 m 0
 650 151 786 96 868 10 c 2
 892 -15 l 1
 118 -15 l 1
 142 10 l 2
 224 95 354 151 502 151 c 0
192 15 m 1
 820 15 l 1
 743 79 627 121 502 121 c 0
 377 121 268 79 192 15 c 1
722 206 m 1
 825 381 856 465 856 531 c 0
 856 613 804 659 746 659 c 0
 664 659 605 558 502 558 c 27
 396 558 331 660 248 660 c 0
 204 660 138 627 138 530 c 0
 138 457 177 350 300 210 c 1
 365 239 431 254 502 254 c 0
 576 254 653 238 722 206 c 1
502 224 m 0
 432 224 366 208 302 178 c 2
 292 174 l 1
 286 182 l 2
 156 328 108 444 108 530 c 0
 108 645 188 690 248 690 c 0
 332 690 396 609 472 592 c 1
 472 632 l 1
 447 644 430 669 430 698 c 3
 430 738 462 771 502 771 c 3
 542 771 576 738 576 698 c 3
 576 668 558 642 532 631 c 1
 532 591 l 1
 606 609 665 689 746 689 c 0
 820 689 886 629 886 531 c 0
 886 457 853 369 740 178 c 2
 734 166 l 1
 720 173 l 2
 652 207 576 224 502 224 c 0
502 654 m 3
 521 654 546 670 546 698 c 3
 546 722 526 741 502 741 c 3
 478 741 460 722 460 698 c 3
 460 669 484 654 502 654 c 3
642 517 m 0
 602 517 574 473 574 416 c 0
 574 358 601 309 642 309 c 0
 668 309 708 331 708 410 c 0
 708 488 673 517 642 517 c 0
738 410 m 0
 738 318 688 279 642 279 c 0
 582 279 544 340 544 416 c 0
 544 490 584 547 642 547 c 0
 693 547 738 501 738 410 c 0
370 517 m 0
 330 517 302 473 302 416 c 0
 302 358 329 309 370 309 c 0
 396 309 436 331 436 410 c 0
 436 488 401 517 370 517 c 0
466 410 m 0
 466 318 416 279 370 279 c 0
 310 279 272 340 272 416 c 0
 272 490 312 547 370 547 c 0
 421 547 466 501 466 410 c 0
EndSplineSet
Validated: 1
EndChar

StartChar: uniE041
Encoding: 57409 57409 13
Width: 1000
VWidth: 0
Flags: W
HStem: -200 10<10 991> -15 30<189 817> 121 30<375.763 622.375> 219 30<379.394 620.237> 325 30<309.554 358.382 639.987 690.76> 393 32<481.229 522.485> 447 30<128.159 180.765 819.235 871.841> 567 30<128.159 187.841 812.159 871.841> 697 30<368.159 427.841 572.159 631.841> 790 10<10 990>
VStem: 0 10<-190 790> 87 30<487.814 556.186> 199 30<487.481 556.186> 232 29<190 311.816> 327 30<618.08 686.186> 439 30<617.782 686.186> 531 30<617.782 686.186> 643 30<618.08 686.186> 739 29<190 311.875> 771 30<487.481 556.186> 883 30<487.814 556.186> 991 10<-190 790>
LayerCount: 2
Fore
SplineSet
117 522 m 0
 117 496 136 477 158 477 c 0
 180 477 199 496 199 522 c 0
 199 548 180 567 158 567 c 0
 136 567 117 548 117 522 c 0
158 597 m 0
 198 597 229 563 229 522 c 0
 229 497 218 475 200 461 c 1
 202 459 306 355 346 355 c 1
 346 355 349 355 353 360 c 0
 383 395 392 573 392 577 c 1
 355 581 327 614 327 652 c 0
 327 693 358 727 398 727 c 0
 438 727 469 693 469 652 c 0
 469 618 447 589 417 580 c 1
 458 476 480 425 502 425 c 0
 524 425 544 476 583 580 c 1
 553 589 531 618 531 652 c 0
 531 693 562 727 602 727 c 0
 642 727 673 693 673 652 c 0
 673 614 645 581 608 577 c 1
 610 564 621 355 654 355 c 0
 695 355 799 460 800 461 c 1
 782 475 771 497 771 522 c 0
 771 563 802 597 842 597 c 0
 882 597 913 563 913 522 c 0
 913 481 882 447 842 447 c 0
 835 447 828 448 822 450 c 1
 794 368 768 284 768 187 c 0
 768 172 769 157 770 141 c 1
 669 194 603 219 500 219 c 0
 396 219 330 193 230 141 c 1
 231 179 232 184 232 189 c 0
 232 282 203 382 178 450 c 1
 172 448 165 447 158 447 c 0
 118 447 87 481 87 522 c 0
 87 563 118 597 158 597 c 0
357 652 m 0
 357 626 376 607 398 607 c 0
 420 607 439 626 439 652 c 0
 439 678 420 697 398 697 c 0
 376 697 357 678 357 652 c 0
643 652 m 0
 643 678 624 697 602 697 c 0
 580 697 561 678 561 652 c 0
 561 626 580 607 602 607 c 0
 624 607 643 626 643 652 c 0
883 522 m 0
 883 548 864 567 842 567 c 0
 820 567 801 548 801 522 c 0
 801 496 820 477 842 477 c 0
 864 477 883 496 883 522 c 0
189 15 m 1
 817 15 l 1
 740 79 625 121 500 121 c 0
 375 121 265 79 189 15 c 1
500 151 m 0
 757 151 877 -2 890 -15 c 1
 116 -15 l 1
 161 31 270 151 500 151 c 0
500 393 m 0
 456 393 446 434 417 506 c 1
 408 416 395 364 376 341 c 0
 364 326 352 325 346 325 c 0
 313 325 265 361 227 394 c 1
 246 330 261 263 261 190 c 1
 345 230 404 249 500 249 c 0
 596 249 655 230 739 190 c 1
 739 263 754 330 773 394 c 1
 735 361 687 325 654 325 c 0
 642 325 632 331 624 340 c 0
 603 366 591 424 584 505 c 1
 557 434 550 393 500 393 c 0
0 -200 m 5
 0 800 l 5
 1000 800 l 5
 1001 -200 l 5
 0 -200 l 5
10 -190 m 5
 991 -190 l 5
 990 790 l 5
 10 790 l 5
 10 -190 l 5
EndSplineSet
Validated: 1
EndChar

StartChar: uniE042
Encoding: 57410 57410 14
Width: 1000
VWidth: 0
Flags: W
HStem: -200 10<10 991> -15 30<186 814> 121 30<372.457 622.882> 224 30<382.109 615.172> 401 30<348.741 650.025> 487 30<366.169 627.831> 618 30<342.208 400.79 593.209 651.792> 665 30<262.831 310.98 683.02 731.169> 709 30<466.21 527.791> 790 10<10 990>
VStem: 0 10<-190 790> 231 30<576.032 664.017> 317 30<288.827 392.894> 733 30<580.984 664.017> 991 10<-190 790>
LayerCount: 2
Fore
SplineSet
624 648 m 0
 651 648 667 695 713 695 c 0
 743 695 763 669 763 642 c 0
 763 629 758 552 678 466 c 2
 672 459 l 1
 663 462 l 2
 616 478 558 487 497 487 c 0
 436 487 378 478 331 462 c 2
 323 459 l 1
 316 465 l 2
 236 541 231 624 231 642 c 0
 231 669 251 695 281 695 c 0
 327 695 343 648 370 648 c 0
 419 648 428 739 497 739 c 0
 566 739 575 648 624 648 c 0
497 709 m 0
 448 709 439 618 370 618 c 0
 327 618 312 665 281 665 c 0
 269 665 261 651 261 642 c 0
 261 629 265 559 331 493 c 1
 380 508 436 517 497 517 c 0
 558 517 614 508 663 493 c 1
 731 570 733 635 733 642 c 0
 733 651 725 665 713 665 c 0
 682 665 667 618 624 618 c 0
 555 618 546 709 497 709 c 0
652 390 m 1
 607 397 554 401 497 401 c 0
 442 401 391 397 347 391 c 1
 346 351 337 298 315 219 c 1
 374 242 434 254 497 254 c 0
 563 254 631 241 694 215 c 1
 662 300 654 356 652 390 c 1
736 192 m 2
 752 154 l 1
 715 173 l 2
 647 207 571 224 497 224 c 0
 427 224 361 208 297 178 c 2
 267 164 l 1
 277 196 l 2
 309 299 317 362 317 404 c 2
 317 417 l 1
 330 419 l 2
 378 427 435 431 497 431 c 0
 561 431 620 426 669 418 c 2
 681 416 l 1
 681 404 l 2
 682 372 688 307 736 192 c 2
497 151 m 0
 645 151 781 96 863 10 c 2
 887 -15 l 1
 113 -15 l 1
 137 10 l 2
 219 95 349 151 497 151 c 0
186 15 m 1
 814 15 l 1
 737 79 622 121 497 121 c 0
 372 121 262 79 186 15 c 1
0 -200 m 5
 0 800 l 5
 1000 800 l 5
 1001 -200 l 5
 0 -200 l 5
10 -190 m 5
 991 -190 l 5
 990 790 l 5
 10 790 l 5
 10 -190 l 5
EndSplineSet
Validated: 1
EndChar

StartChar: uniE043
Encoding: 57411 57411 15
Width: 1000
VWidth: 0
Flags: W
HStem: -200 10<10 991> -15 30<186 814> 121 30<372.457 622.882> 224 30<376.865 616.455> 347 30<469.159 528.841> 790 10<10 990>
VStem: 0 10<-190 790> 208 30<300.985 461.85> 428 30<388.042 520.299> 540 30<387.814 467.234> 756 30<298.294 462.194> 991 10<-190 790>
LayerCount: 2
Fore
SplineSet
186 15 m 1
 814 15 l 1
 737 79 622 121 497 121 c 0
 372 121 262 79 186 15 c 1
497 151 m 0
 645 151 781 96 863 10 c 2
 887 -15 l 1
 113 -15 l 1
 137 10 l 2
 219 95 349 151 497 151 c 0
508 761 m 2
 722 545 786 498 786 402 c 0
 786 313 768 296 736 182 c 2
 731 164 l 1
 715 173 l 2
 648 207 573 224 497 224 c 0
 423 224 348 208 279 173 c 2
 263 164 l 1
 258 182 l 2
 226 296 208 313 208 402 c 0
 208 509 325 608 352 608 c 0
 385 608 464 521 464 475 c 0
 464 460 458 441 458 422 c 0
 458 396 477 377 499 377 c 0
 521 377 540 396 540 422 c 0
 540 448 537 452 521 473 c 2
 383 653 l 1
 497 771 l 1
 508 761 l 2
282 207 m 1
 351 238 424 254 497 254 c 0
 570 254 644 238 713 207 c 1
 743 309 756 323 756 402 c 0
 756 459 717 507 687 537 c 0
 676 549 593 632 497 729 c 1
 423 651 l 1
 545 491 l 2
 564 467 570 457 570 422 c 0
 570 381 539 347 499 347 c 0
 459 347 428 381 428 422 c 0
 428 443 434 464 434 475 c 0
 434 505 374 576 352 579 c 1
 352 579 238 500 238 402 c 0
 238 323 252 309 282 207 c 1
0 -200 m 5
 0 800 l 5
 1000 800 l 5
 1001 -200 l 5
 0 -200 l 5
10 -190 m 5
 991 -190 l 5
 990 790 l 5
 10 790 l 5
 10 -190 l 5
EndSplineSet
Validated: 1
EndChar

StartChar: uniE044
Encoding: 57412 57412 16
Width: 1000
VWidth: 0
Flags: W
HStem: -200 10<10 991> -15 30<202 830> 121 30<387.594 638.019> 224 30<392.063 631.461> 329 30<148.884 185.889> 369 30<210.335 328.454> 421 30<366.133 394.76> 508 64<269.534 326.466> 790 10<10 990>
VStem: 0 10<-190 790> 268 60<509.19 570.81> 338 30<662.01 729.688> 396 30<367.875 420.506> 714 30<211.633 495.245> 991 10<-190 790>
LayerCount: 2
Fore
SplineSet
268 540 m 0
 268 558 281 572 298 572 c 0
 315 572 328 558 328 540 c 0
 328 522 315 508 298 508 c 0
 281 508 268 522 268 540 c 0
164 329 m 1
 132 334 114 371 98 392 c 1
 98 397 l 2
 98 441 133 457 150 484 c 0
 181 533 193 576 238 622 c 0
 272 657 314 642 332 672 c 0
 335 676 338 684 338 696 c 0
 338 705 328 731 328 747 c 0
 328 753 330 761 334 768 c 2
 342 781 l 1
 356 772 l 2
 403 739 425 717 472 689 c 0
 539 649 588 642 646 597 c 0
 719 541 748 493 748 403 c 0
 748 381 744 337 744 292 c 0
 744 271 751 237 752 186 c 2
 754 161 l 1
 730 173 l 2
 663 207 588 224 512 224 c 0
 438 224 363 208 294 173 c 2
 260 156 l 1
 274 191 l 2
 295 250 310 271 336 316 c 0
 359 356 396 368 396 398 c 0
 396 414 386 421 378 421 c 0
 376 421 374 420 372 419 c 0
 355 410 347 365 292 365 c 0
 279 365 261 369 248 369 c 0
 247 369 247 369 246 369 c 0
 200 367 207 329 166 329 c 2
 164 329 l 1
314 215 m 1
 378 241 445 254 512 254 c 0
 583 254 655 239 722 210 c 1
 720 245 714 270 714 292 c 0
 714 337 718 381 718 403 c 0
 718 486 691 525 628 573 c 0
 573 615 524 622 456 663 c 0
 416 687 393 706 362 730 c 1
 365 719 368 705 368 696 c 0
 368 688 368 673 358 656 c 0
 332 613 286 629 260 602 c 0
 219 560 211 523 176 468 c 0
 155 435 130 428 128 402 c 1
 150 370 160 359 168 359 c 0
 183 359 189 397 246 399 c 0
 247 399 249 399 250 399 c 0
 266 399 279 395 292 395 c 0
 340 395 329 449 380 451 c 0
 390 451 423 445 426 398 c 1
 426 353 382 334 362 300 c 0
 341 264 328 247 314 215 c 1
512 151 m 0
 660 151 796 96 878 10 c 2
 902 -15 l 1
 128 -15 l 1
 152 10 l 2
 234 95 364 151 512 151 c 0
202 15 m 1
 830 15 l 1
 753 79 637 121 512 121 c 0
 387 121 278 79 202 15 c 1
0 -200 m 5
 0 800 l 5
 1000 800 l 5
 1001 -200 l 5
 0 -200 l 5
10 -190 m 5
 991 -190 l 5
 990 790 l 5
 10 790 l 5
 10 -190 l 5
EndSplineSet
Validated: 1
EndChar

StartChar: uniE045
Encoding: 57413 57413 17
Width: 1000
VWidth: 0
Flags: W
HStem: -200 10<10 991> -15 30<186 814> 121 30<372.457 622.882> 224 30<378.648 615.765> 340 30<449.444 544.582> 395 30<439.64 554.36> 663 30<439.64 554.36> 790 10<10 990>
VStem: 0 10<-190 790> 348 30<486.64 601.36> 616 30<486.64 601.36> 991 10<-190 790>
LayerCount: 2
Fore
SplineSet
497 693 m 0
 579 693 646 626 646 544 c 0
 646 462 579 395 497 395 c 0
 415 395 348 462 348 544 c 0
 348 626 415 693 497 693 c 0
378 544 m 0
 378 478 431 425 497 425 c 0
 563 425 616 478 616 544 c 0
 616 610 563 663 497 663 c 0
 431 663 378 610 378 544 c 0
336 228 m 1
 389 245 443 254 497 254 c 0
 551 254 606 245 659 228 c 1
 578 307 537 340 497 340 c 0
 457 340 416 307 336 228 c 1
497 370 m 0
 564 370 632 298 733 197 c 0
 738 192 739 183 734 177 c 0
 729 171 722 170 715 173 c 0
 647 207 571 224 497 224 c 0
 423 224 347 207 279 173 c 0
 272 170 265 171 260 177 c 0
 255 183 256 192 261 197 c 0
 362 298 430 370 497 370 c 0
497 151 m 0
 645 151 781 96 863 10 c 2
 887 -15 l 1
 113 -15 l 1
 137 10 l 2
 219 95 349 151 497 151 c 0
186 15 m 1
 814 15 l 1
 737 79 622 121 497 121 c 0
 372 121 262 79 186 15 c 1
0 -200 m 5
 0 800 l 5
 1000 800 l 5
 1001 -200 l 5
 0 -200 l 5
10 -190 m 5
 991 -190 l 5
 990 790 l 5
 10 790 l 5
 10 -190 l 5
EndSplineSet
Validated: 1
EndChar

StartChar: uniE046
Encoding: 57414 57414 18
Width: 1000
VWidth: 0
Flags: W
HStem: -200 10<10 991> 0 136<420.721 591.921> 239 55<365.685 422.864 596.505 652.007> 532 143<226.5 393.5 620.5 783> 532 42<401 414 596 607> 790 10<10 990>
VStem: 0 10<-190 790> 126 165<386 583.5> 454 109<331.6 496.597 652.209 743.619> 490 30<574 647.539> 726 148<367.5 576> 991 10<-190 790>
LayerCount: 2
Fore
SplineSet
157 0 m 1xe730
 236 82 362 136 506 136 c 0
 650 136 782 82 861 0 c 1
 157 0 l 1xe730
731 186 m 1
 661 221 582 239 506 239 c 0
 434 239 366 223 300 192 c 1
 171 337 126 450 126 530 c 0
 126 637 201 675 252 675 c 0xf770
 336 675 401 582 490 574 c 1
 490 642 l 1
 466 649 448 672 448 698 c 0
 448 730 474 756 506 756 c 0
 538 756 564 730 564 698 c 0
 564 671 545 648 520 642 c 1
 520 573 l 1xef70
 607 582 669 674 750 674 c 0
 816 674 874 621 874 531 c 0
 874 462 844 377 731 186 c 1
645 532 m 4
 596 532 563 482 563 416 c 4xf7b0
 563 356 590 294 645 294 c 4
 682 294 726 325 726 410 c 4
 726 494 686 532 645 532 c 4
373 532 m 4
 324 532 291 482 291 416 c 4
 291 356 318 294 373 294 c 4
 410 294 454 325 454 410 c 4
 454 494 414 532 373 532 c 4
0 -200 m 5
 0 800 l 5
 1000 800 l 5
 1001 -200 l 5
 0 -200 l 5
10 -190 m 5
 991 -190 l 5
 990 790 l 5
 10 790 l 5
 10 -190 l 5
EndSplineSet
Validated: 1
EndChar

StartChar: uniE047
Encoding: 57415 57415 19
Width: 1000
VWidth: 0
Flags: W
HStem: -200 10<10 991> 0 136<414.721 585.921> 234 174<467.745 536.631> 462 120<114.764 201.236 798.764 885.236> 592 120<354.764 441.236 558.764 645.236> 790 10<10 990>
VStem: 0 10<-190 790> 102 112<474.839 569.161> 342 112<604.839 699.161> 546 112<604.839 699.161> 786 112<474.839 569.161> 991 10<-190 790>
LayerCount: 2
Fore
SplineSet
500 408 m 3
 550 408 544 462 594 568 c 1
 605 383 630 340 654 340 c 0
 689 340 757 397 804 444 c 1
 778 364 754 281 754 189 c 0
 754 182 754 174 754 166 c 5
 660 212 603 234 500 234 c 28
 397 234 340 212 246 166 c 5
 246 174 246 182 246 189 c 0
 246 281 222 364 196 444 c 1
 243 397 311 340 346 340 c 0
 370 340 395 384 406 568 c 1
 456 462 458 408 500 408 c 3
151 0 m 1
 230 82 356 136 500 136 c 0
 644 136 776 82 855 0 c 1
 151 0 l 1
898 522 m 0
 898 489 873 462 842 462 c 0
 811 462 786 489 786 522 c 0
 786 555 811 582 842 582 c 0
 873 582 898 555 898 522 c 0
658 652 m 0
 658 619 633 592 602 592 c 0
 571 592 546 619 546 652 c 0
 546 685 571 712 602 712 c 0
 633 712 658 685 658 652 c 0
342 652 m 0
 342 685 367 712 398 712 c 0
 429 712 454 685 454 652 c 0
 454 619 429 592 398 592 c 0
 367 592 342 619 342 652 c 0
102 522 m 0
 102 555 127 582 158 582 c 0
 189 582 214 555 214 522 c 0
 214 489 189 462 158 462 c 0
 127 462 102 489 102 522 c 0
0 -200 m 5
 0 800 l 5
 1000 800 l 5
 1001 -200 l 5
 0 -200 l 5
10 -190 m 5
 991 -190 l 5
 990 790 l 5
 10 790 l 5
 10 -190 l 5
EndSplineSet
Validated: 1
EndChar

StartChar: uniE048
Encoding: 57416 57416 20
Width: 1000
VWidth: 0
Flags: W
HStem: -200 10<10 991> 0 136<411.721 582.921> 239 177<355.713 643.194> 502 131<341.015 413.958 580.042 652.985> 790 10<10 990>
VStem: 0 10<-190 790> 991 10<-190 790>
LayerCount: 2
Fore
SplineSet
497 724 m 24
 557 724 564 633 624 633 c 0
 659 633 674 680 713 680 c 0
 733 680 748 661 748 642 c 0
 748 632 744 559 667 476 c 1
 618 492 560 502 497 502 c 0
 434 502 376 492 327 476 c 1
 251 548 246 626 246 642 c 0
 246 661 261 680 281 680 c 0
 320 680 335 633 370 633 c 0
 430 633 437 724 497 724 c 24
666 403 m 1
 667 370 673 302 722 186 c 1
 652 221 573 239 497 239 c 0
 425 239 357 223 291 192 c 1
 323 296 332 360 332 404 c 1
 379 412 436 416 497 416 c 0
 560 416 618 411 666 403 c 1
148 0 m 1
 227 82 353 136 497 136 c 0
 641 136 773 82 852 0 c 1
 148 0 l 1
0 -200 m 5
 0 800 l 5
 1000 800 l 5
 1001 -200 l 5
 0 -200 l 5
10 -190 m 5
 991 -190 l 5
 990 790 l 5
 10 790 l 5
 10 -190 l 5
EndSplineSet
Validated: 1
EndChar

StartChar: uniE049
Encoding: 57417 57417 21
Width: 1000
VWidth: 0
Flags: W
HStem: -200 10<10 991> 0 136<411.721 582.921> 239 123<457.608 539.987> 790 10<10 990>
VStem: 0 10<-190 790> 223 220<376.138 480.759> 555 216<375.489 480.124> 991 10<-190 790>
LayerCount: 2
Fore
SplineSet
497 750 m 13
 576 670 698 548 699 546 c 0
 727 518 771 465 771 402 c 27
 771 316 755 302 722 186 c 1
 652 221 573 238 497 239 c 0
 421 239 342 221 272 186 c 1
 239 302 223 316 223 402 c 27
 223 465 265 520 295 546 c 0
 295 547 335 594 351 594 c 3
 376 594 449 513 449 475 c 0
 449 459 443 444 443 422 c 0
 443 389 468 362 499 362 c 0
 530 362 555 389 555 422 c 0
 555 455 548 462 533 482 c 26
 403 652 l 17
 497 750 l 13
148 0 m 1
 227 82 353 136 497 136 c 0
 641 136 773 82 852 0 c 1
 148 0 l 1
0 -200 m 5
 0 800 l 5
 1000 800 l 5
 1001 -200 l 5
 0 -200 l 5
10 -190 m 5
 991 -190 l 5
 990 790 l 5
 10 790 l 5
 10 -190 l 5
EndSplineSet
Validated: 1
EndChar

StartChar: uniE04A
Encoding: 57418 57418 22
Width: 1000
VWidth: 0
Flags: W
HStem: -200 10<10 991> 0 136<436.828 608.028> 380 128<268.141 336.114> 790 10<10 990>
VStem: 0 10<-190 790> 991 10<-190 790>
LayerCount: 2
Fore
SplineSet
278 540 m 0
 278 522 291 508 308 508 c 0
 325 508 338 522 338 540 c 0
 338 558 325 572 308 572 c 0
 291 572 278 558 278 540 c 0
302 380 m 4
 287 380 272 384 256 384 c 4
 208 384 206 344 176 344 c 5
 156 348 137 376 122 397 c 5
 122 434 153 445 172 476 c 28
 206 529 214 567 258 612 c 28
 288 643 332 628 354 664 c 20
 361 675 364 685 364 696 c 4
 364 711 354 731 354 747 c 4
 354 752 354 756 356 760 c 13
 402 727 426 705 474 676 c 28
 539 637 591 627 646 585 c 4
 714 533 742 489 742 403 c 4
 742 381 740 337 740 292 c 4
 740 268 747 236 748 186 c 5
 678 221 598 238 522 239 c 4
 446 239 368 221 298 186 c 5
 319 244 331 262 358 308 c 28
 380 345 422 360 422 398 c 4
 422 417 408 436 390 436 c 4
 351 436 359 380 302 380 c 4
174 0 m 1
 253 82 378 136 522 136 c 0
 666 136 799 82 878 0 c 1
 174 0 l 1
0 -200 m 5
 0 800 l 5
 1000 800 l 5
 1001 -200 l 5
 0 -200 l 5
10 -190 m 5
 991 -190 l 5
 990 790 l 5
 10 790 l 5
 10 -190 l 5
EndSplineSet
Validated: 1
EndChar

StartChar: uniE04B
Encoding: 57419 57419 23
Width: 1000
VWidth: 0
Flags: W
HStem: -200 10<10 991> 0 136<411.721 582.921> 239 116<441.053 558.37> 412 268<424.778 569.222> 790 10<10 990>
VStem: 0 10<-190 790> 363 268<473.778 618.222> 991 10<-190 790>
LayerCount: 2
Fore
SplineSet
148 0 m 1
 227 82 353 136 497 136 c 0
 641 136 773 82 852 0 c 1
 148 0 l 1
498 355 m 3
 563 355 638 268 699 202 c 1
 624 226 578 239 498 239 c 27
 418 239 373 225 297 203 c 1
 356 268 442 355 498 355 c 3
363 546 m 0
 363 620 423 680 497 680 c 0
 571 680 631 620 631 546 c 0
 631 472 571 412 497 412 c 0
 423 412 363 472 363 546 c 0
0 -200 m 5
 0 800 l 5
 1000 800 l 5
 1001 -200 l 5
 0 -200 l 5
10 -190 m 5
 991 -190 l 5
 990 790 l 5
 10 790 l 5
 10 -190 l 5
EndSplineSet
Validated: 1
EndChar

StartChar: uniE050
Encoding: 57424 57424 24
Width: 1000
VWidth: 0
Flags: W
HStem: -200 10<17 103 117 203 217 303 317 403 417 503 517 603 617 703 717 803 817 903 917 991> -15 30<192 820> 121 30<377.594 628.019> 224 30<388.332 620.48> 279 30<335.458 406.409 607.458 678.409> 517 30<334.203 405.102 606.203 677.102> 558 96<472.975 530.895> 660 30<195.488 304.166 693.492 796.59> 741 30<470.327 535.238> 790 10<10 83 97 183 197 283 297 383 397 583 597 683 697 783 797 883 897 983>
VStem: 0 10<-183 -97 -83 3 17 103 117 203 217 303 317 403 417 503 517 603 617 703 717 790> 108 30<446.427 598.496> 272 30<348.025 479.963> 436 30<342.518 482.121 660.529 734.777> 472 60<592 645.01> 544 30<348.025 479.963 664.145 731.5> 708 30<342.518 482.121> 856 30<447.912 597.027> 991 10<-190 -116 -102 -16 -2 84 98 184 198 283 298 383 397 483 497 583 597 683 697 783>
LayerCount: 2
Back
SplineSet
733.687 140.758 m 5
 773 181 l 5
 990.402 397.473 l 5
 990.301 483.244 l 5
 863.945 356.885 l 5
 874.862 381.933 l 5
 990.301 497.372 l 5
 990.2 583.143 l 5
 908.969 501.911 l 5
 909.521 507.126 909.913 512.223 910.161 517.232 c 5
 990.2 597.271 l 5
 990.099 683.042 l 5
 901.436 594.378 l 5
 900.343 597.972 899.157 601.498 897.882 604.954 c 5
 990.099 697.17 l 5
 990.005 782.941 l 5
 866.197 659.132 l 5
 864.004 661.666 861.745 664.121 859.423 666.494 c 5
 982.929 790 l 5
 897.071 790 l 5
 808.494 701.423 l 5
 805.142 702.853 801.738 704.166 798.288 705.359 c 5
 882.929 790 l 5
 797.071 790 l 5
 718.404 711.333 l 5
 711.987 710.12 705.704 708.525 699.541 706.612 c 5
 782.929 790 l 5
 697.071 790 l 5
 600.391 693.319 l 5
 600.463 694.871 600.5 696.432 600.5 698 c 4
 600.5 701.083 600.356 704.135 600.075 707.147 c 5
 682.929 790 l 5
 597.071 790 l 5
 573.017 765.945 l 5
 570.701 768.347 568.265 770.632 565.717 772.789 c 5
 582.928 790 l 5
 536.24 790 l 5
 497.071 790 l 5
 482.929 790 l 5
 468.761 790 l 5
 397.071 790 l 5
 310.109 703.037 l 5
 306.644 704.342 303.147 705.563 299.616 706.687 c 5
 382.929 790 l 5
 297.071 790 l 5
 219.27 712.199 l 5
 212.945 710.993 206.612 709.394 200.326 707.397 c 5
 282.929 790 l 5
 197.071 790 l 5
 10 602.929 l 5
 10 517.071 l 5
 93.2129 600.284 l 5
 91.134 594.041 89.3281 587.531 87.8216 580.75 c 5
 10 502.929 l 5
 10 417.071 l 5
 85.2449 492.316 l 5
 85.8055 488.357 86.461 484.301 87.2193 480.148 c 5
 10 402.929 l 5
 10 317.071 l 5
 106.221 413.292 l 5
 110.202 403.13 l 5
 10 302.929 l 5
 10 217.071 l 5
 137.871 344.942 l 5
 142.905 335.834 l 5
 10 202.929 l 5
 10 117.071 l 5
 175.69 282.761 l 5
 181.409 274.338 l 5
 10 102.929 l 5
 10 17.0713 l 5
 217.712 224.783 l 5
 223.926 216.855 l 5
 10 2.92871 l 5
 10 -82.9287 l 5
 262.858 169.93 l 5
 266.757 165.456 l 5
 269.45 162.378 l 5
 189.785 82.7133 l 5
 165.817 66.0505 143.936 47.4965 124.486 27.335 c 6
 100.465 2.31348 l 6
 95.9837 -2.35473 93.5771 -7.89417 93.3525 -13.7188 c 5
 10 -97.0713 l 5
 10 -182.929 l 5
 152.929 -40 l 5
 167.07 -40 l 5
 17.0713 -190 l 5
 102.929 -190 l 5
 252.929 -40 l 5
 267.069 -40 l 5
 117.071 -190 l 5
 202.929 -190 l 5
 352.929 -40 l 5
 367.069 -40 l 5
 217.071 -190 l 5
 302.929 -190 l 5
 452.929 -40 l 5
 467.068 -40 l 5
 317.071 -190 l 5
 402.929 -190 l 5
 552.929 -40 l 5
 567.068 -40 l 5
 417.071 -190 l 5
 502.929 -190 l 5
 652.929 -40 l 5
 667.067 -40 l 5
 517.071 -190 l 5
 602.929 -190 l 5
 752.929 -40 l 5
 767.066 -40 l 5
 617.071 -190 l 5
 702.929 -190 l 5
 852.929 -40 l 5
 867.063 -40 l 5
 717.071 -190 l 5
 802.929 -190 l 5
 990.805 -2.1235 l 5
 990.704 83.6473 l 5
 909.967 2.90554 l 5
 903.045 10.1159 l 5
 990.704 97.7756 l 5
 990.603 183.546 l 5
 859.77 52.7081 l 5
 852.112 59.1828 l 5
 990.603 197.675 l 5
 990.502 283.445 l 5
 802.029 94.9668 l 5
 793.213 100.284 l 5
 990.502 297.574 l 5
 990.402 383.345 l 5
 736.194 129.13 l 5
 726.231 133.302 l 5
 733.687 140.758 l 5
10 617.071 m 5
 182.929 790 l 5
 97.0713 790 l 5
 10 702.929 l 5
 10 617.071 l 5
10 717.071 m 5
 82.9287 790 l 5
 10 790 l 5
 10 717.071 l 5
990.805 -16.2518 m 5
 817.071 -190 l 5
 902.929 -190 l 5
 990.906 -102.023 l 5
 990.805 -16.2518 l 5
990.995 -190 m 5
 990.906 -116.151 l 5
 917.071 -190 l 5
 990.995 -190 l 5
107.071 -200 m 5
 92.9287 -200 l 5
 0 -200 l 5
 0 -192.929 l 5
 0 -107.071 l 5
 0 -92.9287 l 5
 0 -7.07129 l 5
 0 7.07129 l 5
 0 92.9287 l 5
 0 107.071 l 5
 0 192.929 l 5
 0 207.071 l 5
 0 292.929 l 5
 0 307.071 l 5
 0 392.929 l 5
 0 407.071 l 5
 0 492.929 l 5
 0 507.071 l 5
 0 592.929 l 5
 0 607.071 l 5
 0 692.929 l 5
 0 707.071 l 5
 0 800 l 5
 7.07131 800 l 5
 92.9287 800 l 5
 107.071 800 l 5
 192.929 800 l 5
 207.071 800 l 5
 292.929 800 l 5
 307.071 800 l 5
 392.929 800 l 5
 407.071 800 l 5
 492.929 800 l 5
 507.071 800 l 5
 592.929 800 l 5
 607.071 800 l 5
 692.929 800 l 5
 707.071 800 l 5
 792.929 800 l 5
 807.071 800 l 5
 892.929 800 l 5
 907.071 800 l 5
 992.929 800 l 5
 1000 800 l 5
 1001 -200 l 5
 992.929 -200 l 5
 907.071 -200 l 5
 892.929 -200 l 5
 807.071 -200 l 5
 792.929 -200 l 5
 707.071 -200 l 5
 692.929 -200 l 5
 607.071 -200 l 5
 592.929 -200 l 5
 507.071 -200 l 5
 492.929 -200 l 5
 407.071 -200 l 5
 392.929 -200 l 5
 307.071 -200 l 5
 292.929 -200 l 5
 207.071 -200 l 5
 192.929 -200 l 5
 107.071 -200 l 5
375.897 668.826 m 5
 367.129 674.2 l 5
 405.599 712.67 l 5
 404.875 707.883 404.5 702.984 404.5 698 c 6
 404.502 697.43 l 5
 375.897 668.826 l 5
663.391 170.463 m 5
 673.626 166.563 l 5
 662.027 154.963 l 5
 650.821 157.892 l 5
 663.391 170.463 l 5
584.641 191.712 m 5
 588.603 191.007 592.558 190.25 596.506 189.442 c 5
 578.417 171.352 l 5
 574.198 171.873 569.963 172.351 565.714 172.786 c 5
 584.641 191.712 l 5
506.051 198.986 m 6
 482.747 175.681 l 5
 477.794 175.521 472.861 175.301 467.95 175.022 c 5
 491.795 198.866 l 5
 495.354 198.955 498.922 199 502.5 199 c 4
 503.683 199 504.867 198.995 506.051 198.986 c 6
391.236 184.167 m 5
 367.693 160.624 l 5
 361.328 159.132 355.019 157.536 348.769 155.84 c 5
 371.175 178.246 l 5
 377.836 180.38 384.522 182.355 391.236 184.167 c 5
886.564 27.2822 m 6
892.5 -40 m 6
 903.005 -40 911.379 -34.4648 915.498 -24.8018 c 4
 919.617 -15.1387 917.81 -5.26465 910.535 2.31348 c 6
EndSplineSet
Fore
SplineSet
263 170 m 1
 269 162 l 1
 190 83 l 1
 166 66 143 47 124 27 c 2
 100 2 l 2
 96 -3 93 -8 93 -14 c 1
 10 -97 l 1
 10 -183 l 1
 153 -40 l 1
 167 -40 l 1
 17 -190 l 1
 103 -190 l 1
 253 -40 l 1
 267 -40 l 1
 117 -190 l 1
 203 -190 l 1
 353 -40 l 1
 367 -40 l 1
 217 -190 l 1
 303 -190 l 1
 453 -40 l 1
 467 -40 l 1
 317 -190 l 1
 403 -190 l 1
 553 -40 l 1
 567 -40 l 1
 417 -190 l 1
 503 -190 l 1
 653 -40 l 1
 667 -40 l 1
 517 -190 l 1
 603 -190 l 1
 753 -40 l 1
 767 -40 l 1
 617 -190 l 1
 703 -190 l 1
 853 -40 l 1
 867 -40 l 1
 717 -190 l 1
 803 -190 l 1
 991 -2 l 1
 991 84 l 1
 910 3 l 1
 903 10 l 1
 991 98 l 1
 991 184 l 1
 860 53 l 1
 852 59 l 1
 991 198 l 1
 991 283 l 1
 802 95 l 1
 793 100 l 1
 991 298 l 1
 990 383 l 1
 736 129 l 1
 726 133 l 1
 990 397 l 1
 990 483 l 1
 864 357 l 1
 875 382 l 1
 990 497 l 1
 990 583 l 1
 909 502 l 1
 910 507 910 512 910 517 c 1
 990 597 l 1
 990 683 l 1
 901 594 l 1
 900 598 899 602 898 605 c 1
 990 697 l 1
 990 783 l 1
 866 659 l 1
 864 662 861 664 859 666 c 1
 983 790 l 1
 897 790 l 1
 808 701 l 1
 805 702 801 704 798 705 c 1
 883 790 l 1
 797 790 l 1
 718 711 l 1
 712 710 706 709 700 707 c 1
 783 790 l 1
 697 790 l 1
 600 693 l 1
 600 695 600 696 600 698 c 0
 600 701 600 704 600 707 c 1
 683 790 l 1
 597 790 l 1
 573 766 l 1
 571 768 569 771 566 773 c 1
 583 790 l 1
 397 790 l 1
 310 703 l 1
 307 704 304 706 300 707 c 1
 383 790 l 1
 297 790 l 1
 219 712 l 1
 213 711 206 709 200 707 c 1
 283 790 l 1
 197 790 l 1
 10 603 l 1
 10 517 l 1
 93 600 l 1
 91 594 90 588 88 581 c 1
 10 503 l 1
 10 417 l 1
 85 492 l 1
 86 488 86 484 87 480 c 1
 10 403 l 1
 10 317 l 1
 106 413 l 1
 110 403 l 1
 10 303 l 1
 10 217 l 1
 138 345 l 1
 143 336 l 1
 10 203 l 1
 10 117 l 1
 176 283 l 1
 181 274 l 1
 10 103 l 1
 10 17 l 1
 218 225 l 1
 224 217 l 1
 10 3 l 1
 10 -83 l 1
 263 170 l 1
376 669 m 1
 367 674 l 1
 406 713 l 1
 405 708 404 703 404 698 c 2
 404 697 l 1
 376 669 l 1
663 170 m 1
 674 167 l 1
 662 155 l 1
 651 158 l 1
 663 170 l 1
585 192 m 1
 589 191 593 190 597 189 c 1
 578 171 l 1
 574 172 570 173 566 173 c 1
 585 192 l 1
506 199 m 1
 483 176 l 1
 478 176 473 175 468 175 c 1
 492 199 l 1
 496 199 498 199 502 199 c 2
 506 199 l 1
391 184 m 1
 368 161 l 1
 362 160 355 158 349 156 c 1
 371 178 l 1
 378 180 384 182 391 184 c 1
502 151 m 0
 650 151 786 96 868 10 c 2
 892 -15 l 1
 118 -15 l 1
 142 10 l 2
 224 95 354 151 502 151 c 0
192 15 m 1
 820 15 l 1
 743 79 627 121 502 121 c 0
 377 121 268 79 192 15 c 1
722 206 m 1
 825 381 856 465 856 531 c 0
 856 613 804 659 746 659 c 0
 664 659 605 558 502 558 c 0
 396 558 331 660 248 660 c 0
 204 660 138 627 138 530 c 0
 138 457 177 350 300 210 c 1
 365 239 431 254 502 254 c 0
 576 254 653 238 722 206 c 1
502 224 m 0
 432 224 366 208 302 178 c 1
 292 174 l 1
 286 182 l 2
 157 329 108 444 108 530 c 0
 108 645 188 690 248 690 c 0
 332 690 396 609 472 592 c 1
 472 632 l 1
 447 644 430 669 430 698 c 0
 430 738 462 771 502 771 c 0
 542 771 576 738 576 698 c 0
 576 668 558 642 532 631 c 1
 532 591 l 1
 606 609 665 689 746 689 c 0
 820 689 886 629 886 531 c 0
 886 457 852 370 740 178 c 2
 734 166 l 1
 720 173 l 1
 652 207 576 224 502 224 c 0
502 654 m 0
 521 654 546 670 546 698 c 0
 546 722 526 741 502 741 c 0
 478 741 460 722 460 698 c 0
 460 669 484 654 502 654 c 0
642 517 m 0
 602 517 574 473 574 416 c 0
 574 358 601 309 642 309 c 0
 668 309 708 331 708 410 c 0
 708 488 673 517 642 517 c 0
738 410 m 0
 738 318 688 279 642 279 c 0
 582 279 544 340 544 416 c 0
 544 490 584 547 642 547 c 0
 693 547 738 501 738 410 c 0
370 517 m 0
 330 517 302 473 302 416 c 0
 302 358 329 309 370 309 c 0
 396 309 436 331 436 410 c 0
 436 488 401 517 370 517 c 0
466 410 m 0
 466 318 416 279 370 279 c 0
 310 279 272 340 272 416 c 0
 272 490 312 547 370 547 c 0
 421 547 466 501 466 410 c 0
1001 -200 m 1
 0 -200 l 1
 0 800 l 1
 1000 800 l 1
 1001 -200 l 1
10 703 m 1
 10 617 l 1
 183 790 l 1
 97 790 l 1
 10 703 l 1
10 717 m 1
 83 790 l 1
 10 790 l 1
 10 717 l 1
991 -102 m 1
 991 -16 l 1
 817 -190 l 1
 903 -190 l 1
 991 -102 l 1
917 -190 m 1
 991 -190 l 1
 991 -116 l 1
 917 -190 l 1
EndSplineSet
Validated: 1
EndChar

StartChar: uniE051
Encoding: 57425 57425 25
Width: 1000
VWidth: 0
Flags: W
HStem: -200 10<17 103 117 203 217 303 317 403 417 503 517 603 617 703 717 803 817 903 917 991> -15 30<189 817> 121 30<375.763 622.375> 219 30<379.394 620.237> 325 30<309.554 358.382 639.987 690.76> 393 32<481.229 522.485> 447 30<128.159 180.765 819.235 871.841> 567 30<128.159 187.841 812.159 871.841> 697 30<368.159 427.841 572.159 631.841> 790 10<10 83 97 183 197 283 297 383 397 483 497 583 597 683 697 783 797 883 897 983>
VStem: 0 10<-183 -97 -83 3 17 103 117 203 217 303 317 403 417 503 517 603 617 703 717 790> 87 30<487.814 556.186> 199 30<487.481 556.186> 232 29<190 311.816> 327 30<618.08 686.186> 439 30<617.782 686.186> 531 30<617.782 686.186> 643 30<618.08 686.186> 739 29<190 311.875> 771 30<487.481 556.186> 883 30<487.814 556.186> 991 10<-190 -116 -102 -16 -2 84 98 184 198 283 298 383 397 483 497 583 597 683 697 783>
LayerCount: 2
Back
SplineSet
1001 -200 m 5
 0 -200 l 5
 0 800 l 5
 1000 800 l 5
 1001 -200 l 5
990.099 697.17 m 5
 990.012 782.941 l 5
 828.047 620.976 l 5
 821.393 619.987 815.001 618.3 808.926 615.997 c 5
 982.929 790 l 5
 897.071 790 l 5
 637.068 529.997 l 5
 635.903 542.974 l 5
 882.929 790 l 5
 797.071 790 l 5
 692.483 685.411 l 5
 691.309 688.861 689.958 692.232 688.44 695.511 c 5
 782.929 790 l 5
 697.071 790 l 5
 647.359 740.287 l 5
 644.289 742 641.111 743.544 637.836 744.907 c 5
 682.929 790 l 5
 597.071 790 l 5
 489.459 682.388 l 5
 488.378 685.921 487.112 689.377 485.672 692.744 c 5
 582.929 790 l 5
 497.071 790 l 5
 445.893 738.822 l 5
 442.908 740.611 439.815 742.24 436.622 743.693 c 5
 482.929 790 l 5
 397.071 790 l 5
 211.942 604.871 l 5
 209.158 606.845 206.264 608.672 203.267 610.338 c 5
 382.929 790 l 5
 297.071 790 l 5
 121.83 614.759 l 5
 98.8824 605.095 80.7813 586.515 70.7354 563.664 c 5
 10 502.929 l 5
 10 417.071 l 5
 71.5148 478.586 l 5
 72.9839 475.404 74.6106 472.31 76.386 469.315 c 5
 10 402.929 l 5
 10 317.071 l 5
 122.064 429.135 l 5
 125.458 427.718 128.958 426.495 132.553 425.482 c 5
 10 302.929 l 5
 10 217.071 l 5
 174.465 381.537 l 5
 177.67 370.599 l 5
 10 202.929 l 5
 10 117.071 l 5
 194.579 301.65 l 5
 196.868 289.796 l 5
 10 102.929 l 5
 10 17.0713 l 5
 206.317 213.389 l 5
 206.566 208.838 206.749 204.303 206.862 199.791 c 5
 10 2.92871 l 5
 10 -82.9287 l 5
 214.38 121.451 l 6
 215.126 120.872 215.915 120.322 216.746 119.803 c 4
 219.025 118.378 221.37 117.337 223.751 116.68 c 5
 192.723 85.652 l 5
 147.862 54.4613 117.6 22.3859 98.1289 2.48242 c 4
 92.9082 -2.85435 90.4373 -9.37816 90.8888 -16.1825 c 5
 10 -97.0713 l 5
 10 -182.929 l 5
 152.929 -40 l 5
 167.071 -40 l 5
 17.0713 -190 l 5
 102.929 -190 l 5
 252.929 -40 l 5
 267.069 -40 l 5
 117.071 -190 l 5
 202.929 -190 l 5
 352.929 -40 l 5
 367.069 -40 l 5
 217.071 -190 l 5
 302.929 -190 l 5
 452.929 -40 l 5
 467.068 -40 l 5
 317.071 -190 l 5
 402.929 -190 l 5
 552.929 -40 l 5
 567.068 -40 l 5
 417.071 -190 l 5
 502.929 -190 l 5
 652.929 -40 l 5
 667.067 -40 l 5
 517.071 -190 l 5
 602.929 -190 l 5
 752.929 -40 l 5
 767.066 -40 l 5
 617.071 -190 l 5
 702.929 -190 l 5
 852.929 -40 l 5
 867.063 -40 l 5
 717.071 -190 l 5
 802.929 -190 l 5
 990.805 -2.1235 l 5
 990.704 83.6473 l 5
 908.683 1.62157 l 6
 908.36 1.97872 908.025 2.33086 907.678 2.67773 c 4
 906.432 3.9235 904.499 6.05826 901.862 8.93345 c 5
 990.704 97.7756 l 5
 990.603 183.546 l 5
 858.257 51.1947 l 5
 850.555 57.6261 l 5
 990.603 197.675 l 5
 990.502 283.445 l 5
 800.599 93.5361 l 5
 791.85 98.9209 l 5
 990.502 297.574 l 5
 990.402 383.345 l 5
 793.002 185.94 l 5
 793 187 l 6
 793 191.435 793.054 195.845 793.159 200.231 c 5
 990.402 397.473 l 5
 990.301 483.244 l 5
 803.767 296.706 l 5
 804.917 302.677 806.148 308.615 807.453 314.524 c 5
 990.301 497.372 l 5
 990.2 583.143 l 5
 937.646 530.588 l 5
 937.3 534.77 936.704 538.895 935.871 542.943 c 5
 990.2 597.271 l 5
 990.099 683.042 l 5
 904.81 597.752 l 5
 902.327 599.998 899.729 602.116 897.022 604.093 c 5
 990.099 697.17 l 5
990.906 -102.023 m 5
 990.805 -16.2518 l 5
 817.071 -190 l 5
 902.929 -190 l 5
 990.906 -102.023 l 5
990.906 -116.151 m 5
 917.071 -190 l 5
 990.995 -190 l 5
 990.906 -116.151 l 5
10 602.929 m 5
 10 517.071 l 5
 282.929 790 l 5
 197.071 790 l 5
 10 602.929 l 5
10 702.929 m 5
 10 617.071 l 5
 182.929 790 l 5
 97.0713 790 l 5
 10 702.929 l 5
10 717.071 m 5
 82.9287 790 l 5
 10 790 l 5
 10 717.071 l 5
468.178 175.249 m 5
 486.777 193.848 l 5
 491.114 193.949 495.519 194 500 194 c 6
 501.064 193.999 l 5
 482.85 175.784 l 5
 477.904 175.659 473.013 175.48 468.178 175.249 c 5
369.396 162.324 m 5
 363.071 160.926 356.87 159.436 350.79 157.861 c 5
 367.49 174.561 l 5
 374.121 176.669 380.758 178.605 387.441 180.37 c 5
 369.396 162.324 l 5
565.625 172.696 m 5
 580.448 187.519 l 5
 584.436 186.821 588.39 186.065 592.317 185.252 c 5
 578.323 171.258 l 5
 574.133 171.778 569.901 172.257 565.625 172.696 c 5
650.582 157.654 m 5
 658.534 165.606 l 5
 668.678 161.614 l 5
 661.737 154.674 l 5
 650.582 157.654 l 5
252.707 445.635 m 5
 245.289 452.36 l 5
 355.361 562.433 l 5
 358.502 560.79 361.748 559.315 365.091 558.02 c 5
 252.707 445.635 l 5
307.712 400.641 m 5
 299.561 406.633 l 5
 356.066 463.137 l 5
 355.293 457.539 354.48 451.988 353.625 446.553 c 5
 307.712 400.641 l 5
365.787 557.754 m 5
312.942 605.871 m 5
 251.544 544.473 l 5
 250.712 548.229 249.676 551.916 248.446 555.518 c 5
 308.627 615.698 l 5
 309.897 612.339 311.338 609.059 312.942 605.871 c 5
456.063 548.992 m 5
 452.006 559.077 l 5
 511.545 618.616 l 5
 512.728 615.173 514.089 611.812 515.619 608.548 c 5
 456.063 548.992 l 5
486.683 479.611 m 5
 482.041 489.112 l 5
 546.103 553.175 l 5
 537.142 530.07 l 5
 486.683 479.611 l 5
647.682 440.611 m 5
 647.046 444.638 646.43 448.746 645.835 452.906 c 5
 753.392 560.464 l 5
 750.854 554.116 748.927 547.465 747.678 540.607 c 5
 647.682 440.611 l 5
695.346 402.417 m 5
 760.91 467.981 l 5
 762.199 465.856 763.565 463.782 765.006 461.763 c 5
 741.475 439.323 716.666 417.837 695.346 402.417 c 5
EndSplineSet
Fore
SplineSet
990 697 m 1
 990 783 l 1
 828 621 l 1
 821 620 815 618 809 616 c 1
 983 790 l 1
 897 790 l 1
 637 530 l 1
 636 543 l 1
 883 790 l 1
 797 790 l 1
 692 685 l 1
 691 688 690 693 688 696 c 1
 783 790 l 1
 697 790 l 1
 647 740 l 1
 644 742 641 744 638 745 c 1
 683 790 l 1
 597 790 l 1
 489 682 l 1
 488 686 487 690 486 693 c 1
 583 790 l 1
 497 790 l 1
 446 739 l 1
 443 741 440 743 437 744 c 1
 483 790 l 1
 397 790 l 1
 212 605 l 1
 209 607 206 608 203 610 c 1
 383 790 l 1
 297 790 l 1
 122 615 l 1
 99 605 81 587 71 564 c 1
 10 503 l 1
 10 417 l 1
 72 479 l 1
 73 476 74 472 76 469 c 1
 10 403 l 1
 10 317 l 1
 122 429 l 1
 125 428 129 426 133 425 c 1
 10 303 l 1
 10 217 l 1
 174 382 l 1
 178 371 l 1
 10 203 l 1
 10 117 l 1
 195 302 l 1
 197 290 l 1
 10 103 l 1
 10 17 l 1
 206 213 l 1
 206 208 207 205 207 200 c 1
 10 3 l 1
 10 -83 l 1
 214 121 l 2
 215 120 216 121 217 120 c 0
 219 119 222 118 224 117 c 1
 193 86 l 1
 148 55 117 22 98 2 c 0
 93 -3 91 -9 91 -16 c 1
 10 -97 l 1
 10 -183 l 1
 153 -40 l 1
 167 -40 l 1
 17 -190 l 1
 103 -190 l 1
 253 -40 l 1
 267 -40 l 1
 117 -190 l 1
 203 -190 l 1
 353 -40 l 1
 367 -40 l 1
 217 -190 l 1
 303 -190 l 1
 453 -40 l 1
 467 -40 l 1
 317 -190 l 1
 403 -190 l 1
 553 -40 l 1
 567 -40 l 1
 417 -190 l 1
 503 -190 l 1
 653 -40 l 1
 667 -40 l 1
 517 -190 l 1
 603 -190 l 1
 753 -40 l 1
 767 -40 l 1
 617 -190 l 1
 703 -190 l 1
 853 -40 l 1
 867 -40 l 1
 717 -190 l 1
 803 -190 l 1
 991 -2 l 1
 991 84 l 1
 909 2 l 2
 908 3 l 0
 907 4 905 6 902 9 c 1
 991 98 l 1
 991 184 l 1
 858 51 l 1
 851 58 l 1
 991 198 l 1
 991 283 l 1
 801 94 l 1
 792 99 l 1
 991 298 l 1
 990 383 l 1
 793 186 l 1
 793 187 l 2
 793 191 793 196 793 200 c 1
 990 397 l 1
 990 483 l 1
 804 297 l 1
 805 303 806 309 807 315 c 1
 990 497 l 1
 990 583 l 1
 938 531 l 1
 938 535 937 539 936 543 c 1
 990 597 l 1
 990 683 l 1
 905 598 l 1
 903 600 900 602 897 604 c 1
 990 697 l 1
991 -102 m 1
 991 -16 l 1
 817 -190 l 1
 903 -190 l 1
 991 -102 l 1
991 -116 m 1
 917 -190 l 1
 991 -190 l 1
 991 -116 l 1
10 603 m 1
 10 517 l 1
 283 790 l 1
 197 790 l 1
 10 603 l 1
10 703 m 1
 10 617 l 1
 183 790 l 1
 97 790 l 1
 10 703 l 1
10 717 m 1
 83 790 l 1
 10 790 l 1
 10 717 l 1
468 175 m 1
 487 194 l 1
 491 194 496 194 500 194 c 2
 501 194 l 1
 483 176 l 1
 478 176 473 175 468 175 c 1
369 162 m 1
 363 161 357 160 351 158 c 1
 367 175 l 1
 374 177 380 178 387 180 c 1
 369 162 l 1
566 173 m 1
 580 188 l 1
 584 187 588 186 592 185 c 1
 578 171 l 1
 574 172 570 173 566 173 c 1
651 158 m 1
 659 166 l 1
 669 162 l 1
 662 155 l 1
 651 158 l 1
253 446 m 1
 245 452 l 1
 355 562 l 1
 358 560 362 559 365 558 c 1
 253 446 l 1
308 401 m 1
 300 407 l 1
 356 463 l 1
 355 457 355 452 354 447 c 1
 308 401 l 1
313 606 m 1
 252 544 l 1
 251 548 249 552 248 556 c 1
 309 616 l 1
 310 613 311 609 313 606 c 1
456 549 m 1
 452 559 l 1
 512 619 l 1
 513 616 514 612 516 609 c 1
 456 549 l 1
487 480 m 1
 482 489 l 1
 546 553 l 1
 537 530 l 1
 487 480 l 1
648 441 m 1
 647 445 647 449 646 453 c 1
 753 560 l 1
 750 554 749 548 748 541 c 1
 648 441 l 1
695 402 m 1
 761 468 l 1
 762 466 764 464 765 462 c 1
 741 440 716 417 695 402 c 1
117 522 m 0
 117 496 136 477 158 477 c 0
 180 477 199 496 199 522 c 0
 199 548 180 567 158 567 c 0
 136 567 117 548 117 522 c 0
158 597 m 0
 198 597 229 563 229 522 c 0
 229 497 218 475 200 461 c 1
 202 459 306 355 346 355 c 1
 346 355 349 355 353 360 c 0
 383 395 392 573 392 577 c 1
 355 581 327 614 327 652 c 0
 327 693 358 727 398 727 c 0
 438 727 469 693 469 652 c 0
 469 618 447 589 417 580 c 1
 458 476 480 425 502 425 c 0
 524 425 544 476 583 580 c 1
 553 589 531 618 531 652 c 0
 531 693 562 727 602 727 c 0
 642 727 673 693 673 652 c 0
 673 614 645 581 608 577 c 1
 610 564 621 355 654 355 c 0
 695 355 799 460 800 461 c 1
 782 475 771 497 771 522 c 0
 771 563 802 597 842 597 c 0
 882 597 913 563 913 522 c 0
 913 481 882 447 842 447 c 0
 835 447 828 448 822 450 c 1
 794 368 768 284 768 187 c 0
 768 172 769 157 770 141 c 1
 669 194 603 219 500 219 c 0
 396 219 330 193 230 141 c 1
 231 179 232 184 232 189 c 0
 232 282 203 382 178 450 c 1
 172 448 165 447 158 447 c 0
 118 447 87 481 87 522 c 0
 87 563 118 597 158 597 c 0
357 652 m 0
 357 626 376 607 398 607 c 0
 420 607 439 626 439 652 c 0
 439 678 420 697 398 697 c 0
 376 697 357 678 357 652 c 0
643 652 m 0
 643 678 624 697 602 697 c 0
 580 697 561 678 561 652 c 0
 561 626 580 607 602 607 c 0
 624 607 643 626 643 652 c 0
883 522 m 0
 883 548 864 567 842 567 c 0
 820 567 801 548 801 522 c 0
 801 496 820 477 842 477 c 0
 864 477 883 496 883 522 c 0
189 15 m 1
 817 15 l 1
 740 79 625 121 500 121 c 0
 375 121 265 79 189 15 c 1
500 151 m 0
 757 151 877 -2 890 -15 c 1
 116 -15 l 1
 161 31 270 151 500 151 c 0
500 393 m 0
 456 393 446 434 417 506 c 1
 408 416 395 364 376 341 c 0
 364 326 352 325 346 325 c 0
 313 325 265 361 227 394 c 1
 246 330 261 263 261 190 c 1
 345 230 404 249 500 249 c 0
 596 249 655 230 739 190 c 1
 739 263 754 330 773 394 c 1
 735 361 687 325 654 325 c 0
 642 325 632 331 624 340 c 0
 603 366 591 424 584 505 c 1
 557 434 550 393 500 393 c 0
0 -200 m 1
 0 800 l 1
 1000 800 l 1
 1001 -200 l 1
 0 -200 l 1
EndSplineSet
Validated: 1
EndChar

StartChar: uniE052
Encoding: 57426 57426 26
Width: 1000
VWidth: 0
Flags: W
HStem: -200 10<17 103 117 203 217 303 317 403 417 503 517 603 617 703 717 803 817 903 917 991> -15 30<186 814> 0 21G<900 927> 121 30<372.457 622.882> 154 15<655 668> 224 30<382.109 615.172> 401 30<348.741 650.025> 487 30<366.169 627.831> 618 30<342.208 400.79 593.209 651.792> 665 30<262.831 310.98 683.02 731.169> 709 30<466.21 527.791> 790 10<10 83 97 183 197 283 297 383 397 483 497 583 597 683 697 783 797 883 897 983>
VStem: 0 10<-183 -97 -83 3 17 103 117 203 217 303 317 403 417 503 517 603 617 703 717 790> 231 30<576.032 664.017> 317 30<288.827 392.894> 733 30<580.984 664.017> 991 10<-190 -116 -102 -16 -2 84 98 184 198 283 298 383 397 483 497 583 597 683 697 783>
LayerCount: 2
Back
SplineSet
1001 -200 m 5
 0 -200 l 5
 0 800 l 5
 1000 800 l 5
 1001 -200 l 5
990.099 697.17 m 5
 990.012 782.941 l 5
 770.584 563.513 l 5
 773.599 571.161 776.1 578.427 778.172 585.243 c 5
 982.929 790 l 5
 897.071 790 l 5
 781.314 674.243 l 5
 779.917 677.449 778.31 680.566 776.5 683.571 c 5
 882.929 790 l 5
 797.071 790 l 5
 725.769 718.698 l 5
 720.763 719.441 716.398 719.649 713 720 c 6
 712.929 720 l 5
 782.929 790 l 5
 697.071 790 l 5
 599.442 692.371 l 5
 593.438 700.509 l 5
 682.929 790 l 5
 597.071 790 l 5
 552.967 745.896 l 5
 550.212 747.787 547.291 749.579 544.179 751.25 c 5
 582.929 790 l 5
 497.071 790 l 5
 466.157 759.086 l 5
 419.416 743.173 400.883 693.144 379.581 676.832 c 4
 375.475 673.688 374.594 673.474 370 673 c 5
 368.024 671.13 366.104 670.625 364.08 671.151 c 5
 482.929 790 l 5
 397.071 790 l 5
 317.012 709.941 l 5
 313.945 711.503 310.671 712.951 307.172 714.243 c 5
 382.929 790 l 5
 297.071 790 l 5
 10 502.929 l 5
 10 417.071 l 5
 208.166 615.237 l 5
 208.716 611.481 209.398 607.448 210.242 603.171 c 5
 10 402.929 l 5
 10 317.071 l 5
 231.662 538.733 l 5
 236.349 529.278 l 5
 10 302.929 l 5
 10 217.071 l 5
 270.435 477.506 l 5
 276.892 469.821 l 5
 10 202.929 l 5
 10 117.071 l 5
 291.96 399.031 l 5
 291.887 394.431 291.711 389.542 291.406 384.335 c 5
 10 102.929 l 5
 10 17.0713 l 5
 274.904 281.975 l 5
 270.219 263.147 l 5
 10 2.92871 l 5
 10 -82.9287 l 5
 88.3291 -4.59959 l 5
 54.3447 -40 l 5
 67.0713 -40 l 5
 10 -97.0713 l 5
 10 -182.929 l 5
 152.929 -40 l 5
 167.071 -40 l 5
 17.0713 -190 l 5
 102.929 -190 l 5
 252.929 -40 l 5
 267.069 -40 l 5
 117.071 -190 l 5
 202.929 -190 l 5
 352.929 -40 l 5
 367.068 -40 l 5
 217.071 -190 l 5
 302.929 -190 l 5
 452.929 -40 l 5
 467.068 -40 l 5
 317.071 -190 l 5
 402.929 -190 l 5
 552.929 -40 l 5
 567.067 -40 l 5
 417.071 -190 l 5
 502.929 -190 l 5
 652.929 -40 l 5
 667.067 -40 l 5
 517.071 -190 l 5
 602.929 -190 l 5
 752.929 -40 l 5
 767.065 -40 l 5
 617.071 -190 l 5
 702.929 -190 l 5
 852.929 -40 l 5
 867.063 -40 l 5
 717.071 -190 l 5
 802.929 -190 l 5
 990.805 -2.1235 l 5
 990.704 83.6473 l 5
 907.16 0.0991306 l 5
 900.238 7.30958 l 5
 990.704 97.7756 l 5
 990.603 183.546 l 5
 857.205 50.1427 l 5
 849.612 56.6838 l 5
 990.603 197.675 l 5
 990.502 283.445 l 5
 799.917 92.8548 l 5
 791.163 98.2348 l 5
 796.152 103.224 l 5
 801.706 100.372 l 5
 799.216 106.287 l 5
 990.502 297.574 l 5
 990.402 383.345 l 5
 773.774 166.711 l 5
 769.586 176.657 l 5
 990.402 397.473 l 5
 990.301 483.244 l 5
 744.744 237.682 l 5
 740.928 247.999 l 5
 990.301 497.372 l 5
 990.2 583.143 l 5
 720.309 313.247 l 5
 717.465 324.536 l 5
 990.2 597.271 l 5
 990.099 683.042 l 5
 706.195 399.133 l 5
 706.111 400.986 706.046 402.737 705.994 404.391 c 6
 705.994 413.065 l 5
 990.099 697.17 l 5
990.906 -102.023 m 5
 990.805 -16.2518 l 5
 817.071 -190 l 5
 902.929 -190 l 5
 990.906 -102.023 l 5
990.906 -116.151 m 5
 917.071 -190 l 5
 990.995 -190 l 5
 990.906 -116.151 l 5
10 602.929 m 5
 10 517.071 l 5
 282.929 790 l 5
 197.071 790 l 5
 10 602.929 l 5
10 702.929 m 5
 10 617.071 l 5
 182.929 790 l 5
 97.0713 790 l 5
 10 702.929 l 5
10 717.071 m 5
 82.9287 790 l 5
 10 790 l 5
 10 717.071 l 5
88.3291 -4.59959 m 5
 145.085 52.1565 l 6
 135.964 44.1878 127.255 35.9066 118.986 27.335 c 6
 88.3291 -4.59959 l 5
200.681 93.6099 m 5
 180.809 80.9906 162.218 67.1246 145.085 52.1565 c 5
 233.479 140.551 l 5
 227.051 119.98 l 5
 200.681 93.6099 l 5
468.253 175.324 m 5
 491.899 198.97 l 5
 493.597 198.99 495.297 199 497 199 c 4
 499.989 199 502.981 198.971 505.977 198.912 c 5
 482.903 175.838 l 5
 478 175.725 473.116 175.553 468.253 175.324 c 5
369.317 162.246 m 5
 363.072 160.866 356.879 159.388 350.742 157.813 c 5
 373.66 180.731 l 5
 380.151 182.684 386.663 184.485 393.202 186.131 c 5
 369.317 162.246 l 5
565.186 172.257 m 5
 583.775 190.846 l 5
 587.703 190.105 591.624 189.314 595.537 188.473 c 5
 577.795 170.731 l 5
 573.607 171.282 569.404 171.79 565.186 172.257 c 5
649.704 156.775 m 5
 661.895 168.966 l 5
 672.054 164.99 l 5
 660.837 153.773 l 5
 649.704 156.775 l 5
EndSplineSet
Fore
SplineSet
1001 -200 m 1x9fff80
 0 -200 l 1
 0 800 l 1
 1000 800 l 1
 1001 -200 l 1x9fff80
54 -39 m 0
 67 -40 l 1
 10 -97 l 1
 10 -183 l 1
 153 -40 l 1
 167 -40 l 1
 17 -190 l 1
 103 -190 l 1
 253 -40 l 1
 267 -40 l 1
 117 -190 l 1
 203 -190 l 1
 353 -40 l 1
 367 -40 l 1
 217 -190 l 1
 303 -190 l 1
 453 -40 l 1
 467 -40 l 1
 317 -190 l 1
 403 -190 l 1
 553 -40 l 1
 567 -40 l 1
 417 -190 l 1
 503 -190 l 1
 653 -40 l 1
 667 -40 l 1
 517 -190 l 1
 603 -190 l 1
 753 -40 l 1
 767 -40 l 1
 617 -190 l 1
 703 -190 l 1
 853 -40 l 1
 867 -40 l 1
 717 -190 l 1
 803 -190 l 1
 991 -2 l 1
 991 84 l 1
 907 0 l 1xbfff80
 900 7 l 1
 991 98 l 1
 991 184 l 1
 857 50 l 1
 850 57 l 1
 991 198 l 1
 991 283 l 1
 800 93 l 1
 791 98 l 1
 796 103 l 1
 802 100 l 1
 799 106 l 1
 991 298 l 1
 990 383 l 1
 774 167 l 1
 770 177 l 1
 990 397 l 1
 990 483 l 1
 745 238 l 1
 741 248 l 1
 990 497 l 1
 990 583 l 1
 720 313 l 1
 717 325 l 1
 990 597 l 1
 990 683 l 1
 706 399 l 1
 706 401 706 402 706 404 c 2
 706 413 l 1
 990 697 l 1
 990 783 l 1
 771 564 l 1
 774 572 776 578 778 585 c 1
 983 790 l 1
 897 790 l 1
 781 674 l 1
 780 677 778 681 776 684 c 1
 883 790 l 1
 797 790 l 1
 726 719 l 1
 721 720 716 720 713 720 c 1
 783 790 l 1
 697 790 l 1
 599 692 l 1
 593 701 l 1
 683 790 l 1
 597 790 l 1
 553 746 l 1
 550 748 547 749 544 751 c 1
 583 790 l 1
 497 790 l 1
 466 759 l 1
 419 743 401 693 380 677 c 0
 376 674 375 673 370 673 c 1
 368 671 366 670 364 671 c 1
 483 790 l 1
 397 790 l 1
 317 710 l 1
 314 712 310 713 307 714 c 1
 383 790 l 1
 297 790 l 1
 10 503 l 1
 10 417 l 1
 208 615 l 1
 209 611 209 607 210 603 c 1
 10 403 l 1
 10 317 l 1
 232 539 l 1
 236 529 l 1
 10 303 l 1
 10 217 l 1
 270 478 l 1
 277 470 l 1
 10 203 l 1
 10 117 l 1
 292 399 l 1
 292 394 291 389 291 384 c 1
 10 103 l 1
 10 17 l 1
 275 282 l 1
 270 263 l 1
 10 3 l 1
 10 -83 l 1
 54 -39 l 0
991 -102 m 1
 991 -16 l 1
 817 -190 l 1
 903 -190 l 1
 991 -102 l 1
991 -116 m 1
 917 -190 l 1
 991 -190 l 1
 991 -116 l 1
10 603 m 1
 10 517 l 1
 283 790 l 1
 197 790 l 1
 10 603 l 1
10 703 m 1
 10 617 l 1
 183 790 l 1
 97 790 l 1
 10 703 l 1
10 717 m 1
 83 790 l 1
 10 790 l 1
 10 717 l 1
150 57 m 1
 233 141 l 1
 227 120 l 1
 201 94 l 1
 183 82 165 70 150 57 c 1
468 175 m 1
 492 199 l 1
 494 199 495 199 497 199 c 0
 500 199 503 199 506 199 c 1
 483 176 l 1
 478 176 473 175 468 175 c 1
369 162 m 1
 363 161 357 160 351 158 c 1
 374 181 l 1
 380 183 386 184 393 186 c 1
 369 162 l 1
565 172 m 1
 584 191 l 1
 588 190 592 189 596 188 c 1
 578 171 l 1
 574 172 569 172 565 172 c 1
650 157 m 1
 662 169 l 1
 672 165 l 1
 661 154 l 1
 650 157 l 1
624 648 m 0
 651 648 667 695 713 695 c 0
 743 695 763 669 763 642 c 0
 763 629 758 552 678 466 c 2
 672 459 l 1
 663 462 l 2
 616 478 558 487 497 487 c 0
 436 487 378 478 331 462 c 2
 323 459 l 1
 316 465 l 2
 236 541 231 624 231 642 c 0
 231 669 251 695 281 695 c 0
 327 695 343 648 370 648 c 0
 419 648 428 739 497 739 c 0
 566 739 575 648 624 648 c 0
497 709 m 0
 448 709 439 618 370 618 c 0
 327 618 312 665 281 665 c 0
 269 665 261 651 261 642 c 0
 261 629 265 559 331 493 c 1
 380 508 436 517 497 517 c 0
 558 517 614 508 663 493 c 1
 731 570 733 635 733 642 c 0
 733 651 725 665 713 665 c 0
 682 665 667 618 624 618 c 0
 555 618 546 709 497 709 c 0
652 390 m 1
 607 397 554 401 497 401 c 0
 442 401 391 397 347 391 c 1
 346 351 337 298 315 219 c 1
 374 242 434 254 497 254 c 0
 563 254 631 241 694 215 c 1
 662 300 654 356 652 390 c 1
736 192 m 2
 752 154 l 1
 715 173 l 2
 647 207 571 224 497 224 c 0
 427 224 361 208 297 178 c 2
 267 164 l 1
 277 196 l 2
 309 299 317 362 317 404 c 2
 317 417 l 1
 330 419 l 2
 378 427 435 431 497 431 c 0
 561 431 620 426 669 418 c 2
 681 416 l 1
 681 404 l 2
 682 372 688 307 736 192 c 2
497 151 m 0
 645 151 781 96 863 10 c 2
 887 -15 l 1
 113 -15 l 1xdfff80
 137 10 l 2
 219 95 349 151 497 151 c 0
186 15 m 1
 814 15 l 1
 737 79 622 121 497 121 c 0
 372 121 262 79 186 15 c 1
EndSplineSet
Validated: 1
EndChar

StartChar: uniE053
Encoding: 57427 57427 27
Width: 1000
VWidth: 0
Flags: W
HStem: -200 10<17 103 117 203 217 303 317 403 417 503 517 603 617 703 717 803 817 903 917 991> -15 30<186 814> 0 21G<900 927> 121 30<372.457 622.882> 154 15<655 668> 224 30<376.865 616.455> 347 30<469.159 528.841> 790 10<10 83 97 183 197 283 297 383 397 481 513 583 597 683 697 783 797 883 897 983>
VStem: 0 10<-183 -97 -83 3 17 103 117 203 217 303 317 403 417 503 517 603 617 703 717 790> 208 30<300.985 461.85> 428 30<388.042 520.299> 540 30<387.814 467.234> 756 30<298.294 462.194> 991 10<-190 -116 -102 -16 -2 84 98 184 198 283 298 383 397 483 497 583 597 683 697 783>
LayerCount: 2
Back
SplineSet
1001 -200 m 5
 0 -200 l 5
 0 800 l 5
 490.254 800 l 5
 480.582 790 l 5
 397.071 790 l 5
 10 402.929 l 5
 10 317.071 l 5
 402.404 709.475 l 5
 302.725 607.036 248.859 551.992 219.451 512.38 c 5
 10 302.929 l 5
 10 217.071 l 5
 183.111 390.182 l 5
 183.204 385.433 183.353 380.876 183.557 376.487 c 5
 10 202.929 l 5
 10 117.071 l 5
 194.983 302.054 l 5
 198.103 291.032 l 5
 10 102.929 l 5
 10 17.0713 l 5
 218.881 225.952 l 5
 222.24 215.169 l 5
 10 2.92871 l 5
 10 -82.9287 l 5
 88.3291 -4.59959 l 5
 54.3447 -40 l 5
 67.0713 -40 l 5
 10 -97.0713 l 5
 10 -182.929 l 5
 152.929 -40 l 5
 167.071 -40 l 5
 17.0713 -190 l 5
 102.929 -190 l 5
 252.929 -40 l 5
 267.069 -40 l 5
 117.071 -190 l 5
 202.929 -190 l 5
 352.929 -40 l 5
 367.068 -40 l 5
 217.071 -190 l 5
 302.929 -190 l 5
 452.929 -40 l 5
 467.068 -40 l 5
 317.071 -190 l 5
 402.929 -190 l 5
 552.929 -40 l 5
 567.067 -40 l 5
 417.071 -190 l 5
 502.929 -190 l 5
 652.929 -40 l 5
 667.067 -40 l 5
 517.071 -190 l 5
 602.929 -190 l 5
 752.929 -40 l 5
 767.065 -40 l 5
 617.071 -190 l 5
 702.929 -190 l 5
 852.929 -40 l 5
 867.063 -40 l 5
 717.071 -190 l 5
 802.929 -190 l 5
 990.805 -2.1235 l 5
 990.704 83.6473 l 5
 907.16 0.0991306 l 5
 900.238 7.30958 l 5
 990.704 97.7756 l 5
 990.603 183.546 l 5
 857.205 50.1427 l 5
 849.612 56.6838 l 5
 990.603 197.675 l 5
 990.502 283.445 l 5
 799.917 92.8548 l 5
 791.163 98.2348 l 5
 990.502 297.574 l 5
 990.402 383.345 l 5
 751.517 144.454 l 5
 756.953 164.024 l 5
 990.402 397.473 l 5
 990.301 483.244 l 5
 794.964 287.903 l 5
 796.967 294.558 798.799 301.033 800.451 307.522 c 5
 990.301 497.372 l 5
 990.2 583.143 l 5
 810.992 403.932 l 5
 810.954 408.555 810.779 413.083 810.461 417.532 c 5
 990.2 597.271 l 5
 990.099 683.042 l 5
 792.214 485.154 l 5
 790.706 488.251 789.101 491.353 787.397 494.468 c 5
 990.099 697.17 l 5
 990.012 782.941 l 5
 752.361 545.29 l 5
 745.968 553.039 l 5
 982.929 790 l 5
 897.071 790 l 5
 705.266 598.195 l 5
 698.357 605.428 l 5
 882.929 790 l 5
 797.071 790 l 5
 655.816 648.745 l 5
 648.748 655.82 l 5
 782.929 790 l 5
 697.071 790 l 5
 605.716 698.645 l 5
 598.623 705.694 l 5
 682.929 790 l 5
 597.071 790 l 5
 555.627 748.556 l 5
 548.562 755.633 l 5
 582.929 790 l 5
 513.264 790 l 5
 502.265 800 l 5
 1000 800 l 5
 1001 -200 l 5
990.906 -102.023 m 5
 990.805 -16.2518 l 5
 817.071 -190 l 5
 902.929 -190 l 5
 990.906 -102.023 l 5
990.906 -116.151 m 5
 917.071 -190 l 5
 990.995 -190 l 5
 990.906 -116.151 l 5
10 502.929 m 5
 10 417.071 l 5
 382.929 790 l 5
 297.071 790 l 5
 10 502.929 l 5
10 602.929 m 5
 10 517.071 l 5
 282.929 790 l 5
 197.071 790 l 5
 10 602.929 l 5
10 702.929 m 5
 10 617.071 l 5
 182.929 790 l 5
 97.0713 790 l 5
 10 702.929 l 5
10 717.071 m 5
 82.9287 790 l 5
 10 790 l 5
 10 717.071 l 5
751.517 144.454 m 5
662.102 169.173 m 5
 672.223 165.16 l 5
 660.837 153.773 l 5
 649.704 156.775 l 5
 662.102 169.173 l 5
584.005 191.076 m 5
 587.947 190.344 591.876 189.561 595.792 188.727 c 5
 577.795 170.731 l 5
 573.607 171.282 569.404 171.79 565.186 172.257 c 5
 584.005 191.076 l 5
505.983 198.918 m 5
 482.903 175.838 l 5
 478 175.725 473.116 175.553 468.253 175.324 c 5
 491.903 198.974 l 5
 493.602 198.991 495.301 199 497 199 c 4
 499.997 199 502.991 198.973 505.983 198.918 c 5
395.178 188.107 m 5
 369.317 162.246 l 5
 363.072 160.866 356.879 159.388 350.742 157.813 c 5
 376.512 183.583 l 5
 382.711 185.226 388.934 186.733 395.178 188.107 c 5
244.449 137.378 m 5
 200.681 93.6099 l 5
 180.809 80.9906 162.218 67.1246 145.085 52.1565 c 5
 241.374 148.446 l 5
 244.449 137.378 l 5
490.254 800 m 5
 502.265 800 l 5
 495.871 805.812 l 5
 490.254 800 l 5
480.582 790 m 5
 402.404 709.475 l 5
 482.929 790 l 5
 480.582 790 l 5
88.3291 -4.59959 m 5
 145.085 52.1565 l 6
 135.964 44.1878 127.255 35.9066 118.986 27.335 c 6
 88.3291 -4.59959 l 5
EndSplineSet
Fore
SplineSet
53 -40 m 1xbffc
 67 -40 l 1
 10 -97 l 1
 10 -183 l 1
 153 -40 l 1
 167 -40 l 1
 17 -190 l 1
 103 -190 l 1
 253 -40 l 1
 267 -40 l 1
 117 -190 l 1
 203 -190 l 1
 353 -40 l 1
 367 -40 l 1
 217 -190 l 1
 303 -190 l 1
 453 -40 l 1
 467 -40 l 1
 317 -190 l 1
 403 -190 l 1
 553 -40 l 1
 567 -40 l 1
 417 -190 l 1
 503 -190 l 1
 653 -40 l 1
 667 -40 l 1
 517 -190 l 1
 603 -190 l 1
 753 -40 l 1
 767 -40 l 1
 617 -190 l 1
 703 -190 l 1
 853 -40 l 1
 867 -40 l 1
 717 -190 l 1
 803 -190 l 1
 991 -2 l 1
 991 84 l 1
 907 0 l 1
 900 7 l 1
 991 98 l 1
 991 184 l 1
 857 50 l 1
 850 57 l 1
 991 198 l 1
 991 283 l 1
 800 93 l 1
 791 98 l 1
 991 298 l 1
 990 383 l 1
 752 144 l 1
 757 164 l 1
 990 397 l 1
 990 483 l 1
 795 288 l 1
 797 295 798 302 800 308 c 1
 990 497 l 1
 990 583 l 1
 811 404 l 1
 811 409 810 414 810 418 c 1
 990 597 l 1
 990 683 l 1
 792 485 l 1
 790 488 789 491 787 494 c 1
 990 697 l 1
 990 783 l 1
 752 545 l 1
 746 553 l 1
 983 790 l 1
 897 790 l 1
 705 598 l 1
 698 605 l 1
 883 790 l 1
 797 790 l 1
 656 649 l 1
 649 656 l 1
 783 790 l 1
 697 790 l 1
 606 699 l 1
 599 706 l 1
 683 790 l 1
 597 790 l 1
 556 749 l 1
 549 756 l 1
 583 790 l 1
 513 790 l 1
 502 800 l 1
 1000 800 l 1
 1001 -200 l 1
 0 -200 l 1
 0 800 l 1
 490 800 l 1
 481 790 l 1
 397 790 l 1
 10 403 l 1
 10 317 l 1
 402 709 l 1
 302 607 248 552 219 512 c 1
 10 303 l 1
 10 217 l 1
 183 390 l 1
 183 385 184 380 184 376 c 1
 10 203 l 1
 10 117 l 1
 195 302 l 1
 198 291 l 1
 10 103 l 1
 10 17 l 1
 219 226 l 1
 222 215 l 1
 10 3 l 1
 10 -83 l 1
 53 -40 l 1xbffc
991 -102 m 1
 991 -16 l 1
 817 -190 l 1
 903 -190 l 1
 991 -102 l 1
991 -116 m 1
 917 -190 l 1
 991 -190 l 1
 991 -116 l 1
10 503 m 1
 10 417 l 1
 383 790 l 1
 297 790 l 1
 10 503 l 1
10 603 m 1
 10 517 l 1
 283 790 l 1
 197 790 l 1
 10 603 l 1
10 703 m 1
 10 617 l 1
 183 790 l 1
 97 790 l 1
 10 703 l 1
10 717 m 1
 83 790 l 1
 10 790 l 1
 10 717 l 1
662 169 m 1
 672 165 l 1
 661 154 l 1
 650 157 l 1
 662 169 l 1
584 191 m 1
 588 190 592 190 596 189 c 1
 578 171 l 1
 574 172 569 172 565 172 c 1
 584 191 l 1
506 199 m 1
 483 176 l 1
 478 176 473 175 468 175 c 1
 492 199 l 1
 494 199 495 199 497 199 c 0
 500 199 503 199 506 199 c 1
395 188 m 1
 369 162 l 1
 363 161 357 160 351 158 c 1
 377 184 l 1
 383 186 389 187 395 188 c 1
148 55 m 1
 241 148 l 1
 244 137 l 1
 201 94 l 1
 182 82 164 69 148 55 c 1
186 15 m 1xdffc
 814 15 l 1
 737 79 622 121 497 121 c 0
 372 121 262 79 186 15 c 1xdffc
497 151 m 0
 645 151 781 96 863 10 c 2
 887 -15 l 1
 113 -15 l 1
 137 10 l 2
 219 95 349 151 497 151 c 0
508 761 m 2
 722 545 786 498 786 402 c 0
 786 313 768 296 736 182 c 2
 731 164 l 1
 715 173 l 2
 648 207 573 224 497 224 c 0
 423 224 348 208 279 173 c 2
 263 164 l 1
 258 182 l 2
 226 296 208 313 208 402 c 0
 208 509 325 608 352 608 c 0
 385 608 464 521 464 475 c 0
 464 460 458 441 458 422 c 0
 458 396 477 377 499 377 c 0
 521 377 540 396 540 422 c 0
 540 448 537 452 521 473 c 2
 383 653 l 1
 497 771 l 1
 508 761 l 2
282 207 m 1
 351 238 424 254 497 254 c 0
 570 254 644 238 713 207 c 1
 743 309 756 323 756 402 c 0
 756 459 717 507 687 537 c 0
 676 549 593 632 497 729 c 1
 423 651 l 1
 545 491 l 2
 564 467 570 457 570 422 c 0
 570 381 539 347 499 347 c 0
 459 347 428 381 428 422 c 0
 428 443 434 464 434 475 c 0
 434 505 374 576 352 579 c 1
 352 579 238 500 238 402 c 0
 238 323 252 309 282 207 c 1
EndSplineSet
Validated: 1
EndChar

StartChar: uniE054
Encoding: 57428 57428 28
Width: 1000
VWidth: 0
Flags: W
HStem: -200 10<17 103 117 203 217 303 317 403 417 503 517 603 617 703 717 803 817 903 917 991> -15 30<202 830> 121 30<387.594 638.019> 224 30<392.063 631.461> 329 30<148.884 185.889> 369 30<210.335 328.454> 421 30<366.133 394.76> 508 64<269.534 326.466> 790 10<10 83 97 183 197 283 297 318 322 370 373 383 397 483 497 583 597 683 697 783 797 883 897 983>
VStem: 0 10<-183 -97 -83 3 17 103 117 203 217 303 317 403 417 503 517 603 617 703 717 790> 268 60<509.19 570.81> 338 30<662.01 729.688> 396 30<367.875 420.506> 714 30<211.633 495.245> 991 10<-190 -116 -102 -16 -2 84 98 184 198 283 298 383 397 483 497 583 597 683 697 783>
LayerCount: 2
Back
SplineSet
1001 -200 m 5
 0 -200 l 5
 0 800 l 5
 1000 800 l 5
 1001 -200 l 5
990.099 697.17 m 5
 990.012 782.941 l 5
 740.568 533.496 l 5
 738.799 536.387 736.95 539.251 735.02 542.091 c 5
 982.929 790 l 5
 897.071 790 l 5
 695.005 587.934 l 5
 687.606 594.677 l 5
 882.929 790 l 5
 797.071 790 l 5
 639.264 632.193 l 5
 630.647 637.718 l 5
 782.929 790 l 5
 697.071 790 l 5
 574.013 666.942 l 5
 564.214 671.285 l 5
 682.929 790 l 5
 597.071 790 l 5
 505.908 698.837 l 5
 496.768 703.839 l 5
 582.929 790 l 5
 497.071 790 l 5
 444.483 737.412 l 5
 436.325 743.396 l 5
 482.929 790 l 5
 397.071 790 l 5
 387.087 780.016 l 5
 378.877 785.948 l 5
 382.929 790 l 5
 373.269 790 l 5
 369.798 792.508 l 5
 357.671 790 l 5
 340.793 790 l 5
 321.945 795.23 l 5
 318.346 790 l 5
 297.071 790 l 5
 10 502.929 l 5
 10 417.071 l 5
 175.767 582.838 l 5
 169.455 572.348 163.925 561.937 158.383 551.312 c 5
 10 402.929 l 5
 10 317.071 l 5
 74.2256 381.297 l 5
 77.6143 376.849 l 5
 80.2994 373.228 l 5
 10 302.929 l 5
 10 217.071 l 5
 118.004 325.075 l 5
 120.471 322.864 123.069 320.746 125.819 318.748 c 5
 10 202.929 l 5
 10 117.071 l 5
 234.551 341.622 l 6
 235.913 342.216 237.359 342.697 238.847 343.043 c 4
 241.295 343.612 246.043 344 246.043 344 c 5
 247.5 344 l 6
 248.483 343.992 249.631 343.936 250.913 343.842 c 6
 10 102.929 l 5
 10 17.0713 l 5
 303.185 310.256 l 5
 296.368 298.673 290.121 288.078 284.1 277.029 c 5
 10 2.92871 l 5
 10 -82.9287 l 5
 224.91 131.981 l 5
 216.553 109.481 l 5
 141.725 34.6535 l 5
 134.589 27.4801 l 5
 10 -97.0713 l 5
 10 -182.929 l 5
 152.929 -40 l 5
 167.071 -40 l 5
 17.0713 -190 l 5
 102.929 -190 l 5
 252.929 -40 l 5
 267.069 -40 l 5
 117.071 -190 l 5
 202.929 -190 l 5
 352.929 -40 l 5
 367.068 -40 l 5
 217.071 -190 l 5
 302.929 -190 l 5
 452.935 -40 l 5
 467.068 -40 l 5
 317.071 -190 l 5
 402.929 -190 l 5
 552.929 -40 l 5
 567.067 -40 l 5
 417.071 -190 l 5
 502.929 -190 l 5
 652.929 -40 l 5
 667.067 -40 l 5
 517.071 -190 l 5
 602.929 -190 l 5
 752.929 -40 l 5
 767.065 -40 l 5
 617.071 -190 l 5
 702.929 -190 l 5
 852.929 -40 l 5
 867.063 -40 l 5
 717.071 -190 l 5
 802.929 -190 l 5
 952.929 -40 l 5
 961.155 -40 l 5
 957.126 -35.8027 l 5
 990.805 -2.1235 l 5
 990.704 83.6473 l 5
 915.068 8.00751 l 5
 908.146 15.2178 l 5
 990.704 97.7756 l 5
 990.603 183.546 l 5
 864.369 57.3073 l 5
 856.591 63.6629 l 5
 990.603 197.675 l 5
 990.502 283.445 l 5
 805.809 98.7462 l 5
 796.879 103.95 l 5
 990.502 297.574 l 5
 990.402 383.345 l 5
 778.116 171.053 l 5
 777.572 184.643 l 5
 990.402 397.473 l 5
 990.301 483.244 l 5
 771.619 264.558 l 5
 771.108 269.14 770.65 273.389 770.292 277.343 c 5
 990.301 497.343 l 5
 990.2 583.143 l 5
 771.331 364.27 l 5
 771.902 378.973 l 5
 990.2 597.271 l 5
 990.099 683.042 l 5
 767.805 460.745 l 5
 767.086 464.72 766.281 468.623 765.388 472.459 c 5
 990.099 697.17 l 5
990.906 -102.023 m 5
 990.805 -16.2518 l 5
 817.071 -190 l 5
 902.929 -190 l 5
 990.906 -102.023 l 5
990.906 -116.151 m 5
 917.071 -190 l 5
 990.995 -190 l 5
 990.906 -116.151 l 5
10 602.929 m 5
 10 517.071 l 5
 282.929 790 l 5
 197.071 790 l 5
 10 602.929 l 5
10 702.929 m 5
 10 617.071 l 5
 182.929 790 l 5
 97.0713 790 l 5
 10 702.929 l 5
10 717.071 m 5
 82.9287 790 l 5
 10 790 l 5
 10 717.071 l 5
467.246 174.317 m 5
 491.463 198.534 l 5
 496.316 198.749 501.169 198.89 506.021 198.956 c 5
 482.319 175.254 l 5
 477.272 175.004 472.248 174.691 467.246 174.317 c 5
364.411 157.34 m 5
 357.799 155.619 351.252 153.786 344.773 151.844 c 5
 369.683 176.754 l 5
 376.352 178.9 383.056 180.887 389.789 182.718 c 5
 364.411 157.34 l 5
566.58 173.651 m 5
 586.234 193.305 l 5
 590.273 192.673 594.301 191.989 598.316 191.252 c 5
 579.456 172.391 l 5
 575.179 172.855 570.886 173.275 566.58 173.651 c 5
652.79 159.847 m 5
 666.23 173.285 l 5
 676.578 169.515 l 5
 664.119 157.055 l 5
 652.79 159.847 l 5
729.082 136.153 m 5
 735.252 142.323 l 5
 744.54 137.477 l 5
 739.163 132.1 l 5
 729.082 136.153 l 5
278.587 671.516 m 5
 272.107 669.974 265.52 668.306 258.2 665.271 c 5
 308.54 715.611 l 5
 311.588 704.517 l 5
 278.587 671.516 l 5
EndSplineSet
Fore
SplineSet
1001 -200 m 5
 0 -200 l 5
 0 800 l 5
 1000 800 l 5
 1001 -200 l 5
990 697 m 5
 990 783 l 5
 741 533 l 5
 739 536 737 539 735 542 c 5
 983 790 l 5
 897 790 l 5
 695 588 l 5
 688 595 l 5
 883 790 l 5
 797 790 l 5
 639 632 l 5
 631 638 l 5
 783 790 l 5
 697 790 l 5
 574 667 l 5
 564 671 l 5
 683 790 l 5
 597 790 l 5
 506 699 l 5
 497 704 l 5
 583 790 l 5
 497 790 l 5
 444 737 l 5
 436 743 l 5
 483 790 l 5
 397 790 l 5
 387 780 l 5
 379 786 l 5
 383 790 l 5
 373 790 l 5
 370 793 l 5
 358 790 l 5
 341 790 l 5
 322 795 l 5
 318 790 l 5
 297 790 l 5
 10 503 l 5
 10 417 l 5
 176 583 l 5
 170 573 164 562 158 551 c 5
 10 403 l 5
 10 317 l 5
 74 381 l 5
 78 377 l 5
 80 373 l 5
 10 303 l 5
 10 217 l 5
 118 325 l 5
 120 323 123 321 126 319 c 5
 10 203 l 5
 10 117 l 5
 235 342 l 6
 236 343 238 343 239 343 c 4
 241 344 246 344 246 344 c 5
 248 344 l 6
 249 344 250 344 251 344 c 6
 10 103 l 5
 10 17 l 5
 303 310 l 5
 296 298 290 288 284 277 c 5
 10 3 l 5
 10 -83 l 5
 225 132 l 5
 217 109 l 5
 142 35 l 5
 135 27 l 5
 10 -97 l 5
 10 -183 l 5
 153 -40 l 5
 167 -40 l 5
 17 -190 l 5
 103 -190 l 5
 253 -40 l 5
 267 -40 l 5
 117 -190 l 5
 203 -190 l 5
 353 -40 l 5
 367 -40 l 5
 217 -190 l 5
 303 -190 l 5
 453 -40 l 5
 467 -40 l 5
 317 -190 l 5
 403 -190 l 5
 553 -40 l 5
 567 -40 l 5
 417 -190 l 5
 503 -190 l 5
 653 -40 l 5
 667 -40 l 5
 517 -190 l 5
 603 -190 l 5
 753 -40 l 5
 767 -40 l 5
 617 -190 l 5
 703 -190 l 5
 853 -40 l 5
 867 -40 l 5
 717 -190 l 5
 803 -190 l 5
 953 -40 l 5
 961 -40 l 5
 957 -36 l 5
 991 -2 l 5
 991 84 l 5
 915 8 l 5
 908 15 l 5
 991 98 l 5
 991 184 l 5
 864 57 l 5
 857 64 l 5
 991 198 l 5
 991 283 l 5
 806 99 l 5
 797 104 l 5
 991 298 l 5
 990 383 l 5
 778 171 l 5
 778 185 l 5
 990 397 l 5
 990 483 l 5
 772 265 l 5
 771 270 770 273 770 277 c 5
 990 497 l 5
 990 583 l 5
 771 364 l 5
 772 379 l 5
 990 597 l 5
 990 683 l 5
 768 461 l 5
 767 465 766 468 765 472 c 5
 990 697 l 5
991 -102 m 5
 991 -16 l 5
 817 -190 l 5
 903 -190 l 5
 991 -102 l 5
991 -116 m 5
 917 -190 l 5
 991 -190 l 5
 991 -116 l 5
10 603 m 5
 10 517 l 5
 283 790 l 5
 197 790 l 5
 10 603 l 5
10 703 m 5
 10 617 l 5
 183 790 l 5
 97 790 l 5
 10 703 l 5
10 717 m 5
 83 790 l 5
 10 790 l 5
 10 717 l 5
467 174 m 5
 491 199 l 5
 496 199 501 199 506 199 c 5
 482 175 l 5
 477 175 472 174 467 174 c 5
364 157 m 5
 357 155 351 154 345 152 c 5
 370 177 l 5
 377 179 383 181 390 183 c 5
 364 157 l 5
567 174 m 5
 586 193 l 5
 590 192 594 192 598 191 c 5
 579 172 l 5
 575 172 571 174 567 174 c 5
653 160 m 5
 666 173 l 5
 677 170 l 5
 664 157 l 5
 653 160 l 5
729 136 m 5
 735 142 l 5
 745 137 l 5
 739 132 l 5
 729 136 l 5
279 672 m 5
 273 670 265 668 258 665 c 5
 309 716 l 5
 312 705 l 5
 279 672 l 5
268 540 m 0
 268 558 281 572 298 572 c 0
 315 572 328 558 328 540 c 0
 328 522 315 508 298 508 c 0
 281 508 268 522 268 540 c 0
164 329 m 1
 132 334 114 371 98 392 c 1
 98 397 l 2
 98 441 133 457 150 484 c 0
 181 533 193 576 238 622 c 0
 272 657 314 642 332 672 c 0
 335 676 338 684 338 696 c 0
 338 705 328 731 328 747 c 0
 328 753 330 761 334 768 c 2
 342 781 l 1
 356 772 l 2
 403 739 425 717 472 689 c 0
 539 649 588 642 646 597 c 0
 719 541 748 493 748 403 c 0
 748 381 744 337 744 292 c 0
 744 271 751 237 752 186 c 2
 754 161 l 1
 730 173 l 2
 663 207 588 224 512 224 c 0
 438 224 363 208 294 173 c 2
 260 156 l 1
 274 191 l 2
 295 250 310 271 336 316 c 0
 359 356 396 368 396 398 c 0
 396 414 386 421 378 421 c 0
 376 421 374 420 372 419 c 0
 355 410 347 365 292 365 c 0
 279 365 261 369 248 369 c 0
 247 369 247 369 246 369 c 0
 200 367 207 329 166 329 c 2
 164 329 l 1
314 215 m 1
 378 241 445 254 512 254 c 0
 583 254 655 239 722 210 c 1
 720 245 714 270 714 292 c 0
 714 337 718 381 718 403 c 0
 718 486 691 525 628 573 c 0
 573 615 524 622 456 663 c 0
 416 687 393 706 362 730 c 1
 365 719 368 705 368 696 c 0
 368 688 368 673 358 656 c 0
 332 613 286 629 260 602 c 0
 219 560 211 523 176 468 c 0
 155 435 130 428 128 402 c 1
 150 370 160 359 168 359 c 0
 183 359 189 397 246 399 c 0
 247 399 249 399 250 399 c 0
 266 399 279 395 292 395 c 0
 340 395 329 449 380 451 c 0
 390 451 423 445 426 398 c 1
 426 353 382 334 362 300 c 0
 341 264 328 247 314 215 c 1
512 151 m 0
 660 151 796 96 878 10 c 2
 902 -15 l 1
 128 -15 l 1
 152 10 l 2
 234 95 364 151 512 151 c 0
202 15 m 1
 830 15 l 1
 753 79 637 121 512 121 c 0
 387 121 278 79 202 15 c 1
EndSplineSet
Validated: 1
EndChar

StartChar: uniE055
Encoding: 57429 57429 29
Width: 1000
VWidth: 0
Flags: W
HStem: -200 10<17 103 117 203 217 303 317 403 417 503 517 603 617 703 717 803 817 903 917 991> -15 30<186 814> 0 21G<900 927> 121 30<372.457 622.882> 154 15<655 668> 224 30<378.648 615.765> 340 30<449.444 544.582> 395 30<439.64 554.36> 663 30<439.64 554.36> 790 10<10 83 97 183 197 283 297 383 397 483 497 583 597 683 697 783 797 883 897 983>
VStem: 0 10<-183 -97 -83 3 17 103 117 203 217 303 317 403 417 503 517 603 617 703 717 790> 348 30<486.64 601.36> 616 30<486.64 601.36> 991 10<-190 -116 -102 -16 -2 84 98 184 198 283 298 383 397 483 497 583 597 683 697 783>
LayerCount: 2
Back
SplineSet
1001 -200 m 5
 0 -200 l 5
 0 800 l 5
 1000 800 l 5
 1001 -200 l 5
990.099 697.17 m 5
 990.012 782.941 l 5
 576.863 369.792 l 5
 567.835 374.906 l 5
 589.893 396.964 l 5
 611.682 410.788 630.212 429.318 644.037 451.108 c 5
 982.929 790 l 5
 897.071 790 l 5
 669.978 562.907 l 5
 669.525 567.067 668.925 571.185 668.182 575.254 c 5
 882.929 790 l 5
 797.071 790 l 5
 644.008 636.937 l 5
 642.186 639.807 640.283 642.619 638.301 645.372 c 5
 782.929 790 l 5
 697.071 790 l 5
 594.846 687.775 l 5
 592.031 689.698 589.157 691.54 586.228 693.299 c 5
 682.929 790 l 5
 597.071 790 l 5
 523.112 716.041 l 5
 518.926 716.675 514.692 717.159 510.416 717.487 c 5
 582.929 790 l 5
 497.071 790 l 5
 10 302.929 l 5
 10 217.071 l 5
 323.513 530.584 l 5
 323.842 526.308 324.325 522.074 324.959 517.888 c 5
 10 202.929 l 5
 10 117.071 l 5
 347.701 454.772 l 5
 349.46 451.843 351.302 448.969 353.225 446.154 c 5
 10 102.929 l 5
 10 17.0713 l 5
 395.627 402.699 l 5
 398.38 400.717 401.193 398.813 404.063 396.992 c 5
 10 2.92871 l 5
 10 -82.9287 l 5
 88.3291 -4.59959 l 5
 54.3447 -40 l 5
 67.0713 -40 l 5
 10 -97.0713 l 5
 10 -182.929 l 5
 152.929 -40 l 5
 167.071 -40 l 5
 17.0713 -190 l 5
 102.929 -190 l 5
 252.929 -40 l 5
 267.069 -40 l 5
 117.071 -190 l 5
 202.929 -190 l 5
 352.929 -40 l 5
 367.068 -40 l 5
 217.071 -190 l 5
 302.929 -190 l 5
 452.929 -40 l 5
 467.068 -40 l 5
 317.071 -190 l 5
 402.929 -190 l 5
 552.929 -40 l 5
 567.067 -40 l 5
 417.071 -190 l 5
 502.929 -190 l 5
 652.929 -40 l 5
 667.067 -40 l 5
 517.071 -190 l 5
 602.929 -190 l 5
 752.929 -40 l 5
 767.065 -40 l 5
 617.071 -190 l 5
 702.929 -190 l 5
 852.929 -40 l 5
 867.063 -40 l 5
 717.071 -190 l 5
 802.929 -190 l 5
 990.805 -2.1235 l 5
 990.704 83.6473 l 5
 907.16 0.0991306 l 5
 900.238 7.30958 l 5
 990.704 97.7756 l 5
 990.603 183.546 l 5
 857.205 50.1427 l 5
 849.612 56.6838 l 5
 990.603 197.675 l 5
 990.502 283.445 l 5
 799.917 92.8548 l 5
 791.163 98.2348 l 5
 990.502 297.574 l 5
 990.402 383.345 l 5
 734.526 127.463 l 5
 724.628 131.699 l 5
 990.402 397.473 l 5
 990.301 483.244 l 5
 736.232 229.17 l 5
 729.187 236.258 l 5
 990.301 497.372 l 5
 990.2 583.143 l 5
 686.207 279.145 l 5
 679.05 286.121 l 5
 990.2 597.271 l 5
 990.099 683.042 l 5
 634.362 327.299 l 5
 626.708 333.779 l 5
 990.099 697.17 l 5
990.906 -102.023 m 5
 990.805 -16.2518 l 5
 817.071 -190 l 5
 902.929 -190 l 5
 990.906 -102.023 l 5
990.906 -116.151 m 5
 917.071 -190 l 5
 990.995 -190 l 5
 990.906 -116.151 l 5
10 402.929 m 5
 10 317.071 l 5
 482.929 790 l 5
 397.071 790 l 5
 10 402.929 l 5
10 502.929 m 5
 10 417.071 l 5
 382.929 790 l 5
 297.071 790 l 5
 10 502.929 l 5
10 602.929 m 5
 10 517.071 l 5
 282.929 790 l 5
 197.071 790 l 5
 10 602.929 l 5
10 702.929 m 5
 10 617.071 l 5
 182.929 790 l 5
 97.0713 790 l 5
 10 702.929 l 5
10 717.071 m 5
 82.9287 790 l 5
 10 790 l 5
 10 717.071 l 5
88.3291 -4.59959 m 5
 145.085 52.1565 l 6
 135.964 44.1878 127.255 35.9066 118.986 27.335 c 6
 88.3291 -4.59959 l 5
200.681 93.6099 m 5
 180.809 80.9906 162.218 67.1246 145.085 52.1565 c 5
 247.477 154.548 l 5
 250.581 152.153 253.589 150.479 256.375 149.304 c 5
 200.681 93.6099 l 5
468.253 175.324 m 5
 491.9 198.971 l 5
 493.601 198.99 495.301 199 497 199 c 4
 499.987 199 502.979 198.97 505.974 198.91 c 5
 482.903 175.838 l 5
 478 175.725 473.116 175.553 468.253 175.324 c 5
369.317 162.246 m 5
 363.072 160.866 356.879 159.388 350.742 157.813 c 5
 375.761 182.832 l 5
 381.99 184.502 388.25 186.045 394.531 187.459 c 5
 369.317 162.246 l 5
565.186 172.257 m 5
 583.668 190.739 l 5
 587.591 189.993 591.508 189.198 595.417 188.353 c 5
 577.795 170.731 l 5
 573.607 171.282 569.404 171.79 565.186 172.257 c 5
649.704 156.775 m 5
 661.798 168.869 l 5
 671.977 164.913 l 5
 660.837 153.773 l 5
 649.704 156.775 l 5
EndSplineSet
Fore
SplineSet
1001 -200 m 1x9ffc
 0 -200 l 1
 0 800 l 1
 1000 800 l 1
 1001 -200 l 1x9ffc
53 -40 m 1
 67 -40 l 1
 10 -97 l 1
 10 -183 l 1
 153 -40 l 1
 167 -40 l 1
 17 -190 l 1
 103 -190 l 1
 253 -40 l 1
 267 -40 l 1
 117 -190 l 1
 203 -190 l 1
 353 -40 l 1
 367 -40 l 1
 217 -190 l 1
 303 -190 l 1
 453 -40 l 1
 467 -40 l 1
 317 -190 l 1
 403 -190 l 1
 553 -40 l 1
 567 -40 l 1
 417 -190 l 1
 503 -190 l 1
 653 -40 l 1
 667 -40 l 1
 517 -190 l 1
 603 -190 l 1
 753 -40 l 1
 767 -40 l 1
 617 -190 l 1
 703 -190 l 1
 853 -40 l 1
 867 -40 l 1
 717 -190 l 1
 803 -190 l 1
 991 -2 l 1
 991 84 l 1
 907 0 l 1xbffc
 900 7 l 1
 991 98 l 1
 991 184 l 1
 857 50 l 1
 850 57 l 1
 991 198 l 1
 991 283 l 1
 800 93 l 1
 791 98 l 1
 991 298 l 1
 990 383 l 1
 735 127 l 1
 725 132 l 1
 990 397 l 1
 990 483 l 1
 736 229 l 1
 729 236 l 1
 990 497 l 1
 990 583 l 1
 686 279 l 1
 679 286 l 1
 990 597 l 1
 990 683 l 1
 634 327 l 1
 627 334 l 1
 990 697 l 1
 990 783 l 1
 577 370 l 1
 568 375 l 1
 590 397 l 1
 612 411 630 429 644 451 c 1
 983 790 l 1
 897 790 l 1
 670 563 l 1
 670 567 669 571 668 575 c 1
 883 790 l 1
 797 790 l 1
 644 637 l 1
 642 640 640 642 638 645 c 1
 783 790 l 1
 697 790 l 1
 595 688 l 1
 592 690 589 691 586 693 c 1
 683 790 l 1
 597 790 l 1
 523 716 l 1
 519 717 514 717 510 717 c 1
 583 790 l 1
 497 790 l 1
 10 303 l 1
 10 217 l 1
 324 531 l 1
 324 527 324 522 325 518 c 1
 10 203 l 1
 10 117 l 1
 348 455 l 1
 350 452 351 449 353 446 c 1
 10 103 l 1
 10 17 l 1
 396 403 l 1
 399 401 401 399 404 397 c 1
 10 3 l 1
 10 -83 l 1
 53 -40 l 1
991 -102 m 1
 991 -16 l 1
 817 -190 l 1
 903 -190 l 1
 991 -102 l 1
991 -116 m 1
 917 -190 l 1
 991 -190 l 1
 991 -116 l 1
10 403 m 1
 10 317 l 1
 483 790 l 1
 397 790 l 1
 10 403 l 1
10 503 m 1
 10 417 l 1
 383 790 l 1
 297 790 l 1
 10 503 l 1
10 603 m 1
 10 517 l 1
 283 790 l 1
 197 790 l 1
 10 603 l 1
10 703 m 1
 10 617 l 1
 183 790 l 1
 97 790 l 1
 10 703 l 1
10 717 m 1
 83 790 l 1
 10 790 l 1
 10 717 l 1
201 94 m 1
 181 81 162 67 145 52 c 1
 247 155 l 1
 250 153 253 150 256 149 c 1
 201 94 l 1
468 175 m 1
 492 199 l 1
 494 199 495 199 497 199 c 0
 500 199 503 199 506 199 c 1
 483 176 l 1
 478 176 473 175 468 175 c 1
369 162 m 1
 363 161 357 160 351 158 c 1
 376 183 l 1
 382 185 389 186 395 187 c 1
 369 162 l 1
565 172 m 1
 584 191 l 1
 588 190 591 189 595 188 c 1
 578 171 l 1
 574 172 569 172 565 172 c 1
650 157 m 1
 662 169 l 1
 672 165 l 1
 661 154 l 1
 650 157 l 1
497 693 m 0
 579 693 646 626 646 544 c 0
 646 462 579 395 497 395 c 0
 415 395 348 462 348 544 c 0
 348 626 415 693 497 693 c 0
378 544 m 0
 378 478 431 425 497 425 c 0
 563 425 616 478 616 544 c 0
 616 610 563 663 497 663 c 0
 431 663 378 610 378 544 c 0
336 228 m 1
 389 245 443 254 497 254 c 0
 551 254 606 245 659 228 c 1
 578 307 537 340 497 340 c 0
 457 340 416 307 336 228 c 1
497 370 m 0
 564 370 632 298 733 197 c 0
 738 192 739 183 734 177 c 0
 729 171 722 170 715 173 c 0
 647 207 571 224 497 224 c 0
 423 224 347 207 279 173 c 0
 272 170 265 171 260 177 c 0
 255 183 256 192 261 197 c 0
 362 298 430 370 497 370 c 0
497 151 m 0
 645 151 781 96 863 10 c 2
 887 -15 l 1
 113 -15 l 1xdffc
 137 10 l 2
 219 95 349 151 497 151 c 0
186 15 m 1
 814 15 l 1
 737 79 622 121 497 121 c 0
 372 121 262 79 186 15 c 1
EndSplineSet
Validated: 1
EndChar

StartChar: uniE056
Encoding: 57430 57430 30
Width: 1000
VWidth: 0
Flags: W
HStem: -200 10<17 103 117 203 217 303 317 403 417 503 517 603 617 703 717 803 817 903 917 991> 0 136<420.721 591.921> 239 55<365.685 422.864 596.505 652.007> 532 143<226.5 393.5 620.5 783> 532 42<401 414 596 607> 790 10<10 83 97 183 197 283 297 383 397 583 597 683 697 783 797 883 897 983>
VStem: 0 10<-183 -97 -83 3 17 103 117 203 217 303 317 403 417 503 517 603 617 703 717 790> 126 165<386 583.5> 454 109<331.6 496.597 652.209 743.619> 490 30<574 647.539> 726 148<367.5 576> 991 9<-190 -116 -102 -16 -2 84 98 184 198 283 298 383 397 483 497 583 597 683 697 783>
LayerCount: 2
Fore
SplineSet
373 532 m 0xf7b0
 324 532 291 482 291 416 c 0
 291 356 318 294 373 294 c 0
 410 294 454 325 454 410 c 0
 454 494 414 532 373 532 c 0xf7b0
645 532 m 0
 596 532 563 482 563 416 c 0
 563 356 590 294 645 294 c 0
 682 294 726 325 726 410 c 0
 726 494 686 532 645 532 c 0
731 186 m 1
 661 221 582 239 506 239 c 0
 434 239 366 223 300 192 c 1
 171 337 126 450 126 530 c 0
 126 637 201 675 252 675 c 0xf770
 336 675 401 582 490 574 c 1
 490 642 l 1
 466 649 448 672 448 698 c 0
 448 730 474 756 506 756 c 0
 538 756 564 730 564 698 c 0
 564 671 545 648 520 642 c 1
 520 573 l 1xef70
 607 582 669 674 750 674 c 0
 816 674 874 621 874 531 c 0
 874 462 844 377 731 186 c 1
157 0 m 1
 236 82 362 136 506 136 c 0
 650 136 782 82 861 0 c 1
 157 0 l 1
263 170 m 1
 269 162 l 1
 190 83 l 1
 166 66 143 47 124 27 c 2
 100 2 l 2
 96 -3 93 -8 93 -14 c 1
 10 -97 l 1
 10 -183 l 1
 153 -40 l 1
 167 -40 l 1
 17 -190 l 1
 103 -190 l 1
 253 -40 l 1
 267 -40 l 1
 117 -190 l 1
 203 -190 l 1
 353 -40 l 1
 367 -40 l 1
 217 -190 l 1
 303 -190 l 1
 453 -40 l 1
 467 -40 l 1
 317 -190 l 1
 403 -190 l 1
 553 -40 l 1
 567 -40 l 1
 417 -190 l 1
 503 -190 l 1
 653 -40 l 1
 667 -40 l 1
 517 -190 l 1
 603 -190 l 1
 753 -40 l 1
 767 -40 l 1
 617 -190 l 1
 703 -190 l 1
 853 -40 l 1
 867 -40 l 1
 717 -190 l 1
 803 -190 l 1
 991 -2 l 1
 991 84 l 1
 910 3 l 1
 903 10 l 1
 991 98 l 1
 991 184 l 1
 860 53 l 1
 852 59 l 1
 991 198 l 1
 991 283 l 1
 802 95 l 1
 793 100 l 1
 990 298 l 1
 990 383 l 1
 736 129 l 1
 726 133 l 1
 990 397 l 1
 990 483 l 1
 864 357 l 1
 875 382 l 1
 990 497 l 1
 990 583 l 1
 909 502 l 1
 910 507 910 512 910 517 c 1
 990 597 l 1
 990 683 l 1
 901 594 l 1
 900 598 899 602 898 605 c 1
 990 697 l 1
 990 783 l 1
 866 659 l 1
 864 662 861 664 859 666 c 1
 983 790 l 1
 897 790 l 1
 808 701 l 1
 805 702 801 704 798 705 c 1
 883 790 l 1
 797 790 l 1
 718 711 l 1
 712 710 706 709 700 707 c 1
 783 790 l 1
 697 790 l 1
 600 693 l 1
 600 695 600 696 600 698 c 0
 600 701 600 704 600 707 c 1
 683 790 l 1
 597 790 l 1
 573 766 l 1
 571 768 569 771 566 773 c 1
 583 790 l 1
 397 790 l 1
 310 703 l 1
 307 704 304 706 300 707 c 1
 383 790 l 1
 297 790 l 1
 219 712 l 1
 213 711 206 709 200 707 c 1
 283 790 l 1
 197 790 l 1
 10 603 l 1
 10 517 l 1
 93 600 l 1
 91 594 90 588 88 581 c 1
 10 503 l 1
 10 417 l 1
 85 492 l 1
 86 488 86 484 87 480 c 1
 10 403 l 1
 10 317 l 1
 106 413 l 1
 110 403 l 1
 10 303 l 1
 10 217 l 1
 138 345 l 1
 143 336 l 1
 10 203 l 1
 10 117 l 1
 176 283 l 1
 181 274 l 1
 10 103 l 1
 10 17 l 1
 218 225 l 1
 224 217 l 1
 10 3 l 1
 10 -83 l 1
 263 170 l 1
10 617 m 1
 183 790 l 1
 97 790 l 1
 10 703 l 1
 10 617 l 1
10 717 m 1
 83 790 l 1
 10 790 l 1
 10 717 l 1
991 -16 m 1
 817 -190 l 1
 903 -190 l 1
 991 -102 l 1
 991 -16 l 1
991 -190 m 1
 991 -116 l 1
 917 -190 l 1
 991 -190 l 1
1000 -200 m 1
 0 -200 l 1
 0 800 l 1
 1000 800 l 1
 1000 -200 l 1
376 669 m 1
 367 674 l 1
 406 713 l 1
 405 708 404 703 404 698 c 2
 404 697 l 1
 376 669 l 1
663 170 m 1
 674 167 l 1
 662 155 l 1
 651 158 l 1
 663 170 l 1
585 192 m 1
 589 191 593 190 597 189 c 1
 578 171 l 1
 574 172 570 173 566 173 c 1
 585 192 l 1
506 199 m 1
 483 176 l 1
 478 176 473 175 468 175 c 1
 492 199 l 1
 496 199 498 199 502 199 c 2
 506 199 l 1
391 184 m 1
 368 161 l 1
 362 160 355 158 349 156 c 1
 371 178 l 1
 378 180 384 182 391 184 c 1
EndSplineSet
Validated: 1
EndChar

StartChar: uniE057
Encoding: 57431 57431 31
Width: 1000
VWidth: 0
Flags: W
HStem: -200 10<17 103 117 203 217 303 317 403 417 503 517 603 617 703 717 803 817 903 917 991> 0 136<414.721 585.921> 234 174<467.745 536.631> 462 120<114.764 201.236 798.764 885.236> 592 120<354.764 441.236 558.764 645.236> 790 10<10 83 97 183 197 283 297 383 397 483 497 583 597 683 697 783 797 883 897 983>
VStem: 0 10<-183 -97 -83 3 17 103 117 203 217 303 317 403 417 503 517 603 617 703 717 790> 102 112<474.839 569.161> 342 112<604.839 699.161> 546 112<604.839 699.161> 786 112<474.839 569.161> 991 10<-190 -116 -102 -16 -2 84 98 184 198 283 298 383 397 483 497 583 597 683 697 783>
LayerCount: 2
Fore
SplineSet
1001 -200 m 5
 0 -200 l 5
 0 800 l 5
 1000 800 l 5
 1001 -200 l 5
990 697 m 5
 990 783 l 5
 828 621 l 5
 821 620 815 618 809 616 c 5
 983 790 l 5
 897 790 l 5
 637 530 l 5
 636 543 l 5
 883 790 l 5
 797 790 l 5
 692 685 l 5
 691 688 690 693 688 696 c 5
 783 790 l 5
 697 790 l 5
 647 740 l 5
 644 742 641 744 638 745 c 5
 683 790 l 5
 597 790 l 5
 489 682 l 5
 488 686 487 690 486 693 c 5
 583 790 l 5
 497 790 l 5
 446 739 l 5
 443 741 440 743 437 744 c 5
 483 790 l 5
 397 790 l 5
 212 605 l 5
 209 607 206 608 203 610 c 5
 383 790 l 5
 297 790 l 5
 122 615 l 5
 99 605 81 587 71 564 c 5
 10 503 l 5
 10 417 l 5
 72 479 l 5
 73 476 74 472 76 469 c 5
 10 403 l 5
 10 317 l 5
 122 429 l 5
 125 428 129 426 133 425 c 5
 10 303 l 5
 10 217 l 5
 174 382 l 5
 178 371 l 5
 10 203 l 5
 10 117 l 5
 195 302 l 5
 197 290 l 5
 10 103 l 5
 10 17 l 5
 206 213 l 5
 206 208 207 205 207 200 c 5
 10 3 l 5
 10 -83 l 5
 214 121 l 6
 215 120 216 121 217 120 c 4
 219 119 222 118 224 117 c 5
 193 86 l 5
 148 55 117 22 98 2 c 4
 93 -3 91 -9 91 -16 c 5
 10 -97 l 5
 10 -183 l 5
 153 -40 l 5
 167 -40 l 5
 17 -190 l 5
 103 -190 l 5
 253 -40 l 5
 267 -40 l 5
 117 -190 l 5
 203 -190 l 5
 353 -40 l 5
 367 -40 l 5
 217 -190 l 5
 303 -190 l 5
 453 -40 l 5
 467 -40 l 5
 317 -190 l 5
 403 -190 l 5
 553 -40 l 5
 567 -40 l 5
 417 -190 l 5
 503 -190 l 5
 653 -40 l 5
 667 -40 l 5
 517 -190 l 5
 603 -190 l 5
 753 -40 l 5
 767 -40 l 5
 617 -190 l 5
 703 -190 l 5
 853 -40 l 5
 867 -40 l 5
 717 -190 l 5
 803 -190 l 5
 991 -2 l 5
 991 84 l 5
 909 2 l 6
 908 3 l 4
 907 4 905 6 902 9 c 5
 991 98 l 5
 991 184 l 5
 858 51 l 5
 851 58 l 5
 991 198 l 5
 991 283 l 5
 801 94 l 5
 792 99 l 5
 991 298 l 5
 990 383 l 5
 793 186 l 5
 793 187 l 6
 793 191 793 196 793 200 c 5
 990 397 l 5
 990 483 l 5
 804 297 l 5
 805 303 806 309 807 315 c 5
 990 497 l 5
 990 583 l 5
 938 531 l 5
 938 535 937 539 936 543 c 5
 990 597 l 5
 990 683 l 5
 905 598 l 5
 903 600 900 602 897 604 c 5
 990 697 l 5
991 -102 m 5
 991 -16 l 5
 817 -190 l 5
 903 -190 l 5
 991 -102 l 5
991 -116 m 5
 917 -190 l 5
 991 -190 l 5
 991 -116 l 5
10 603 m 5
 10 517 l 5
 283 790 l 5
 197 790 l 5
 10 603 l 5
10 703 m 5
 10 617 l 5
 183 790 l 5
 97 790 l 5
 10 703 l 5
10 717 m 5
 83 790 l 5
 10 790 l 5
 10 717 l 5
468 175 m 5
 487 194 l 5
 491 194 496 194 500 194 c 6
 501 194 l 5
 483 176 l 5
 478 176 473 175 468 175 c 5
369 162 m 5
 363 161 357 160 351 158 c 5
 367 175 l 5
 374 177 380 178 387 180 c 5
 369 162 l 5
566 173 m 5
 580 188 l 5
 584 187 588 186 592 185 c 5
 578 171 l 5
 574 172 570 173 566 173 c 5
651 158 m 5
 659 166 l 5
 669 162 l 5
 662 155 l 5
 651 158 l 5
253 446 m 5
 245 452 l 5
 355 562 l 5
 358 560 362 559 365 558 c 5
 253 446 l 5
308 401 m 5
 300 407 l 5
 356 463 l 5
 355 457 355 452 354 447 c 5
 308 401 l 5
366 558 m 5
313 606 m 5
 252 544 l 5
 251 548 249 552 248 556 c 5
 309 616 l 5
 310 613 311 609 313 606 c 5
456 549 m 5
 452 559 l 5
 512 619 l 5
 513 616 514 612 516 609 c 5
 456 549 l 5
487 480 m 5
 482 489 l 5
 546 553 l 5
 537 530 l 5
 487 480 l 5
648 441 m 5
 647 445 647 449 646 453 c 5
 753 560 l 5
 750 554 749 548 748 541 c 5
 648 441 l 5
695 402 m 5
 761 468 l 5
 762 466 764 464 765 462 c 5
 741 440 716 417 695 402 c 5
500 408 m 3
 550 408 544 462 594 568 c 1
 605 383 630 340 654 340 c 0
 689 340 757 397 804 444 c 1
 778 364 754 281 754 189 c 0
 754 182 754 174 754 166 c 1
 660 212 603 234 500 234 c 24
 397 234 340 212 246 166 c 1
 246 174 246 182 246 189 c 0
 246 281 222 364 196 444 c 1
 243 397 311 340 346 340 c 0
 370 340 395 384 406 568 c 1
 456 462 458 408 500 408 c 3
151 0 m 1
 230 82 356 136 500 136 c 0
 644 136 776 82 855 0 c 1
 151 0 l 1
898 522 m 0
 898 489 873 462 842 462 c 0
 811 462 786 489 786 522 c 0
 786 555 811 582 842 582 c 0
 873 582 898 555 898 522 c 0
658 652 m 0
 658 619 633 592 602 592 c 0
 571 592 546 619 546 652 c 0
 546 685 571 712 602 712 c 0
 633 712 658 685 658 652 c 0
342 652 m 0
 342 685 367 712 398 712 c 0
 429 712 454 685 454 652 c 0
 454 619 429 592 398 592 c 0
 367 592 342 619 342 652 c 0
102 522 m 0
 102 555 127 582 158 582 c 0
 189 582 214 555 214 522 c 0
 214 489 189 462 158 462 c 0
 127 462 102 489 102 522 c 0
EndSplineSet
Validated: 1
EndChar

StartChar: uniE058
Encoding: 57432 57432 32
Width: 1000
VWidth: 0
Flags: W
HStem: -200 10<17 103 117 203 217 303 317 403 417 503 517 603 617 703 717 803 817 903 917 991> 0 136<411.721 582.921> 154 15<655 668> 239 177<355.713 643.194> 502 131<341.015 413.958 580.042 652.985> 790 10<10 83 97 183 197 283 297 383 397 483 497 583 597 683 697 783 797 883 897 983>
VStem: 0 10<-183 -97 -83 3 17 103 117 203 217 303 317 403 417 503 517 603 617 703 717 790> 991 10<-190 -116 -102 -16 -2 84 98 184 198 283 298 383 397 483 497 583 597 683 697 783>
LayerCount: 2
Fore
SplineSet
1001 -200 m 1
 0 -200 l 1
 0 800 l 1
 1000 800 l 1
 1001 -200 l 1
54 -40 m 1
 67 -40 l 1
 10 -97 l 1
 10 -183 l 1
 153 -40 l 1
 167 -40 l 1
 17 -190 l 1
 103 -190 l 1
 253 -40 l 1
 267 -40 l 1
 117 -190 l 1
 203 -190 l 1
 353 -40 l 1
 367 -40 l 1
 217 -190 l 1
 303 -190 l 1
 453 -40 l 1
 467 -40 l 1
 317 -190 l 1
 403 -190 l 1
 553 -40 l 1
 567 -40 l 1
 417 -190 l 1
 503 -190 l 1
 653 -40 l 1
 667 -40 l 1
 517 -190 l 1
 603 -190 l 1
 753 -40 l 1
 767 -40 l 1
 617 -190 l 1
 703 -190 l 1
 853 -40 l 1
 867 -40 l 1
 717 -190 l 1
 803 -190 l 1
 991 -2 l 1
 991 84 l 1
 907 0 l 1
 900 7 l 1
 991 98 l 1
 991 184 l 1
 857 50 l 1
 850 57 l 1
 991 198 l 1
 991 283 l 1
 800 93 l 1
 791 98 l 1
 796 103 l 1
 802 100 l 1
 799 106 l 1
 991 298 l 1
 990 383 l 1
 774 167 l 1
 770 177 l 1
 990 397 l 1
 990 483 l 1
 745 238 l 1
 741 248 l 1
 990 497 l 1
 990 583 l 1
 720 313 l 1
 717 325 l 1
 990 597 l 1
 990 683 l 1
 706 399 l 1
 706 401 706 402 706 404 c 2
 706 413 l 1
 990 697 l 1
 990 783 l 1
 771 564 l 1
 774 572 776 578 778 585 c 1
 983 790 l 1
 897 790 l 1
 781 674 l 1
 780 677 778 681 776 684 c 1
 883 790 l 1
 797 790 l 1
 726 719 l 1
 721 720 716 720 713 720 c 1
 783 790 l 1
 697 790 l 1
 599 692 l 1
 593 701 l 1
 683 790 l 1
 597 790 l 1
 553 746 l 1
 550 748 547 749 544 751 c 1
 583 790 l 1
 497 790 l 1
 466 759 l 1
 419 743 401 693 380 677 c 0
 376 674 375 673 370 673 c 1
 368 671 366 670 364 671 c 1
 483 790 l 1
 397 790 l 1
 317 710 l 1
 314 712 310 713 307 714 c 1
 383 790 l 1
 297 790 l 1
 10 503 l 1
 10 417 l 1
 208 615 l 1
 209 611 209 607 210 603 c 1
 10 403 l 1
 10 317 l 1
 232 539 l 1
 236 529 l 1
 10 303 l 1
 10 217 l 1
 270 478 l 1
 277 470 l 1
 10 203 l 1
 10 117 l 1
 292 399 l 1
 292 394 291 389 291 384 c 1
 10 103 l 1
 10 17 l 1
 275 282 l 1
 270 263 l 1
 10 3 l 1
 10 -83 l 1
 25 -69 38 -52 54 -40 c 1
991 -102 m 1
 991 -16 l 1
 817 -190 l 1
 903 -190 l 1
 991 -102 l 1
991 -116 m 1
 917 -190 l 1
 991 -190 l 1
 991 -116 l 1
10 603 m 1
 10 517 l 1
 283 790 l 1
 197 790 l 1
 10 603 l 1
10 703 m 1
 10 617 l 1
 183 790 l 1
 97 790 l 1
 10 703 l 1
10 717 m 1
 83 790 l 1
 10 790 l 1
 10 717 l 1
159 64 m 1
 145 52 l 1
 157 65 l 1
 233 141 l 1
 227 120 l 1
 201 94 l 1
 186 85 172 75 159 64 c 1
468 175 m 1
 492 199 l 1
 494 199 495 199 497 199 c 0
 500 199 503 199 506 199 c 1
 483 176 l 1
 478 176 473 175 468 175 c 1
369 162 m 1
 363 161 357 160 351 158 c 1
 374 181 l 1
 380 183 386 184 393 186 c 1
 369 162 l 1
565 172 m 1
 584 191 l 1
 588 190 592 189 596 188 c 1
 578 171 l 1
 574 172 569 172 565 172 c 1
650 157 m 1
 662 169 l 1
 672 165 l 1
 661 154 l 1
 650 157 l 1
497 724 m 24
 557 724 564 633 624 633 c 0
 659 633 674 680 713 680 c 0
 733 680 748 661 748 642 c 0
 748 632 744 559 667 476 c 1
 618 492 560 502 497 502 c 0
 434 502 376 492 327 476 c 1
 251 548 246 626 246 642 c 0
 246 661 261 680 281 680 c 0
 320 680 335 633 370 633 c 0
 430 633 437 724 497 724 c 24
666 403 m 1
 667 370 673 302 722 186 c 1
 652 221 573 239 497 239 c 0
 425 239 357 223 291 192 c 1
 323 296 332 360 332 404 c 1
 379 412 436 416 497 416 c 0
 560 416 618 411 666 403 c 1
148 0 m 1
 227 82 353 136 497 136 c 0
 641 136 773 82 852 0 c 1
 148 0 l 1
EndSplineSet
Validated: 1
EndChar

StartChar: uniE059
Encoding: 57433 57433 33
Width: 1000
VWidth: 0
Flags: W
HStem: -200 10<17 103 117 203 217 303 317 403 417 503 517 603 617 703 717 803 817 903 917 991> 0 136<411.721 582.921> 154 15<655 668> 239 123<457.608 539.987> 790 10<10 83 97 183 197 283 297 383 397 481 513 583 597 683 697 783 797 883 897 983>
VStem: 0 10<-183 -97 -83 3 17 103 117 203 217 303 317 403 417 503 517 603 617 703 717 790> 223 220<376.138 480.759> 555 216<375.489 480.124> 991 10<-190 -116 -102 -16 -2 84 98 184 198 283 298 383 397 483 497 583 597 683 697 783>
LayerCount: 2
Fore
SplineSet
377 685 m 1
 293 599 246 548 219 512 c 1
 10 303 l 1
 10 217 l 1
 183 390 l 1
 183 385 184 380 184 376 c 1
 10 203 l 1
 10 117 l 1
 195 302 l 1
 198 291 l 1
 10 103 l 1
 10 17 l 1
 219 226 l 1
 222 215 l 1
 10 3 l 1
 10 -83 l 1
 88 -5 l 1
 54 -40 l 1
 67 -40 l 1
 10 -97 l 1
 10 -183 l 1
 153 -40 l 1
 167 -40 l 1
 17 -190 l 1
 103 -190 l 1
 253 -40 l 1
 267 -40 l 1
 117 -190 l 1
 203 -190 l 1
 353 -40 l 1
 367 -40 l 1
 217 -190 l 1
 303 -190 l 1
 453 -40 l 1
 467 -40 l 1
 317 -190 l 1
 403 -190 l 1
 553 -40 l 1
 567 -40 l 1
 417 -190 l 1
 503 -190 l 1
 653 -40 l 1
 667 -40 l 1
 517 -190 l 1
 603 -190 l 1
 753 -40 l 1
 767 -40 l 1
 617 -190 l 1
 703 -190 l 1
 853 -40 l 1
 867 -40 l 1
 717 -190 l 1
 803 -190 l 1
 991 -2 l 1
 991 84 l 1
 907 0 l 1
 900 7 l 1
 991 98 l 1
 991 184 l 1
 857 50 l 1
 850 57 l 1
 991 198 l 1
 991 283 l 1
 800 93 l 1
 791 98 l 1
 991 298 l 1
 990 383 l 1
 752 144 l 1
 757 164 l 1
 990 397 l 1
 990 483 l 1
 795 288 l 1
 797 295 798 302 800 308 c 1
 990 497 l 1
 990 583 l 1
 811 404 l 1
 811 409 810 414 810 418 c 1
 990 597 l 1
 990 683 l 1
 792 485 l 1
 790 488 789 491 787 494 c 1
 990 697 l 1
 990 783 l 1
 752 545 l 1
 746 553 l 1
 983 790 l 1
 897 790 l 1
 705 598 l 1
 698 605 l 1
 883 790 l 1
 797 790 l 1
 656 649 l 1
 649 656 l 1
 783 790 l 1
 697 790 l 1
 606 699 l 1
 599 706 l 1
 683 790 l 1
 597 790 l 1
 556 749 l 1
 549 756 l 1
 583 790 l 1
 513 790 l 1
 502 800 l 1
 1000 800 l 1
 1001 -200 l 1
 0 -200 l 1
 0 800 l 1
 490 800 l 1
 481 790 l 1
 397 790 l 1
 10 403 l 1
 10 317 l 1
 377 685 l 1
991 -102 m 1
 991 -16 l 1
 817 -190 l 1
 903 -190 l 1
 991 -102 l 1
991 -116 m 1
 917 -190 l 1
 991 -190 l 1
 991 -116 l 1
10 503 m 1
 10 417 l 1
 383 790 l 1
 297 790 l 1
 10 503 l 1
10 603 m 1
 10 517 l 1
 283 790 l 1
 197 790 l 1
 10 603 l 1
10 703 m 1
 10 617 l 1
 183 790 l 1
 97 790 l 1
 10 703 l 1
10 717 m 1
 83 790 l 1
 10 790 l 1
 10 717 l 1
662 169 m 1
 672 165 l 1
 661 154 l 1
 650 157 l 1
 662 169 l 1
584 191 m 1
 588 190 592 190 596 189 c 1
 578 171 l 1
 574 172 569 172 565 172 c 1
 584 191 l 1
506 199 m 1
 483 176 l 1
 478 176 473 175 468 175 c 1
 492 199 l 1
 494 199 495 199 497 199 c 0
 500 199 503 199 506 199 c 1
395 188 m 1
 369 162 l 1
 363 161 357 160 351 158 c 1
 377 184 l 1
 383 186 389 187 395 188 c 1
244 137 m 1
 201 94 l 1
 181 81 162 67 145 52 c 1
 241 148 l 1
 244 137 l 1
497 750 m 9
 576 670 698 548 699 546 c 0
 727 518 771 465 771 402 c 27
 771 316 755 302 722 186 c 1
 652 221 573 238 497 239 c 0
 421 239 342 221 272 186 c 1
 239 302 223 316 223 402 c 27
 223 465 265 520 295 546 c 0
 295 547 335 594 351 594 c 3
 376 594 449 513 449 475 c 0
 449 459 443 444 443 422 c 0
 443 389 468 362 499 362 c 0
 530 362 555 389 555 422 c 0
 555 455 548 462 533 482 c 26
 403 652 l 17
 497 750 l 9
148 0 m 1
 227 82 353 136 497 136 c 0
 641 136 773 82 852 0 c 1
 148 0 l 1
EndSplineSet
Validated: 1
EndChar

StartChar: uniE05A
Encoding: 57434 57434 34
Width: 1000
VWidth: 0
Flags: W
HStem: -200 10<17 103 117 203 217 303 317 403 417 503 517 603 617 703 717 803 817 903 917 991> 0 136<436.828 608.028> 380 128<268.141 336.114> 790 10<10 83 97 183 197 283 297 318 322 370 373 383 397 483 497 583 597 683 697 783 797 883 897 983>
VStem: 0 10<-183 -97 -83 3 17 103 117 203 217 303 317 403 417 503 517 603 617 703 717 790> 991 10<-190 -116 -102 -16 -2 84 98 184 198 283 298 383 397 483 497 583 597 683 697 783>
LayerCount: 2
Fore
SplineSet
1001 -200 m 1
 0 -200 l 1
 0 800 l 1
 1000 800 l 1
 1001 -200 l 1
990 697 m 1
 990 783 l 1
 741 533 l 1
 739 536 737 539 735 542 c 1
 983 790 l 1
 897 790 l 1
 695 588 l 1
 688 595 l 1
 883 790 l 1
 797 790 l 1
 639 632 l 1
 631 638 l 1
 783 790 l 1
 697 790 l 1
 574 667 l 1
 564 671 l 1
 683 790 l 1
 597 790 l 1
 506 699 l 1
 497 704 l 1
 583 790 l 1
 497 790 l 1
 444 737 l 1
 436 743 l 1
 483 790 l 1
 397 790 l 1
 387 780 l 1
 379 786 l 1
 383 790 l 1
 373 790 l 1
 370 793 l 1
 358 790 l 1
 341 790 l 1
 322 795 l 1
 318 790 l 1
 297 790 l 1
 10 503 l 1
 10 417 l 1
 176 583 l 1
 170 573 164 562 158 551 c 1
 10 403 l 1
 10 317 l 1
 74 381 l 1
 78 377 l 1
 80 373 l 1
 10 303 l 1
 10 217 l 1
 118 325 l 1
 120 323 123 321 126 319 c 1
 10 203 l 1
 10 117 l 1
 235 342 l 2
 236 343 238 343 239 343 c 0
 241 344 246 344 246 344 c 1
 248 344 l 2
 249 344 250 344 251 344 c 2
 10 103 l 1
 10 17 l 1
 303 310 l 1
 296 298 290 288 284 277 c 1
 10 3 l 1
 10 -83 l 1
 225 132 l 1
 217 109 l 1
 142 35 l 1
 135 27 l 1
 10 -97 l 1
 10 -183 l 1
 153 -40 l 1
 167 -40 l 1
 17 -190 l 1
 103 -190 l 1
 253 -40 l 1
 267 -40 l 1
 117 -190 l 1
 203 -190 l 1
 353 -40 l 1
 367 -40 l 1
 217 -190 l 1
 303 -190 l 1
 453 -40 l 1
 467 -40 l 1
 317 -190 l 1
 403 -190 l 1
 553 -40 l 1
 567 -40 l 1
 417 -190 l 1
 503 -190 l 1
 653 -40 l 1
 667 -40 l 1
 517 -190 l 1
 603 -190 l 1
 753 -40 l 1
 767 -40 l 1
 617 -190 l 1
 703 -190 l 1
 853 -40 l 1
 867 -40 l 1
 717 -190 l 1
 803 -190 l 1
 953 -40 l 1
 961 -40 l 1
 957 -36 l 1
 991 -2 l 1
 991 84 l 1
 915 8 l 1
 908 15 l 1
 991 98 l 1
 991 184 l 1
 864 57 l 1
 857 64 l 1
 991 198 l 1
 991 283 l 1
 806 99 l 1
 797 104 l 1
 991 298 l 1
 990 383 l 1
 778 171 l 1
 778 185 l 1
 990 397 l 1
 990 483 l 1
 772 265 l 1
 771 270 770 273 770 277 c 1
 990 497 l 1
 990 583 l 1
 771 364 l 1
 772 379 l 1
 990 597 l 1
 990 683 l 1
 768 461 l 1
 767 465 766 468 765 472 c 1
 990 697 l 1
991 -102 m 1
 991 -16 l 1
 817 -190 l 1
 903 -190 l 1
 991 -102 l 1
991 -116 m 1
 917 -190 l 1
 991 -190 l 1
 991 -116 l 1
10 603 m 1
 10 517 l 1
 283 790 l 1
 197 790 l 1
 10 603 l 1
10 703 m 1
 10 617 l 1
 183 790 l 1
 97 790 l 1
 10 703 l 1
10 717 m 1
 83 790 l 1
 10 790 l 1
 10 717 l 1
467 174 m 1
 491 199 l 1
 496 199 501 199 506 199 c 1
 482 175 l 1
 477 175 472 174 467 174 c 1
364 157 m 1
 357 155 351 154 345 152 c 1
 370 177 l 1
 377 179 383 181 390 183 c 1
 364 157 l 1
567 174 m 1
 586 193 l 1
 590 192 594 192 598 191 c 1
 579 172 l 1
 575 172 571 174 567 174 c 1
653 160 m 1
 666 173 l 1
 677 170 l 1
 664 157 l 1
 653 160 l 1
729 136 m 1
 735 142 l 1
 745 137 l 1
 739 132 l 1
 729 136 l 1
279 672 m 1
 273 670 265 668 258 665 c 1
 309 716 l 1
 312 705 l 1
 279 672 l 1
278 540 m 0
 278 522 291 508 308 508 c 0
 325 508 338 522 338 540 c 0
 338 558 325 572 308 572 c 0
 291 572 278 558 278 540 c 0
302 380 m 0
 287 380 272 384 256 384 c 0
 208 384 206 344 176 344 c 1
 156 348 137 376 122 397 c 1
 122 434 153 445 172 476 c 24
 206 529 214 567 258 612 c 24
 288 643 332 628 354 664 c 16
 361 675 364 685 364 696 c 0
 364 711 354 731 354 747 c 0
 354 752 354 756 356 760 c 9
 402 727 426 705 474 676 c 24
 539 637 591 627 646 585 c 0
 714 533 742 489 742 403 c 0
 742 381 740 337 740 292 c 0
 740 268 747 236 748 186 c 1
 678 221 598 238 522 239 c 0
 446 239 368 221 298 186 c 1
 319 244 331 262 358 308 c 24
 380 345 422 360 422 398 c 0
 422 417 408 436 390 436 c 0
 351 436 359 380 302 380 c 0
174 0 m 1
 253 82 378 136 522 136 c 0
 666 136 799 82 878 0 c 1
 174 0 l 1
EndSplineSet
Validated: 1
EndChar

StartChar: uniE05B
Encoding: 57435 57435 35
Width: 1000
VWidth: 0
Flags: W
HStem: -200 10<17 103 117 203 217 303 317 403 417 503 517 603 617 703 717 803 817 903 917 991> 0 136<411.721 582.921> 154 15<655 668> 239 116<441.053 558.37> 412 268<424.778 569.222> 790 10<10 83 97 183 197 283 297 383 397 483 497 583 597 683 697 783 797 883 897 983>
VStem: 0 10<-183 -97 -83 3 17 103 117 203 217 303 317 403 417 503 517 603 617 703 717 790> 363 268<473.778 618.222> 991 10<-190 -116 -102 -16 -2 84 98 184 198 283 298 383 397 483 497 583 597 683 697 783>
LayerCount: 2
Fore
SplineSet
1001 -200 m 1
 0 -200 l 1
 0 800 l 1
 1000 800 l 1
 1001 -200 l 1
53 -40 m 1
 67 -40 l 1
 10 -97 l 1
 10 -183 l 1
 153 -40 l 1
 167 -40 l 1
 17 -190 l 1
 103 -190 l 1
 253 -40 l 1
 267 -40 l 1
 117 -190 l 1
 203 -190 l 1
 353 -40 l 1
 367 -40 l 1
 217 -190 l 1
 303 -190 l 1
 453 -40 l 1
 467 -40 l 1
 317 -190 l 1
 403 -190 l 1
 553 -40 l 1
 567 -40 l 1
 417 -190 l 1
 503 -190 l 1
 653 -40 l 1
 667 -40 l 1
 517 -190 l 1
 603 -190 l 1
 753 -40 l 1
 767 -40 l 1
 617 -190 l 1
 703 -190 l 1
 853 -40 l 1
 867 -40 l 1
 717 -190 l 1
 803 -190 l 1
 991 -2 l 1
 991 84 l 1
 907 0 l 1
 900 7 l 1
 991 98 l 1
 991 184 l 1
 857 50 l 1
 850 57 l 1
 991 198 l 1
 991 283 l 1
 800 93 l 1
 791 98 l 1
 991 298 l 1
 990 383 l 1
 735 127 l 1
 725 132 l 1
 990 397 l 1
 990 483 l 1
 736 229 l 1
 729 236 l 1
 990 497 l 1
 990 583 l 1
 686 279 l 1
 679 286 l 1
 990 597 l 1
 990 683 l 1
 634 327 l 1
 627 334 l 1
 990 697 l 1
 990 783 l 1
 577 370 l 1
 568 375 l 1
 590 397 l 1
 612 411 630 429 644 451 c 1
 983 790 l 1
 897 790 l 1
 670 563 l 1
 670 567 669 571 668 575 c 1
 883 790 l 1
 797 790 l 1
 644 637 l 1
 642 640 640 642 638 645 c 1
 783 790 l 1
 697 790 l 1
 595 688 l 1
 592 690 589 691 586 693 c 1
 683 790 l 1
 597 790 l 1
 523 716 l 1
 519 717 514 717 510 717 c 1
 583 790 l 1
 497 790 l 1
 10 303 l 1
 10 217 l 1
 324 531 l 1
 324 527 324 522 325 518 c 1
 10 203 l 1
 10 117 l 1
 348 455 l 1
 350 452 351 449 353 446 c 1
 10 103 l 1
 10 17 l 1
 396 403 l 1
 399 401 401 399 404 397 c 1
 10 3 l 1
 10 -83 l 1
 53 -40 l 1
991 -102 m 1
 991 -16 l 1
 817 -190 l 1
 903 -190 l 1
 991 -102 l 1
991 -116 m 1
 917 -190 l 1
 991 -190 l 1
 991 -116 l 1
10 403 m 1
 10 317 l 1
 483 790 l 1
 397 790 l 1
 10 403 l 1
10 503 m 1
 10 417 l 1
 383 790 l 1
 297 790 l 1
 10 503 l 1
10 603 m 1
 10 517 l 1
 283 790 l 1
 197 790 l 1
 10 603 l 1
10 703 m 1
 10 617 l 1
 183 790 l 1
 97 790 l 1
 10 703 l 1
10 717 m 1
 83 790 l 1
 10 790 l 1
 10 717 l 1
201 94 m 1
 181 81 162 67 145 52 c 1
 247 155 l 1
 250 153 253 150 256 149 c 1
 201 94 l 1
468 175 m 1
 492 199 l 1
 494 199 495 199 497 199 c 0
 500 199 503 199 506 199 c 1
 483 176 l 1
 478 176 473 175 468 175 c 1
369 162 m 1
 363 161 357 160 351 158 c 1
 376 183 l 1
 382 185 389 186 395 187 c 1
 369 162 l 1
565 172 m 1
 584 191 l 1
 588 190 591 189 595 188 c 1
 578 171 l 1
 574 172 569 172 565 172 c 1
650 157 m 1
 662 169 l 1
 672 165 l 1
 661 154 l 1
 650 157 l 1
148 0 m 1
 227 82 353 136 497 136 c 0
 641 136 773 82 852 0 c 1
 148 0 l 1
498 355 m 3
 563 355 638 268 699 202 c 1
 624 226 578 239 498 239 c 27
 418 239 373 225 297 203 c 1
 356 268 442 355 498 355 c 3
363 546 m 0
 363 620 423 680 497 680 c 0
 571 680 631 620 631 546 c 0
 631 472 571 412 497 412 c 0
 423 412 363 472 363 546 c 0
EndSplineSet
Validated: 1
EndChar

StartChar: uniE05C
Encoding: 57436 57436 36
Width: 1000
VWidth: 0
Flags: W
HStem: -200 10<17 103 117 203 217 303 317 403 417 503 517 603 617 703 717 803 817 903 917 991> 790 10<10 83 97 183 197 283 297 383 397 483 497 583 597 683 697 783 797 883 897 983>
VStem: 0 10<-183 -97 -83 3 17 103 117 203 217 303 317 403 417 503 517 603 617 703 717 790> 991 10<-190 -116 -102 -16 -2 84 98 184 198 283 298 383 397 483 497 583 597 683 697 783>
LayerCount: 2
Fore
SplineSet
10 717 m 1
 83 790 l 1
 10 790 l 1
 10 717 l 1
10 703 m 1
 10 617 l 1
 183 790 l 1
 97 790 l 1
 10 703 l 1
10 603 m 1
 10 517 l 1
 283 790 l 1
 197 790 l 1
 10 603 l 1
10 503 m 1
 10 417 l 1
 383 790 l 1
 297 790 l 1
 10 503 l 1
10 403 m 1
 10 317 l 1
 483 790 l 1
 397 790 l 1
 10 403 l 1
10 303 m 1
 10 217 l 1
 583 790 l 1
 497 790 l 1
 10 303 l 1
10 203 m 1
 10 117 l 1
 683 790 l 1
 597 790 l 1
 10 203 l 1
10 103 m 1
 10 17 l 1
 783 790 l 1
 697 790 l 1
 10 103 l 1
10 3 m 1
 10 -83 l 1
 883 790 l 1
 797 790 l 1
 10 3 l 1
10 -97 m 1
 10 -183 l 1
 983 790 l 1
 897 790 l 1
 10 -97 l 1
991 -116 m 1
 917 -190 l 1
 991 -190 l 1
 991 -116 l 1
991 -102 m 1
 991 -16 l 1
 817 -190 l 1
 903 -190 l 1
 991 -102 l 1
991 -2 m 1
 991 84 l 1
 717 -190 l 1
 803 -190 l 1
 991 -2 l 1
991 98 m 1
 991 184 l 1
 617 -190 l 1
 703 -190 l 1
 991 98 l 1
991 198 m 1
 991 283 l 1
 517 -190 l 1
 603 -190 l 1
 991 198 l 1
991 298 m 1
 990 383 l 1
 417 -190 l 1
 503 -190 l 1
 991 298 l 1
990 397 m 1
 990 483 l 1
 317 -190 l 1
 403 -190 l 1
 990 397 l 1
990 497 m 1
 990 583 l 1
 217 -190 l 1
 303 -190 l 1
 990 497 l 1
990 597 m 1
 990 683 l 1
 117 -190 l 1
 203 -190 l 1
 990 597 l 1
990 697 m 1
 990 783 l 1
 17 -190 l 1
 103 -190 l 1
 990 697 l 1
1001 -200 m 1
 0 -200 l 1
 0 800 l 1
 1000 800 l 1
 1001 -200 l 1
EndSplineSet
Validated: 1
EndChar

StartChar: uniE04C
Encoding: 57420 57420 37
Width: 1000
VWidth: 0
Flags: W
HStem: -200 10<10 991> 790 10<10 990>
VStem: 0 10<-190 790> 991 10<-190 790>
LayerCount: 2
Fore
SplineSet
0 -200 m 1
 0 800 l 1
 1000 800 l 1
 1001 -200 l 1
 0 -200 l 1
10 -190 m 1
 991 -190 l 1
 990 790 l 1
 10 790 l 1
 10 -190 l 1
EndSplineSet
Validated: 1
EndChar

StartChar: O
Encoding: 79 79 51
Width: 1000
VWidth: 0
Flags: W
HStem: -55 30<403.12 596.88> 625 30<403.12 596.88>
VStem: 145 30<203.12 396.88> 825 30<203.12 396.88>
LayerCount: 2
Fore
SplineSet
500 655 m 0
 695.958 655 855 495.957 855 300 c 0
 855 104.042 695.957 -55 500 -55 c 0
 304.042 -55 145 104.043 145 300 c 0
 145 495.958 304.043 655 500 655 c 0
175 300 m 0
 175 120.598 320.598 -25 500 -25 c 0
 679.402 -25 825 120.598 825 300 c 0
 825 479.402 679.402 625 500 625 c 0
 320.598 625 175 479.402 175 300 c 0
EndSplineSet
Validated: 1
EndChar

StartChar: o
Encoding: 111 111 52
Width: 1000
VWidth: 0
Flags: W
HStem: -40 680<383.135 616.865>
VStem: 160 680<183.135 416.865>
LayerCount: 2
Fore
SplineSet
160 300 m 4
 160 487.68 312.32 640 500 640 c 4
 687.68 640 840 487.68 840 300 c 4
 840 112.32 687.68 -40 500 -40 c 4
 312.32 -40 160 112.32 160 300 c 4
EndSplineSet
Validated: 1
EndChar

StartChar: comma
Encoding: 44 44 57
Width: 1000
VWidth: 0
Flags: W
HStem: 399.96 30.08<195.086 406.202 594 805.743>
LayerCount: 2
Fore
SplineSet
498.924 140.46 m 1
 252.086 -37.3086 l 1
 348.311 251.366 l 1
 102.914 431.172 l 1
 406.202 430.04 l 1
 502.372 718.549 l 1
 594 428.959 l 1
 898.257 427.828 l 1
 651.609 250.197 l 1
 744.364 -39.3789 l 1
 498.924 140.46 l 1
687.636 39.3789 m 1
 616.391 261.803 l 1
 805.743 398.172 l 1
 572 399.041 l 1
 501.628 621.451 l 1
 427.798 399.96 l 1
 195.086 400.828 l 1
 383.689 262.634 l 1
 309.914 41.3086 l 1
 499.076 177.54 l 1
 687.636 39.3789 l 1
EndSplineSet
Validated: 1
EndChar

StartChar: period
Encoding: 46 46 58
Width: 1000
VWidth: 0
Flags: W
HStem: -0 21G<688.704 709.594>
LayerCount: 2
Fore
SplineSet
716 -0 m 5
 499 159 l 5
 281 2 l 5
 366 257 l 5
 149 416 l 5
 417 415 l 5
 502 670 l 5
 583 414 l 5
 852 413 l 5
 634 256 l 5
 716 -0 l 5
EndSplineSet
Validated: 1
EndChar

StartChar: one
Encoding: 49 49 59
Width: 1000
VWidth: 0
Flags: W
HStem: 0 49<519 615 674 771> 362 54<510 545>
VStem: 615 59<49 383> 970 30<-200 800>
LayerCount: 2
Fore
SplineSet
970 800 m 1
 1000 800 l 1
 1000 -200 l 1
 970 -200 l 1
 970 800 l 1
519 49 m 1
 615 49 l 1
 615 383 l 1
 510 362 l 1
 510 416 l 1
 615 437 l 1
 674 437 l 1
 674 49 l 1
 771 49 l 1
 771 0 l 1
 519 0 l 1
 519 49 l 1
EndSplineSet
Validated: 1
EndChar

StartChar: two
Encoding: 50 50 60
Width: 1000
VWidth: 0
Flags: W
HStem: 0 50<589 796> 395 50<553.626 707.839>
VStem: 734 59<255.64 369.556> 970 30<-200 800>
LayerCount: 2
Fore
SplineSet
970 800 m 1
 1000 800 l 1
 1000 -200 l 1
 970 -200 l 1
 970 800 l 1
589 50 m 1
 796 50 l 1
 796 0 l 1
 518 0 l 1
 518 50 l 1
 610 143 l 1
 683 219 l 1
 702 240 715 258 723 273 c 0
 731 288 734 302 734 316 c 0
 734 339 725 358 709 373 c 0
 693 388 672 395 646 395 c 0
 627 395 608 392 587 386 c 0
 566 380 544 369 521 356 c 1
 521 416 l 1
 545 426 567 433 588 438 c 0
 609 443 628 445 645 445 c 0
 690 445 726 434 753 411 c 0
 780 388 793 358 793 320 c 0
 793 302 790 285 783 269 c 0
 776 253 764 234 746 212 c 1
 741 206 726 190 700 163 c 2
 589 50 l 1
EndSplineSet
Validated: 1
EndChar

StartChar: three
Encoding: 51 51 61
Width: 1000
VWidth: 0
Flags: W
HStem: -2 50<508.923 695.326> 216 49<572 691.291> 402 50<510.031 690.246>
VStem: 715 59<283.35 382.226> 725 59<76.7809 188.875> 970 30<-200 800>
LayerCount: 2
Fore
SplineSet
970 800 m 1xe4
 1000 800 l 1
 1000 -200 l 1
 970 -200 l 1
 970 800 l 1xe4
694 243 m 1
 722 237 744 224 760 205 c 0
 776 186 784 162 784 134 c 0
 784 91 770 58 740 34 c 0
 710 10 668 -2 613 -2 c 0
 595 -2 575 0 556 4 c 0
 537 8 517 13 496 20 c 1
 496 77 l 1
 512 67 530 60 550 55 c 0
 570 50 590 48 611 48 c 0
 648 48 677 55 696 70 c 0
 715 85 725 106 725 134 c 0xec
 725 160 716 179 698 194 c 0
 680 209 655 216 623 216 c 2
 572 216 l 1
 572 265 l 1
 625 265 l 2
 654 265 677 270 692 282 c 0
 707 294 715 311 715 333 c 0
 715 355 707 372 691 384 c 0
 675 396 653 402 623 402 c 0
 607 402 590 401 571 397 c 0
 552 393 531 388 509 381 c 1
 509 433 l 1
 531 439 552 444 572 447 c 0
 592 450 611 452 628 452 c 0
 673 452 709 442 735 422 c 0
 761 402 774 374 774 339 c 0xf4
 774 315 767 294 753 277 c 0
 739 260 720 249 694 243 c 1
EndSplineSet
Validated: 1
EndChar

StartChar: four
Encoding: 52 52 62
Width: 1000
VWidth: 0
Flags: W
HStem: 0 21G<674 732> 103 49<524 674 732 795>
VStem: 674 58<0 103 152 386> 970 30<-200 800>
LayerCount: 2
Fore
SplineSet
970 800 m 1
 1000 800 l 1
 1000 -200 l 1
 970 -200 l 1
 970 800 l 1
674 386 m 1
 524 152 l 1
 674 152 l 1
 674 386 l 1
658 437 m 1
 732 437 l 1
 732 152 l 1
 795 152 l 1
 795 103 l 1
 732 103 l 1
 732 0 l 1
 674 0 l 1
 674 103 l 1
 476 103 l 1
 476 160 l 1
 658 437 l 1
EndSplineSet
Validated: 1
EndChar

StartChar: five
Encoding: 53 53 63
Width: 1000
VWidth: 0
Flags: W
HStem: -2 50<514.055 691.56> 246 49<575.559 690.437> 394 50<575 753>
VStem: 521 54<287 394> 726 59<82.2068 211.25> 970 30<-200 800>
LayerCount: 2
Fore
SplineSet
970 800 m 1
 1000 800 l 1
 1000 -200 l 1
 970 -200 l 1
 970 800 l 1
521 444 m 1
 753 444 l 1
 753 394 l 1
 575 394 l 1
 575 287 l 1
 584 290 592 292 601 293 c 0
 610 294 618 295 627 295 c 0
 676 295 714 282 743 255 c 0
 772 228 785 193 785 147 c 0
 785 100 771 63 742 37 c 0
 713 11 671 -2 618 -2 c 0
 600 -2 581 -1 562 2 c 0
 543 5 522 10 502 16 c 1
 502 76 l 1
 520 66 538 60 557 55 c 0
 576 50 595 48 616 48 c 0
 650 48 677 56 697 74 c 0
 717 92 726 117 726 147 c 0
 726 177 717 201 697 219 c 0
 677 237 650 246 616 246 c 0
 600 246 585 244 569 240 c 0
 553 236 537 231 521 224 c 1
 521 444 l 1
EndSplineSet
Validated: 1
EndChar

StartChar: six
Encoding: 54 54 64
Width: 1000
VWidth: 0
Flags: W
HStem: -4 47<589.67 702.426> 247 47<588.225 703.389> 400 50<602.146 762.273>
VStem: 490 69<88.2608 283.059> 732 60<72.7342 218.236> 970 30<-200 800>
LayerCount: 2
Fore
SplineSet
970 800 m 1
 1000 800 l 1
 1000 -200 l 1
 970 -200 l 1
 970 800 l 1
646 247 m 0
 619 247 599 238 583 220 c 0
 567 202 559 177 559 145 c 0
 559 114 567 89 583 71 c 0
 599 53 619 43 646 43 c 0
 673 43 693 53 709 71 c 0
 725 89 732 114 732 145 c 0
 732 177 725 202 709 220 c 0
 693 238 673 247 646 247 c 0
763 433 m 1
 763 379 l 1
 748 386 733 391 718 395 c 0
 703 399 688 400 673 400 c 0
 634 400 605 387 584 361 c 0
 563 335 551 294 548 241 c 1
 560 258 575 271 592 280 c 0
 609 289 628 294 649 294 c 0
 693 294 728 281 753 254 c 0
 778 227 792 191 792 145 c 0
 792 100 779 64 752 37 c 0
 725 10 690 -4 646 -4 c 0
 595 -4 557 15 530 54 c 0
 503 93 490 149 490 223 c 0
 490 292 506 347 539 388 c 0
 572 429 616 450 671 450 c 0
 686 450 701 449 716 446 c 0
 731 443 747 439 763 433 c 1
EndSplineSet
Validated: 1
EndChar

StartChar: seven
Encoding: 55 55 65
Width: 1000
VWidth: 0
Flags: W
HStem: 0 21G<564 633.718> 388 49<504 714>
VStem: 970 30<-200 800>
LayerCount: 2
Fore
SplineSet
970 800 m 1
 1000 800 l 1
 1000 -200 l 1
 970 -200 l 1
 970 800 l 1
504 437 m 1
 785 437 l 1
 785 412 l 1
 626 0 l 1
 564 0 l 1
 714 388 l 1
 504 388 l 1
 504 437 l 1
EndSplineSet
Validated: 1
EndChar

StartChar: eight
Encoding: 56 56 66
Width: 1000
VWidth: 0
Flags: W
HStem: -5 47<581.884 710.116> 212 46<586.661 704.339> 402 47<585.601 705.8>
VStem: 496 59<68.9859 185.593> 506 59<277.262 382.756> 727 59<277.684 382.103> 737 59<68.9859 186.821> 970 30<-200 800>
LayerCount: 2
Fore
SplineSet
970 800 m 1xe1
 1000 800 l 1
 1000 -200 l 1
 970 -200 l 1
 970 800 l 1xe1
646 212 m 0
 618 212 596 204 580 189 c 0
 564 174 555 153 555 127 c 0
 555 101 564 80 580 65 c 0
 596 50 618 42 646 42 c 0
 674 42 696 50 712 65 c 0
 728 80 737 101 737 127 c 0xf3
 737 153 729 174 713 189 c 0
 697 204 674 212 646 212 c 0
587 237 m 1
 562 243 541 255 527 272 c 0
 513 289 506 311 506 336 c 0
 506 371 518 399 543 419 c 0
 568 439 603 449 646 449 c 0
 690 449 723 439 748 419 c 0
 773 399 786 371 786 336 c 0xed
 786 311 778 289 764 272 c 0
 750 255 730 243 705 237 c 1
 734 230 756 217 772 198 c 0
 788 179 796 155 796 127 c 0
 796 85 783 52 757 29 c 0
 731 6 694 -5 646 -5 c 0
 598 -5 561 6 535 29 c 0
 509 52 496 85 496 127 c 0
 496 155 504 179 520 198 c 0
 536 217 558 230 587 237 c 1
565 330 m 0
 565 307 572 290 586 277 c 0
 600 264 620 258 646 258 c 0
 671 258 691 264 705 277 c 0
 719 290 727 307 727 330 c 0
 727 353 719 370 705 383 c 0
 691 396 671 402 646 402 c 0
 620 402 600 396 586 383 c 0
 572 370 565 353 565 330 c 0
EndSplineSet
Validated: 1
EndChar

StartChar: exclam
Encoding: 33 33 67
Width: 1000
Flags: W
HStem: -0 49<219 315 374 471> 362 54<210 245>
VStem: 0 30<-200 800> 315 59<49 383>
LayerCount: 2
Fore
SplineSet
219 49 m 1
 315 49 l 1
 315 383 l 1
 210 362 l 1
 210 416 l 1
 315 437 l 1
 374 437 l 1
 374 49 l 1
 471 49 l 1
 471 -0 l 1
 219 -0 l 1
 219 49 l 1
0 800 m 1
 30 800 l 1
 30 -200 l 1
 0 -200 l 1
 0 800 l 1
EndSplineSet
Validated: 1
EndChar

StartChar: quotedbl
Encoding: 34 34 68
Width: 1000
Flags: W
HStem: 0 50<289 496> 395 50<253.626 407.839>
VStem: 0 30<-200 800> 434 59<255.64 369.556>
LayerCount: 2
Fore
SplineSet
289 50 m 5
 496 50 l 5
 496 0 l 5
 218 0 l 5
 218 50 l 5
 310 143 l 5
 383 219 l 5
 402 240 415 258 423 273 c 4
 431 288 434 302 434 316 c 4
 434 339 425 358 409 373 c 4
 393 388 372 395 346 395 c 4
 327 395 308 392 287 386 c 4
 266 380 244 369 221 356 c 5
 221 416 l 5
 245 426 267 433 288 438 c 4
 309 443 328 445 345 445 c 4
 390 445 426 434 453 411 c 4
 480 388 493 358 493 320 c 4
 493 302 490 285 483 269 c 4
 476 253 464 234 446 212 c 5
 441 206 426 190 400 163 c 6
 289 50 l 5
0 800 m 1
 30 800 l 1
 30 -200 l 1
 0 -200 l 1
 0 800 l 1
EndSplineSet
Validated: 1
EndChar

StartChar: numbersign
Encoding: 35 35 69
Width: 1000
Flags: W
HStem: -2 50<208.923 395.326> 216 49<272 391.291> 402 50<210.031 390.246>
VStem: 0 30<-200 800> 415 59<283.35 382.226> 425 59<76.7809 188.875>
LayerCount: 2
Fore
SplineSet
394 243 m 5xf8
 422 237 444 224 460 205 c 4
 476 186 484 162 484 134 c 4
 484 91 470 58 440 34 c 4
 410 10 368 -2 313 -2 c 4
 295 -2 275 0 256 4 c 4
 237 8 217 13 196 20 c 5
 196 77 l 5
 212 67 230 60 250 55 c 4
 270 50 290 48 311 48 c 4
 348 48 377 55 396 70 c 4
 415 85 425 106 425 134 c 4xf4
 425 160 416 179 398 194 c 4
 380 209 355 216 323 216 c 6
 272 216 l 5
 272 265 l 5
 325 265 l 6
 354 265 377 270 392 282 c 4
 407 294 415 311 415 333 c 4
 415 355 407 372 391 384 c 4
 375 396 353 402 323 402 c 4
 307 402 290 401 271 397 c 4
 252 393 231 388 209 381 c 5
 209 433 l 5
 231 439 252 444 272 447 c 4
 292 450 311 452 328 452 c 4
 373 452 409 442 435 422 c 4
 461 402 474 374 474 339 c 4
 474 315 467 294 453 277 c 4
 439 260 420 249 394 243 c 5xf8
0 800 m 1
 30 800 l 1
 30 -200 l 1
 0 -200 l 1
 0 800 l 1
EndSplineSet
Validated: 1
EndChar

StartChar: dollar
Encoding: 36 36 70
Width: 1000
VWidth: 0
Flags: W
HStem: 0 21G<374 432> 103 49<224 374 432 495>
VStem: 0 30<-200 800> 374 58<0 103 152 386>
LayerCount: 2
Fore
SplineSet
374 386 m 5
 224 152 l 5
 374 152 l 5
 374 386 l 5
358 437 m 5
 432 437 l 5
 432 152 l 5
 495 152 l 5
 495 103 l 5
 432 103 l 5
 432 0 l 5
 374 0 l 5
 374 103 l 5
 176 103 l 5
 176 160 l 5
 358 437 l 5
0 800 m 1
 30 800 l 1
 30 -200 l 1
 0 -200 l 1
 0 800 l 1
EndSplineSet
Validated: 1
EndChar

StartChar: percent
Encoding: 37 37 71
Width: 1000
VWidth: 0
Flags: W
HStem: -2 50<214.055 391.56> 246 49<275.559 390.437> 394 50<275 453>
VStem: 0 30<-200 800> 221 54<287 394> 426 59<82.2068 211.25>
LayerCount: 2
Fore
SplineSet
221 444 m 5
 453 444 l 5
 453 394 l 5
 275 394 l 5
 275 287 l 5
 284 290 292 292 301 293 c 4
 310 294 318 295 327 295 c 4
 376 295 414 282 443 255 c 4
 472 228 485 193 485 147 c 4
 485 100 471 63 442 37 c 4
 413 11 371 -2 318 -2 c 4
 300 -2 281 -1 262 2 c 4
 243 5 222 10 202 16 c 5
 202 76 l 5
 220 66 238 60 257 55 c 4
 276 50 295 48 316 48 c 4
 350 48 377 56 397 74 c 4
 417 92 426 117 426 147 c 4
 426 177 417 201 397 219 c 4
 377 237 350 246 316 246 c 4
 300 246 285 244 269 240 c 4
 253 236 237 231 221 224 c 5
 221 444 l 5
0 800 m 1
 30 800 l 1
 30 -200 l 1
 0 -200 l 1
 0 800 l 1
EndSplineSet
Validated: 1
EndChar

StartChar: ampersand
Encoding: 38 38 72
Width: 1000
VWidth: 0
Flags: W
HStem: -4 47<289.67 402.426> 247 47<288.225 403.389> 400 50<302.146 462.273>
VStem: 0 30<-200 800> 190 69<88.2608 283.059> 432 60<72.7342 218.236>
LayerCount: 2
Fore
SplineSet
346 247 m 4
 319 247 299 238 283 220 c 4
 267 202 259 177 259 145 c 4
 259 114 267 89 283 71 c 4
 299 53 319 43 346 43 c 4
 373 43 393 53 409 71 c 4
 425 89 432 114 432 145 c 4
 432 177 425 202 409 220 c 4
 393 238 373 247 346 247 c 4
463 433 m 5
 463 379 l 5
 448 386 433 391 418 395 c 4
 403 399 388 400 373 400 c 4
 334 400 305 387 284 361 c 4
 263 335 251 294 248 241 c 5
 260 258 275 271 292 280 c 4
 309 289 328 294 349 294 c 4
 393 294 428 281 453 254 c 4
 478 227 492 191 492 145 c 4
 492 100 479 64 452 37 c 4
 425 10 390 -4 346 -4 c 4
 295 -4 257 15 230 54 c 4
 203 93 190 149 190 223 c 4
 190 292 206 347 239 388 c 4
 272 429 316 450 371 450 c 4
 386 450 401 449 416 446 c 4
 431 443 447 439 463 433 c 5
0 800 m 1
 30 800 l 1
 30 -200 l 1
 0 -200 l 1
 0 800 l 1
EndSplineSet
Validated: 1
EndChar

StartChar: quotesingle
Encoding: 39 39 73
Width: 1000
VWidth: 0
Flags: W
HStem: 0 21G<264 333.718> 388 49<204 414>
VStem: 0 30<-200 800>
LayerCount: 2
Fore
SplineSet
204 437 m 5
 485 437 l 5
 485 412 l 5
 326 0 l 5
 264 0 l 5
 414 388 l 5
 204 388 l 5
 204 437 l 5
0 800 m 1
 30 800 l 1
 30 -200 l 1
 0 -200 l 1
 0 800 l 1
EndSplineSet
Validated: 1
EndChar

StartChar: parenleft
Encoding: 40 40 74
Width: 1000
VWidth: 0
Flags: W
HStem: -5 47<281.884 410.116> 212 46<286.661 404.339> 402 47<285.601 405.8>
VStem: 0 30<-200 800> 196 59<68.9859 185.593> 206 59<277.262 382.756> 427 59<277.684 382.103> 437 59<68.9859 186.821>
LayerCount: 2
Fore
SplineSet
346 212 m 4xf9
 318 212 296 204 280 189 c 4
 264 174 255 153 255 127 c 4
 255 101 264 80 280 65 c 4
 296 50 318 42 346 42 c 4
 374 42 396 50 412 65 c 4
 428 80 437 101 437 127 c 4
 437 153 429 174 413 189 c 4
 397 204 374 212 346 212 c 4xf9
287 237 m 5
 262 243 241 255 227 272 c 4
 213 289 206 311 206 336 c 4
 206 371 218 399 243 419 c 4
 268 439 303 449 346 449 c 4
 390 449 423 439 448 419 c 4
 473 399 486 371 486 336 c 4xf6
 486 311 478 289 464 272 c 4
 450 255 430 243 405 237 c 5
 434 230 456 217 472 198 c 4
 488 179 496 155 496 127 c 4
 496 85 483 52 457 29 c 4
 431 6 394 -5 346 -5 c 4
 298 -5 261 6 235 29 c 4
 209 52 196 85 196 127 c 4
 196 155 204 179 220 198 c 4
 236 217 258 230 287 237 c 5
265 330 m 4
 265 307 272 290 286 277 c 4
 300 264 320 258 346 258 c 4
 371 258 391 264 405 277 c 4
 419 290 427 307 427 330 c 4
 427 353 419 370 405 383 c 4
 391 396 371 402 346 402 c 4
 320 402 300 396 286 383 c 4
 272 370 265 353 265 330 c 4
0 800 m 1
 30 800 l 1
 30 -200 l 1
 0 -200 l 1
 0 800 l 1
EndSplineSet
Validated: 1
EndChar

StartChar: A
Encoding: 65 65 82
Width: 1000
VWidth: 2048
Flags: W
HStem: -8 46<431.138 548.862> 0 21G<587 642> 169 43<439.807 587> 298 46<395.472 561.882> 770 30<0 1000>
VStem: 358 55<54.4937 150.897> 587 55<0 51 78.5781 169 212 273.074>
LayerCount: 2
Fore
SplineSet
0 800 m 5x3e
 1000 800 l 5
 1000 770 l 5
 0 770 l 5
 0 800 l 5x3e
532 169 m 2
 487 169 456 164 439 154 c 0
 422 144 413 127 413 102 c 0
 413 82 420 67 433 55 c 0
 446 43 463 38 485 38 c 0xbe
 516 38 541 48 559 70 c 0
 577 92 587 121 587 157 c 2
 587 169 l 1
 532 169 l 2
642 192 m 2
 642 0 l 1
 587 0 l 1x7e
 587 51 l 1
 574 31 559 16 540 6 c 0
 521 -4 498 -8 471 -8 c 0xbe
 437 -8 409 2 389 21 c 0x7e
 369 40 358 66 358 98 c 0
 358 136 371 165 396 184 c 0
 421 203 459 212 509 212 c 2
 587 212 l 1
 587 218 l 2
 587 243 579 263 562 277 c 0
 545 291 521 298 491 298 c 0
 472 298 453 296 435 291 c 0
 417 286 400 279 383 270 c 1
 383 321 l 1
 403 329 423 335 442 339 c 0
 461 343 479 344 497 344 c 0
 546 344 582 332 606 307 c 0
 630 282 642 243 642 192 c 2
EndSplineSet
Validated: 1
EndChar

StartChar: B
Encoding: 66 66 83
Width: 1000
VWidth: 2048
Flags: W
HStem: -8 46<441.828 555.734> 0 21G<350 405> 298 47<440.975 557.002> 770 30<0 1000>
VStem: 350 55<0 51 77.4067 259.582 285 467> 593 57<78.0611 259.362>
LayerCount: 2
Fore
SplineSet
593 168 m 260xbc
 593 209 585 241 568 264 c 4
 551 287 528 298 499 298 c 260
 470 298 447 287 430 264 c 4
 413 241 405 209 405 168 c 260
 405 127 413 96 430 73 c 4
 447 50 470 38 499 38 c 260
 528 38 551 50 568 73 c 4
 585 96 593 127 593 168 c 260xbc
405 285 m 5
 417 305 431 320 449 330 c 4
 467 340 488 345 513 345 c 4
 554 345 586 328 612 296 c 4
 638 264 650 221 650 168 c 260
 650 115 638 72 612 40 c 4
 586 8 554 -8 513 -8 c 4xbc
 488 -8 467 -4 449 6 c 4
 431 16 417 31 405 51 c 5
 405 0 l 5
 350 0 l 5x7c
 350 467 l 5
 405 467 l 5
 405 285 l 5
0 800 m 5
 1000 800 l 5
 1000 770 l 5
 0 770 l 5
 0 800 l 5
EndSplineSet
Validated: 1
EndChar

StartChar: C
Encoding: 67 67 84
Width: 1000
VWidth: 2048
Flags: W
HStem: -3 46<467.977 625.335> 303 46<467.887 625.374> 770 30<0 1000>
VStem: 367 58<88.4434 257.918>
LayerCount: 2
Fore
SplineSet
633 328 m 5
 633 277 l 5
 617 286 602 292 586 296 c 4
 570 300 554 303 538 303 c 4
 502 303 475 292 455 269 c 4
 435 246 425 214 425 173 c 260
 425 132 435 100 455 77 c 4
 475 54 502 43 538 43 c 4
 554 43 570 46 586 50 c 4
 602 54 617 60 633 69 c 5
 633 18 l 5
 618 11 601 6 585 2 c 4
 569 -2 551 -3 532 -3 c 4
 481 -3 442 12 412 44 c 4
 382 76 367 119 367 173 c 4
 367 228 382 271 412 302 c 4
 442 333 484 349 536 349 c 4
 553 349 570 348 586 344 c 4
 602 340 618 335 633 328 c 5
0 800 m 5
 1000 800 l 5
 1000 770 l 5
 0 770 l 5
 0 800 l 5
EndSplineSet
Validated: 1
EndChar

StartChar: D
Encoding: 68 68 85
Width: 1000
VWidth: 2048
Flags: W
HStem: -8 46<443.456 557.672> 0 21G<594.5 650.5> 298 47<442.998 558.525> 770 30<0 1000>
VStem: 349.5 57<78.0611 259.362> 594.5 56<0 51 77.4067 259.582 285 467>
LayerCount: 2
Fore
SplineSet
594.5 285 m 5xbc
 594.5 467 l 5
 650.5 467 l 5
 650.5 0 l 5
 594.5 0 l 5x7c
 594.5 51 l 5
 582.5 31 568.5 16 550.5 6 c 4
 532.5 -4 512.5 -8 487.5 -8 c 4
 446.5 -8 414.5 8 388.5 40 c 4
 362.5 72 349.5 115 349.5 168 c 260
 349.5 221 362.5 264 388.5 296 c 4
 414.5 328 446.5 345 487.5 345 c 4
 512.5 345 532.5 340 550.5 330 c 4
 568.5 320 582.5 305 594.5 285 c 5xbc
406.5 168 m 260
 406.5 127 414.5 96 431.5 73 c 4
 448.5 50 471.5 38 500.5 38 c 260xbc
 529.5 38 552.5 50 569.5 73 c 4
 586.5 96 594.5 127 594.5 168 c 260
 594.5 209 586.5 241 569.5 264 c 4
 552.5 287 529.5 298 500.5 298 c 260
 471.5 298 448.5 287 431.5 264 c 4
 414.5 241 406.5 209 406.5 168 c 260
0 800 m 5
 1000 800 l 5
 1000 770 l 5
 0 770 l 5
 0 800 l 5
EndSplineSet
Validated: 1
EndChar

StartChar: E
Encoding: 69 69 86
Width: 1000
VWidth: 2048
Flags: W
HStem: -5 46<446.203 621.562> 158 43<404 600> 301 46<442.769 569.58> 770 30<0 1000>
VStem: 600 56<201 269.654>
LayerCount: 2
Fore
SplineSet
656 185 m 6
 656 158 l 5
 402 158 l 5
 404 120 416 91 436 71 c 4
 456 51 485 41 522 41 c 4
 543 41 564 44 584 49 c 4
 604 54 623 63 643 73 c 5
 643 20 l 5
 623 12 603 5 582 1 c 4
 561 -3 540 -5 519 -5 c 4
 465 -5 422 10 391 41 c 4
 360 72 344 115 344 168 c 4
 344 223 359 267 389 299 c 4
 419 331 459 347 509 347 c 4
 554 347 590 333 616 304 c 4
 642 275 656 235 656 185 c 6
600 201 m 5
 600 231 591 256 575 274 c 4
 559 292 537 301 510 301 c 4
 479 301 454 291 436 274 c 4
 418 257 407 233 404 201 c 5
 600 201 l 5
0 800 m 5
 1000 800 l 5
 1000 770 l 5
 0 770 l 5
 0 800 l 5
EndSplineSet
Validated: 1
EndChar

StartChar: F
Encoding: 70 70 87
Width: 1000
VWidth: 2048
Flags: W
HStem: 0 21G<445.5 501.5> 293 43<393.5 445.5 501.5 592.5> 421 45<512.879 606.5> 770 30<0 1000>
VStem: 445.5 56<0 293 336 408.62>
LayerCount: 2
Fore
SplineSet
606.5 466 m 5
 606.5 421 l 5
 554.5 421 l 6
 534.5 421 520.5 417 512.5 409 c 4
 504.5 401 501.5 386 501.5 365 c 6
 501.5 336 l 5
 592.5 336 l 5
 592.5 293 l 5
 501.5 293 l 5
 501.5 0 l 5
 445.5 0 l 5
 445.5 293 l 5
 393.5 293 l 5
 393.5 336 l 5
 445.5 336 l 5
 445.5 359 l 6
 445.5 396 454.5 424 471.5 441 c 4
 488.5 458 516.5 466 554.5 466 c 6
 606.5 466 l 5
0 800 m 5
 1000 800 l 5
 1000 770 l 5
 0 770 l 5
 0 800 l 5
EndSplineSet
Validated: 1
EndChar

StartChar: G
Encoding: 71 71 88
Width: 1000
VWidth: 2048
Flags: W
HStem: -133 45<398.069 560.328> -6 47<441.185 560.551> 292 46<441.185 560.551> 770 30<0 1000>
VStem: 349.5 57<78.9706 253.521> 594.5 56<-52.3806 53 77.1467 255.847 279 330>
LayerCount: 2
Fore
SplineSet
594.5 166 m 4
 594.5 206 586.5 237 570.5 259 c 4
 554.5 281 530.5 292 500.5 292 c 4
 470.5 292 447.5 281 431.5 259 c 4
 415.5 237 406.5 206 406.5 166 c 4
 406.5 126 415.5 96 431.5 74 c 4
 447.5 52 470.5 41 500.5 41 c 4
 530.5 41 554.5 52 570.5 74 c 4
 586.5 96 594.5 126 594.5 166 c 4
650.5 36 m 6
 650.5 -21 637.5 -64 612.5 -92 c 4
 587.5 -120 547.5 -133 495.5 -133 c 4
 476.5 -133 457.5 -132 440.5 -129 c 4
 423.5 -126 406.5 -122 390.5 -116 c 5
 390.5 -62 l 5
 406.5 -71 422.5 -78 438.5 -82 c 4
 454.5 -86 470.5 -88 486.5 -88 c 4
 522.5 -88 549.5 -79 567.5 -60 c 4
 585.5 -41 594.5 -12 594.5 26 c 6
 594.5 53 l 5
 583.5 33 569.5 19 551.5 9 c 4
 533.5 -1 512.5 -6 487.5 -6 c 4
 446.5 -6 412.5 10 387.5 41 c 4
 362.5 72 349.5 114 349.5 166 c 4
 349.5 218 362.5 260 387.5 291 c 4
 412.5 322 446.5 338 487.5 338 c 4
 512.5 338 533.5 334 551.5 324 c 4
 569.5 314 583.5 299 594.5 279 c 5
 594.5 330 l 5
 650.5 330 l 5
 650.5 36 l 6
0 800 m 5
 1000 800 l 5
 1000 770 l 5
 0 770 l 5
 0 800 l 5
EndSplineSet
Validated: 1
EndChar

StartChar: H
Encoding: 72 72 89
Width: 1000
VWidth: 2048
Flags: W
HStem: 0 21G<359 415 585 641> 296 48<450.348 564.726> 770 30<0 1000>
VStem: 359 56<0 261.472 283 466> 585 56<0 271.245>
LayerCount: 2
Fore
SplineSet
641 202 m 2
 641 0 l 1
 585 0 l 1
 585 201 l 2
 585 233 579 256 567 272 c 0
 555 288 536 296 511 296 c 0
 481 296 458 286 441 267 c 0
 424 248 415 222 415 189 c 2
 415 0 l 1
 359 0 l 1
 359 466 l 1
 415 466 l 1
 415 283 l 1
 428 303 443 319 461 329 c 0
 479 339 500 344 523 344 c 0
 562 344 591 332 611 308 c 0
 631 284 641 248 641 202 c 2
0 770 m 1
 0 800 l 1
 1000 800 l 1
 1000 770 l 1
 0 770 l 1
EndSplineSet
Validated: 1
EndChar

StartChar: a
Encoding: 97 97 90
Width: 1000
VWidth: 2048
Flags: W
HStem: -200 30<0 1000> -8 46<431.138 548.862> 0 21G<587 642> 169 43<439.807 587> 298 46<395.472 561.882>
VStem: 358 55<54.4937 150.897> 587 55<0 51 78.5781 169 212 273.074>
LayerCount: 2
Fore
SplineSet
0 -170 m 5x9e
 1000 -170 l 5
 1000 -200 l 5
 0 -200 l 5
 0 -170 l 5x9e
532 169 m 2
 487 169 456 164 439 154 c 0
 422 144 413 127 413 102 c 0
 413 82 420 67 433 55 c 0
 446 43 463 38 485 38 c 0xde
 516 38 541 48 559 70 c 0
 577 92 587 121 587 157 c 2
 587 169 l 1
 532 169 l 2
642 192 m 2
 642 0 l 1
 587 0 l 1xbe
 587 51 l 1
 574 31 559 16 540 6 c 0
 521 -4 498 -8 471 -8 c 0xde
 437 -8 409 2 389 21 c 0xbe
 369 40 358 66 358 98 c 0
 358 136 371 165 396 184 c 0
 421 203 459 212 509 212 c 2
 587 212 l 1
 587 218 l 2
 587 243 579 263 562 277 c 0
 545 291 521 298 491 298 c 0
 472 298 453 296 435 291 c 0
 417 286 400 279 383 270 c 1
 383 321 l 1
 403 329 423 335 442 339 c 0
 461 343 479 344 497 344 c 0
 546 344 582 332 606 307 c 0
 630 282 642 243 642 192 c 2
EndSplineSet
Validated: 1
EndChar

StartChar: b
Encoding: 98 98 91
Width: 1000
VWidth: 2048
Flags: W
HStem: -200 30<0 1000> -8 46<441.828 555.734> 0 21G<350 405> 298 47<440.975 557.002>
VStem: 350 55<0 51 77.4067 259.582 285 467> 593 57<78.0611 259.362>
LayerCount: 2
Fore
SplineSet
593 168 m 260xdc
 593 209 585 241 568 264 c 4
 551 287 528 298 499 298 c 260
 470 298 447 287 430 264 c 4
 413 241 405 209 405 168 c 260
 405 127 413 96 430 73 c 4
 447 50 470 38 499 38 c 260
 528 38 551 50 568 73 c 4
 585 96 593 127 593 168 c 260xdc
405 285 m 5
 417 305 431 320 449 330 c 4
 467 340 488 345 513 345 c 4
 554 345 586 328 612 296 c 4
 638 264 650 221 650 168 c 260
 650 115 638 72 612 40 c 4
 586 8 554 -8 513 -8 c 4xdc
 488 -8 467 -4 449 6 c 4
 431 16 417 31 405 51 c 5
 405 0 l 5
 350 0 l 5xbc
 350 467 l 5
 405 467 l 5
 405 285 l 5
0 -170 m 5
 1000 -170 l 5
 1000 -200 l 5
 0 -200 l 5
 0 -170 l 5
EndSplineSet
Validated: 1
EndChar

StartChar: c
Encoding: 99 99 92
Width: 1000
VWidth: 2048
Flags: W
HStem: -200 30<0 1000> -3 46<467.977 625.335> 303 46<467.887 625.374>
VStem: 367 58<88.4434 257.918>
LayerCount: 2
Fore
SplineSet
633 328 m 5
 633 277 l 5
 617 286 602 292 586 296 c 4
 570 300 554 303 538 303 c 4
 502 303 475 292 455 269 c 4
 435 246 425 214 425 173 c 260
 425 132 435 100 455 77 c 4
 475 54 502 43 538 43 c 4
 554 43 570 46 586 50 c 4
 602 54 617 60 633 69 c 5
 633 18 l 5
 618 11 601 6 585 2 c 4
 569 -2 551 -3 532 -3 c 4
 481 -3 442 12 412 44 c 4
 382 76 367 119 367 173 c 4
 367 228 382 271 412 302 c 4
 442 333 484 349 536 349 c 4
 553 349 570 348 586 344 c 4
 602 340 618 335 633 328 c 5
0 -170 m 5
 1000 -170 l 5
 1000 -200 l 5
 0 -200 l 5
 0 -170 l 5
EndSplineSet
Validated: 1
EndChar

StartChar: d
Encoding: 100 100 93
Width: 1000
VWidth: 2048
Flags: W
HStem: -200 30<0 1000> -8 46<443.456 557.672> 0 21G<594.5 650.5> 298 47<442.998 558.525>
VStem: 349.5 57<78.0611 259.362> 594.5 56<0 51 77.4067 259.582 285 467>
LayerCount: 2
Fore
SplineSet
594.5 285 m 5xdc
 594.5 467 l 5
 650.5 467 l 5
 650.5 0 l 5
 594.5 0 l 5xbc
 594.5 51 l 5
 582.5 31 568.5 16 550.5 6 c 4
 532.5 -4 512.5 -8 487.5 -8 c 4
 446.5 -8 414.5 8 388.5 40 c 4
 362.5 72 349.5 115 349.5 168 c 260
 349.5 221 362.5 264 388.5 296 c 4
 414.5 328 446.5 345 487.5 345 c 4
 512.5 345 532.5 340 550.5 330 c 4
 568.5 320 582.5 305 594.5 285 c 5xdc
406.5 168 m 260
 406.5 127 414.5 96 431.5 73 c 4
 448.5 50 471.5 38 500.5 38 c 260xdc
 529.5 38 552.5 50 569.5 73 c 4
 586.5 96 594.5 127 594.5 168 c 260
 594.5 209 586.5 241 569.5 264 c 4
 552.5 287 529.5 298 500.5 298 c 260
 471.5 298 448.5 287 431.5 264 c 4
 414.5 241 406.5 209 406.5 168 c 260
0 -170 m 5
 1000 -170 l 5
 1000 -200 l 5
 0 -200 l 5
 0 -170 l 5
EndSplineSet
Validated: 1
EndChar

StartChar: e
Encoding: 101 101 94
Width: 1000
VWidth: 2048
Flags: W
HStem: -200 30<0 1000> -5 46<446.203 621.562> 158 43<404 600> 301 46<442.769 569.58>
VStem: 600 56<201 269.654>
LayerCount: 2
Fore
SplineSet
656 185 m 6
 656 158 l 5
 402 158 l 5
 404 120 416 91 436 71 c 4
 456 51 485 41 522 41 c 4
 543 41 564 44 584 49 c 4
 604 54 623 63 643 73 c 5
 643 20 l 5
 623 12 603 5 582 1 c 4
 561 -3 540 -5 519 -5 c 4
 465 -5 422 10 391 41 c 4
 360 72 344 115 344 168 c 4
 344 223 359 267 389 299 c 4
 419 331 459 347 509 347 c 4
 554 347 590 333 616 304 c 4
 642 275 656 235 656 185 c 6
600 201 m 5
 600 231 591 256 575 274 c 4
 559 292 537 301 510 301 c 4
 479 301 454 291 436 274 c 4
 418 257 407 233 404 201 c 5
 600 201 l 5
0 -170 m 5
 1000 -170 l 5
 1000 -200 l 5
 0 -200 l 5
 0 -170 l 5
EndSplineSet
Validated: 1
EndChar

StartChar: f
Encoding: 102 102 95
Width: 1000
VWidth: 2048
Flags: W
HStem: -200 30<0 1000> 0 21G<445.5 501.5> 293 43<393.5 445.5 501.5 592.5> 421 45<512.879 606.5>
VStem: 445.5 56<0 293 336 408.62>
LayerCount: 2
Fore
SplineSet
606.5 466 m 5
 606.5 421 l 5
 554.5 421 l 6
 534.5 421 520.5 417 512.5 409 c 4
 504.5 401 501.5 386 501.5 365 c 6
 501.5 336 l 5
 592.5 336 l 5
 592.5 293 l 5
 501.5 293 l 5
 501.5 0 l 5
 445.5 0 l 5
 445.5 293 l 5
 393.5 293 l 5
 393.5 336 l 5
 445.5 336 l 5
 445.5 359 l 6
 445.5 396 454.5 424 471.5 441 c 4
 488.5 458 516.5 466 554.5 466 c 6
 606.5 466 l 5
0 -170 m 5
 1000 -170 l 5
 1000 -200 l 5
 0 -200 l 5
 0 -170 l 5
EndSplineSet
Validated: 1
EndChar

StartChar: g
Encoding: 103 103 96
Width: 1000
VWidth: 2048
Flags: W
HStem: -200 30<0 1000> -133 45<398.069 560.328> -6 47<441.185 560.551> 292 46<441.185 560.551>
VStem: 349.5 57<78.9706 253.521> 594.5 56<-52.3806 53 77.1467 255.847 279 330>
LayerCount: 2
Fore
SplineSet
594.5 166 m 4
 594.5 206 586.5 237 570.5 259 c 4
 554.5 281 530.5 292 500.5 292 c 4
 470.5 292 447.5 281 431.5 259 c 4
 415.5 237 406.5 206 406.5 166 c 4
 406.5 126 415.5 96 431.5 74 c 4
 447.5 52 470.5 41 500.5 41 c 4
 530.5 41 554.5 52 570.5 74 c 4
 586.5 96 594.5 126 594.5 166 c 4
650.5 36 m 6
 650.5 -21 637.5 -64 612.5 -92 c 4
 587.5 -120 547.5 -133 495.5 -133 c 4
 476.5 -133 457.5 -132 440.5 -129 c 4
 423.5 -126 406.5 -122 390.5 -116 c 5
 390.5 -62 l 5
 406.5 -71 422.5 -78 438.5 -82 c 4
 454.5 -86 470.5 -88 486.5 -88 c 4
 522.5 -88 549.5 -79 567.5 -60 c 4
 585.5 -41 594.5 -12 594.5 26 c 6
 594.5 53 l 5
 583.5 33 569.5 19 551.5 9 c 4
 533.5 -1 512.5 -6 487.5 -6 c 4
 446.5 -6 412.5 10 387.5 41 c 4
 362.5 72 349.5 114 349.5 166 c 4
 349.5 218 362.5 260 387.5 291 c 4
 412.5 322 446.5 338 487.5 338 c 4
 512.5 338 533.5 334 551.5 324 c 4
 569.5 314 583.5 299 594.5 279 c 5
 594.5 330 l 5
 650.5 330 l 5
 650.5 36 l 6
0 -170 m 5
 1000 -170 l 5
 1000 -200 l 5
 0 -200 l 5
 0 -170 l 5
EndSplineSet
Validated: 1
EndChar

StartChar: h
Encoding: 104 104 97
Width: 1000
VWidth: 2048
Flags: W
HStem: -200 30<0 1000> 0 21G<359 415 585 641> 296 48<450.348 564.726>
VStem: 359 56<0 261.472 283 466> 585 56<0 271.245>
LayerCount: 2
Fore
SplineSet
641 202 m 6
 641 0 l 5
 585 0 l 5
 585 201 l 6
 585 233 579 256 567 272 c 4
 555 288 536 296 511 296 c 4
 481 296 458 286 441 267 c 4
 424 248 415 222 415 189 c 6
 415 0 l 5
 359 0 l 5
 359 466 l 5
 415 466 l 5
 415 283 l 5
 428 303 443 319 461 329 c 4
 479 339 500 344 523 344 c 4
 562 344 591 332 611 308 c 4
 631 284 641 248 641 202 c 6
0 -170 m 5
 1000 -170 l 5
 1000 -200 l 5
 0 -200 l 5
 0 -170 l 5
EndSplineSet
Validated: 1
EndChar

StartChar: S
Encoding: 83 83 98
Width: 1000
VWidth: 0
Flags: W
HStem: -200 10<10 991> -15 30<192 820> 121 30<377.594 628.019> 224 30<388.332 620.48> 279 30<335.458 406.409 607.458 678.409> 517 30<334.203 405.102 606.203 677.102> 558 96<472.975 530.895> 660 30<195.488 304.166 693.492 796.59> 741 30<470.327 535.238> 790 10<10 990>
VStem: 0 10<-190 790> 108 30<446.334 598.496> 272 30<348.025 479.963> 436 30<342.518 482.121 660.529 734.777> 472 60<592 645.01> 544 30<348.025 479.963 664.145 731.5> 708 30<342.518 482.121> 856 30<447.795 597.027> 991 10<-190 790>
LayerCount: 2
Fore
SplineSet
0 -200 m 5
 0 800 l 5
 1000 800 l 5
 1001 -200 l 5
 0 -200 l 5
10 -190 m 5
 991 -190 l 5
 990 790 l 5
 10 790 l 5
 10 -190 l 5
502 151 m 0
 650 151 786 96 868 10 c 2
 892 -15 l 1
 118 -15 l 1
 142 10 l 2
 224 95 354 151 502 151 c 0
192 15 m 1
 820 15 l 1
 743 79 627 121 502 121 c 0
 377 121 268 79 192 15 c 1
722 206 m 1
 825 381 856 465 856 531 c 0
 856 613 804 659 746 659 c 0
 664 659 605 558 502 558 c 27
 396 558 331 660 248 660 c 0
 204 660 138 627 138 530 c 0
 138 457 177 350 300 210 c 1
 365 239 431 254 502 254 c 0
 576 254 653 238 722 206 c 1
502 224 m 0
 432 224 366 208 302 178 c 2
 292 174 l 1
 286 182 l 2
 156 328 108 444 108 530 c 0
 108 645 188 690 248 690 c 0
 332 690 396 609 472 592 c 1
 472 632 l 1
 447 644 430 669 430 698 c 3
 430 738 462 771 502 771 c 3
 542 771 576 738 576 698 c 3
 576 668 558 642 532 631 c 1
 532 591 l 1
 606 609 665 689 746 689 c 0
 820 689 886 629 886 531 c 0
 886 457 853 369 740 178 c 2
 734 166 l 1
 720 173 l 2
 652 207 576 224 502 224 c 0
502 654 m 3
 521 654 546 670 546 698 c 3
 546 722 526 741 502 741 c 3
 478 741 460 722 460 698 c 3
 460 669 484 654 502 654 c 3
642 517 m 0
 602 517 574 473 574 416 c 0
 574 358 601 309 642 309 c 0
 668 309 708 331 708 410 c 0
 708 488 673 517 642 517 c 0
738 410 m 0
 738 318 688 279 642 279 c 0
 582 279 544 340 544 416 c 0
 544 490 584 547 642 547 c 0
 693 547 738 501 738 410 c 0
370 517 m 0
 330 517 302 473 302 416 c 0
 302 358 329 309 370 309 c 0
 396 309 436 331 436 410 c 0
 436 488 401 517 370 517 c 0
466 410 m 0
 466 318 416 279 370 279 c 0
 310 279 272 340 272 416 c 0
 272 490 312 547 370 547 c 0
 421 547 466 501 466 410 c 0
EndSplineSet
Validated: 1
EndChar

StartChar: T
Encoding: 84 84 99
Width: 1000
VWidth: 0
Flags: W
HStem: -200 10<10 991> -15 30<189 817> 121 30<375.763 622.375> 219 30<379.394 620.237> 325 30<309.554 358.382 639.987 690.76> 393 32<481.229 522.485> 447 30<128.159 180.765 819.235 871.841> 567 30<128.159 187.841 812.159 871.841> 697 30<368.159 427.841 572.159 631.841> 790 10<10 990>
VStem: 0 10<-190 790> 87 30<487.814 556.186> 199 30<487.481 556.186> 232 29<190 311.816> 327 30<618.08 686.186> 439 30<617.782 686.186> 531 30<617.782 686.186> 643 30<618.08 686.186> 739 29<190 311.875> 771 30<487.481 556.186> 883 30<487.814 556.186> 991 10<-190 790>
LayerCount: 2
Fore
SplineSet
117 522 m 0
 117 496 136 477 158 477 c 0
 180 477 199 496 199 522 c 0
 199 548 180 567 158 567 c 0
 136 567 117 548 117 522 c 0
158 597 m 0
 198 597 229 563 229 522 c 0
 229 497 218 475 200 461 c 1
 202 459 306 355 346 355 c 1
 346 355 349 355 353 360 c 0
 383 395 392 573 392 577 c 1
 355 581 327 614 327 652 c 0
 327 693 358 727 398 727 c 0
 438 727 469 693 469 652 c 0
 469 618 447 589 417 580 c 1
 458 476 480 425 502 425 c 0
 524 425 544 476 583 580 c 1
 553 589 531 618 531 652 c 0
 531 693 562 727 602 727 c 0
 642 727 673 693 673 652 c 0
 673 614 645 581 608 577 c 1
 610 564 621 355 654 355 c 0
 695 355 799 460 800 461 c 1
 782 475 771 497 771 522 c 0
 771 563 802 597 842 597 c 0
 882 597 913 563 913 522 c 0
 913 481 882 447 842 447 c 0
 835 447 828 448 822 450 c 1
 794 368 768 284 768 187 c 0
 768 172 769 157 770 141 c 1
 669 194 603 219 500 219 c 0
 396 219 330 193 230 141 c 1
 231 179 232 184 232 189 c 0
 232 282 203 382 178 450 c 1
 172 448 165 447 158 447 c 0
 118 447 87 481 87 522 c 0
 87 563 118 597 158 597 c 0
357 652 m 0
 357 626 376 607 398 607 c 0
 420 607 439 626 439 652 c 0
 439 678 420 697 398 697 c 0
 376 697 357 678 357 652 c 0
643 652 m 0
 643 678 624 697 602 697 c 0
 580 697 561 678 561 652 c 0
 561 626 580 607 602 607 c 0
 624 607 643 626 643 652 c 0
883 522 m 0
 883 548 864 567 842 567 c 0
 820 567 801 548 801 522 c 0
 801 496 820 477 842 477 c 0
 864 477 883 496 883 522 c 0
189 15 m 1
 817 15 l 1
 740 79 625 121 500 121 c 0
 375 121 265 79 189 15 c 1
500 151 m 0
 757 151 877 -2 890 -15 c 1
 116 -15 l 1
 161 31 270 151 500 151 c 0
500 393 m 0
 456 393 446 434 417 506 c 1
 408 416 395 364 376 341 c 0
 364 326 352 325 346 325 c 0
 313 325 265 361 227 394 c 1
 246 330 261 263 261 190 c 1
 345 230 404 249 500 249 c 0
 596 249 655 230 739 190 c 1
 739 263 754 330 773 394 c 1
 735 361 687 325 654 325 c 0
 642 325 632 331 624 340 c 0
 603 366 591 424 584 505 c 1
 557 434 550 393 500 393 c 0
0 -200 m 5
 0 800 l 5
 1000 800 l 5
 1001 -200 l 5
 0 -200 l 5
10 -190 m 5
 991 -190 l 5
 990 790 l 5
 10 790 l 5
 10 -190 l 5
EndSplineSet
Validated: 1
EndChar

StartChar: U
Encoding: 85 85 100
Width: 1000
VWidth: 0
Flags: W
HStem: -200 10<10 991> -15 30<186 814> 121 30<372.457 622.882> 224 30<382.109 615.172> 401 30<348.741 650.025> 487 30<366.169 627.831> 618 30<342.208 400.79 593.209 651.792> 665 30<262.831 310.98 683.02 731.169> 709 30<466.21 527.791> 790 10<10 990>
VStem: 0 10<-190 790> 231 30<576.032 664.017> 317 30<288.827 392.894> 733 30<580.984 664.017> 991 10<-190 790>
LayerCount: 2
Fore
SplineSet
624 648 m 0
 651 648 667 695 713 695 c 0
 743 695 763 669 763 642 c 0
 763 629 758 552 678 466 c 2
 672 459 l 1
 663 462 l 2
 616 478 558 487 497 487 c 0
 436 487 378 478 331 462 c 2
 323 459 l 1
 316 465 l 2
 236 541 231 624 231 642 c 0
 231 669 251 695 281 695 c 0
 327 695 343 648 370 648 c 0
 419 648 428 739 497 739 c 0
 566 739 575 648 624 648 c 0
497 709 m 0
 448 709 439 618 370 618 c 0
 327 618 312 665 281 665 c 0
 269 665 261 651 261 642 c 0
 261 629 265 559 331 493 c 1
 380 508 436 517 497 517 c 0
 558 517 614 508 663 493 c 1
 731 570 733 635 733 642 c 0
 733 651 725 665 713 665 c 0
 682 665 667 618 624 618 c 0
 555 618 546 709 497 709 c 0
652 390 m 1
 607 397 554 401 497 401 c 0
 442 401 391 397 347 391 c 1
 346 351 337 298 315 219 c 1
 374 242 434 254 497 254 c 0
 563 254 631 241 694 215 c 1
 662 300 654 356 652 390 c 1
736 192 m 2
 752 154 l 1
 715 173 l 2
 647 207 571 224 497 224 c 0
 427 224 361 208 297 178 c 2
 267 164 l 1
 277 196 l 2
 309 299 317 362 317 404 c 2
 317 417 l 1
 330 419 l 2
 378 427 435 431 497 431 c 0
 561 431 620 426 669 418 c 2
 681 416 l 1
 681 404 l 2
 682 372 688 307 736 192 c 2
497 151 m 0
 645 151 781 96 863 10 c 2
 887 -15 l 1
 113 -15 l 1
 137 10 l 2
 219 95 349 151 497 151 c 0
186 15 m 1
 814 15 l 1
 737 79 622 121 497 121 c 0
 372 121 262 79 186 15 c 1
0 -200 m 5
 0 800 l 5
 1000 800 l 5
 1001 -200 l 5
 0 -200 l 5
10 -190 m 5
 991 -190 l 5
 990 790 l 5
 10 790 l 5
 10 -190 l 5
EndSplineSet
Validated: 1
EndChar

StartChar: V
Encoding: 86 86 101
Width: 1000
VWidth: 0
Flags: W
HStem: -200 10<10 991> -15 30<186 814> 121 30<372.457 622.882> 224 30<376.865 616.455> 347 30<469.159 528.841> 790 10<10 990>
VStem: 0 10<-190 790> 208 30<300.985 461.85> 428 30<388.042 520.299> 540 30<387.814 467.234> 756 30<298.294 462.194> 991 10<-190 790>
LayerCount: 2
Fore
SplineSet
186 15 m 1
 814 15 l 1
 737 79 622 121 497 121 c 0
 372 121 262 79 186 15 c 1
497 151 m 0
 645 151 781 96 863 10 c 2
 887 -15 l 1
 113 -15 l 1
 137 10 l 2
 219 95 349 151 497 151 c 0
508 761 m 2
 722 545 786 498 786 402 c 0
 786 313 768 296 736 182 c 2
 731 164 l 1
 715 173 l 2
 648 207 573 224 497 224 c 0
 423 224 348 208 279 173 c 2
 263 164 l 1
 258 182 l 2
 226 296 208 313 208 402 c 0
 208 509 325 608 352 608 c 0
 385 608 464 521 464 475 c 0
 464 460 458 441 458 422 c 0
 458 396 477 377 499 377 c 0
 521 377 540 396 540 422 c 0
 540 448 537 452 521 473 c 2
 383 653 l 1
 497 771 l 1
 508 761 l 2
282 207 m 1
 351 238 424 254 497 254 c 0
 570 254 644 238 713 207 c 1
 743 309 756 323 756 402 c 0
 756 459 717 507 687 537 c 0
 676 549 593 632 497 729 c 1
 423 651 l 1
 545 491 l 2
 564 467 570 457 570 422 c 0
 570 381 539 347 499 347 c 0
 459 347 428 381 428 422 c 0
 428 443 434 464 434 475 c 0
 434 505 374 576 352 579 c 1
 352 579 238 500 238 402 c 0
 238 323 252 309 282 207 c 1
0 -200 m 5
 0 800 l 5
 1000 800 l 5
 1001 -200 l 5
 0 -200 l 5
10 -190 m 5
 991 -190 l 5
 990 790 l 5
 10 790 l 5
 10 -190 l 5
EndSplineSet
Validated: 1
EndChar

StartChar: W
Encoding: 87 87 102
Width: 1000
VWidth: 0
Flags: W
HStem: -200 10<10 991> -15 30<202 830> 121 30<387.594 638.019> 224 30<392.063 631.461> 329 30<148.884 185.889> 369 30<210.335 328.454> 421 30<366.133 394.76> 508 64<269.534 326.466> 790 10<10 990>
VStem: 0 10<-190 790> 268 60<509.19 570.81> 338 30<662.01 729.688> 396 30<367.875 420.506> 714 30<211.633 495.245> 991 10<-190 790>
LayerCount: 2
Fore
SplineSet
268 540 m 0
 268 558 281 572 298 572 c 0
 315 572 328 558 328 540 c 0
 328 522 315 508 298 508 c 0
 281 508 268 522 268 540 c 0
164 329 m 1
 132 334 114 371 98 392 c 1
 98 397 l 2
 98 441 133 457 150 484 c 0
 181 533 193 576 238 622 c 0
 272 657 314 642 332 672 c 0
 335 676 338 684 338 696 c 0
 338 705 328 731 328 747 c 0
 328 753 330 761 334 768 c 2
 342 781 l 1
 356 772 l 2
 403 739 425 717 472 689 c 0
 539 649 588 642 646 597 c 0
 719 541 748 493 748 403 c 0
 748 381 744 337 744 292 c 0
 744 271 751 237 752 186 c 2
 754 161 l 1
 730 173 l 2
 663 207 588 224 512 224 c 0
 438 224 363 208 294 173 c 2
 260 156 l 1
 274 191 l 2
 295 250 310 271 336 316 c 0
 359 356 396 368 396 398 c 0
 396 414 386 421 378 421 c 0
 376 421 374 420 372 419 c 0
 355 410 347 365 292 365 c 0
 279 365 261 369 248 369 c 0
 247 369 247 369 246 369 c 0
 200 367 207 329 166 329 c 2
 164 329 l 1
314 215 m 1
 378 241 445 254 512 254 c 0
 583 254 655 239 722 210 c 1
 720 245 714 270 714 292 c 0
 714 337 718 381 718 403 c 0
 718 486 691 525 628 573 c 0
 573 615 524 622 456 663 c 0
 416 687 393 706 362 730 c 1
 365 719 368 705 368 696 c 0
 368 688 368 673 358 656 c 0
 332 613 286 629 260 602 c 0
 219 560 211 523 176 468 c 0
 155 435 130 428 128 402 c 1
 150 370 160 359 168 359 c 0
 183 359 189 397 246 399 c 0
 247 399 249 399 250 399 c 0
 266 399 279 395 292 395 c 0
 340 395 329 449 380 451 c 0
 390 451 423 445 426 398 c 1
 426 353 382 334 362 300 c 0
 341 264 328 247 314 215 c 1
512 151 m 0
 660 151 796 96 878 10 c 2
 902 -15 l 1
 128 -15 l 1
 152 10 l 2
 234 95 364 151 512 151 c 0
202 15 m 1
 830 15 l 1
 753 79 637 121 512 121 c 0
 387 121 278 79 202 15 c 1
0 -200 m 5
 0 800 l 5
 1000 800 l 5
 1001 -200 l 5
 0 -200 l 5
10 -190 m 5
 991 -190 l 5
 990 790 l 5
 10 790 l 5
 10 -190 l 5
EndSplineSet
Validated: 1
EndChar

StartChar: X
Encoding: 88 88 103
Width: 1000
VWidth: 0
Flags: W
HStem: -200 10<10 991> -15 30<186 814> 121 30<372.457 622.882> 224 30<378.648 615.765> 340 30<449.444 544.582> 395 30<439.64 554.36> 663 30<439.64 554.36> 790 10<10 990>
VStem: 0 10<-190 790> 348 30<486.64 601.36> 616 30<486.64 601.36> 991 10<-190 790>
LayerCount: 2
Fore
SplineSet
497 693 m 0
 579 693 646 626 646 544 c 0
 646 462 579 395 497 395 c 0
 415 395 348 462 348 544 c 0
 348 626 415 693 497 693 c 0
378 544 m 0
 378 478 431 425 497 425 c 0
 563 425 616 478 616 544 c 0
 616 610 563 663 497 663 c 0
 431 663 378 610 378 544 c 0
336 228 m 1
 389 245 443 254 497 254 c 0
 551 254 606 245 659 228 c 1
 578 307 537 340 497 340 c 0
 457 340 416 307 336 228 c 1
497 370 m 0
 564 370 632 298 733 197 c 0
 738 192 739 183 734 177 c 0
 729 171 722 170 715 173 c 0
 647 207 571 224 497 224 c 0
 423 224 347 207 279 173 c 0
 272 170 265 171 260 177 c 0
 255 183 256 192 261 197 c 0
 362 298 430 370 497 370 c 0
497 151 m 0
 645 151 781 96 863 10 c 2
 887 -15 l 1
 113 -15 l 1
 137 10 l 2
 219 95 349 151 497 151 c 0
186 15 m 1
 814 15 l 1
 737 79 622 121 497 121 c 0
 372 121 262 79 186 15 c 1
0 -200 m 5
 0 800 l 5
 1000 800 l 5
 1001 -200 l 5
 0 -200 l 5
10 -190 m 5
 991 -190 l 5
 990 790 l 5
 10 790 l 5
 10 -190 l 5
EndSplineSet
Validated: 1
EndChar

StartChar: Y
Encoding: 89 89 104
Width: 1000
VWidth: 0
Flags: W
HStem: -200 10<17 103 117 203 217 303 317 403 417 503 517 603 617 703 717 803 817 903 917 991> -15 30<192 820> 121 30<377.594 628.019> 224 30<388.332 620.48> 279 30<335.458 406.409 607.458 678.409> 517 30<334.203 405.102 606.203 677.102> 558 96<472.975 530.895> 660 30<195.488 304.166 693.492 796.59> 741 30<470.327 535.238> 790 10<10 83 97 183 197 283 297 383 397 583 597 683 697 783 797 883 897 983>
VStem: 0 10<-183 -97 -83 3 17 103 117 203 217 303 317 403 417 503 517 603 617 703 717 790> 108 30<446.427 598.496> 272 30<348.025 479.963> 436 30<342.518 482.121 660.529 734.777> 472 60<592 645.01> 544 30<348.025 479.963 664.145 731.5> 708 30<342.518 482.121> 856 30<447.912 597.027> 991 10<-190 -116 -102 -16 -2 84 98 184 198 283 298 383 397 483 497 583 597 683 697 783>
LayerCount: 2
Fore
SplineSet
263 170 m 1
 269 162 l 1
 190 83 l 1
 166 66 143 47 124 27 c 2
 100 2 l 2
 96 -3 93 -8 93 -14 c 1
 10 -97 l 1
 10 -183 l 1
 153 -40 l 1
 167 -40 l 1
 17 -190 l 1
 103 -190 l 1
 253 -40 l 1
 267 -40 l 1
 117 -190 l 1
 203 -190 l 1
 353 -40 l 1
 367 -40 l 1
 217 -190 l 1
 303 -190 l 1
 453 -40 l 1
 467 -40 l 1
 317 -190 l 1
 403 -190 l 1
 553 -40 l 1
 567 -40 l 1
 417 -190 l 1
 503 -190 l 1
 653 -40 l 1
 667 -40 l 1
 517 -190 l 1
 603 -190 l 1
 753 -40 l 1
 767 -40 l 1
 617 -190 l 1
 703 -190 l 1
 853 -40 l 1
 867 -40 l 1
 717 -190 l 1
 803 -190 l 1
 991 -2 l 1
 991 84 l 1
 910 3 l 1
 903 10 l 1
 991 98 l 1
 991 184 l 1
 860 53 l 1
 852 59 l 1
 991 198 l 1
 991 283 l 1
 802 95 l 1
 793 100 l 1
 991 298 l 1
 990 383 l 1
 736 129 l 1
 726 133 l 1
 990 397 l 1
 990 483 l 1
 864 357 l 1
 875 382 l 1
 990 497 l 1
 990 583 l 1
 909 502 l 1
 910 507 910 512 910 517 c 1
 990 597 l 1
 990 683 l 1
 901 594 l 1
 900 598 899 602 898 605 c 1
 990 697 l 1
 990 783 l 1
 866 659 l 1
 864 662 861 664 859 666 c 1
 983 790 l 1
 897 790 l 1
 808 701 l 1
 805 702 801 704 798 705 c 1
 883 790 l 1
 797 790 l 1
 718 711 l 1
 712 710 706 709 700 707 c 1
 783 790 l 1
 697 790 l 1
 600 693 l 1
 600 695 600 696 600 698 c 0
 600 701 600 704 600 707 c 1
 683 790 l 1
 597 790 l 1
 573 766 l 1
 571 768 569 771 566 773 c 1
 583 790 l 1
 397 790 l 1
 310 703 l 1
 307 704 304 706 300 707 c 1
 383 790 l 1
 297 790 l 1
 219 712 l 1
 213 711 206 709 200 707 c 1
 283 790 l 1
 197 790 l 1
 10 603 l 1
 10 517 l 1
 93 600 l 1
 91 594 90 588 88 581 c 1
 10 503 l 1
 10 417 l 1
 85 492 l 1
 86 488 86 484 87 480 c 1
 10 403 l 1
 10 317 l 1
 106 413 l 1
 110 403 l 1
 10 303 l 1
 10 217 l 1
 138 345 l 1
 143 336 l 1
 10 203 l 1
 10 117 l 1
 176 283 l 1
 181 274 l 1
 10 103 l 1
 10 17 l 1
 218 225 l 1
 224 217 l 1
 10 3 l 1
 10 -83 l 1
 263 170 l 1
376 669 m 1
 367 674 l 1
 406 713 l 1
 405 708 404 703 404 698 c 2
 404 697 l 1
 376 669 l 1
663 170 m 1
 674 167 l 1
 662 155 l 1
 651 158 l 1
 663 170 l 1
585 192 m 1
 589 191 593 190 597 189 c 1
 578 171 l 1
 574 172 570 173 566 173 c 1
 585 192 l 1
506 199 m 1
 483 176 l 1
 478 176 473 175 468 175 c 1
 492 199 l 1
 496 199 498 199 502 199 c 2
 506 199 l 1
391 184 m 1
 368 161 l 1
 362 160 355 158 349 156 c 1
 371 178 l 1
 378 180 384 182 391 184 c 1
502 151 m 0
 650 151 786 96 868 10 c 2
 892 -15 l 1
 118 -15 l 1
 142 10 l 2
 224 95 354 151 502 151 c 0
192 15 m 1
 820 15 l 1
 743 79 627 121 502 121 c 0
 377 121 268 79 192 15 c 1
722 206 m 1
 825 381 856 465 856 531 c 0
 856 613 804 659 746 659 c 0
 664 659 605 558 502 558 c 0
 396 558 331 660 248 660 c 0
 204 660 138 627 138 530 c 0
 138 457 177 350 300 210 c 1
 365 239 431 254 502 254 c 0
 576 254 653 238 722 206 c 1
502 224 m 0
 432 224 366 208 302 178 c 1
 292 174 l 1
 286 182 l 2
 157 329 108 444 108 530 c 0
 108 645 188 690 248 690 c 0
 332 690 396 609 472 592 c 1
 472 632 l 1
 447 644 430 669 430 698 c 0
 430 738 462 771 502 771 c 0
 542 771 576 738 576 698 c 0
 576 668 558 642 532 631 c 1
 532 591 l 1
 606 609 665 689 746 689 c 0
 820 689 886 629 886 531 c 0
 886 457 852 370 740 178 c 2
 734 166 l 1
 720 173 l 1
 652 207 576 224 502 224 c 0
502 654 m 0
 521 654 546 670 546 698 c 0
 546 722 526 741 502 741 c 0
 478 741 460 722 460 698 c 0
 460 669 484 654 502 654 c 0
642 517 m 0
 602 517 574 473 574 416 c 0
 574 358 601 309 642 309 c 0
 668 309 708 331 708 410 c 0
 708 488 673 517 642 517 c 0
738 410 m 0
 738 318 688 279 642 279 c 0
 582 279 544 340 544 416 c 0
 544 490 584 547 642 547 c 0
 693 547 738 501 738 410 c 0
370 517 m 0
 330 517 302 473 302 416 c 0
 302 358 329 309 370 309 c 0
 396 309 436 331 436 410 c 0
 436 488 401 517 370 517 c 0
466 410 m 0
 466 318 416 279 370 279 c 0
 310 279 272 340 272 416 c 0
 272 490 312 547 370 547 c 0
 421 547 466 501 466 410 c 0
1001 -200 m 1
 0 -200 l 1
 0 800 l 1
 1000 800 l 1
 1001 -200 l 1
10 703 m 1
 10 617 l 1
 183 790 l 1
 97 790 l 1
 10 703 l 1
10 717 m 1
 83 790 l 1
 10 790 l 1
 10 717 l 1
991 -102 m 1
 991 -16 l 1
 817 -190 l 1
 903 -190 l 1
 991 -102 l 1
917 -190 m 1
 991 -190 l 1
 991 -116 l 1
 917 -190 l 1
EndSplineSet
Validated: 1
EndChar

StartChar: Z
Encoding: 90 90 105
Width: 1000
VWidth: 0
Flags: W
HStem: -200 10<17 103 117 203 217 303 317 403 417 503 517 603 617 703 717 803 817 903 917 991> -15 30<189 817> 121 30<375.763 622.375> 219 30<379.394 620.237> 325 30<309.554 358.382 639.987 690.76> 393 32<481.229 522.485> 447 30<128.159 180.765 819.235 871.841> 567 30<128.159 187.841 812.159 871.841> 697 30<368.159 427.841 572.159 631.841> 790 10<10 83 97 183 197 283 297 383 397 483 497 583 597 683 697 783 797 883 897 983>
VStem: 0 10<-183 -97 -83 3 17 103 117 203 217 303 317 403 417 503 517 603 617 703 717 790> 87 30<487.814 556.186> 199 30<487.481 556.186> 232 29<190 311.816> 327 30<618.08 686.186> 439 30<617.782 686.186> 531 30<617.782 686.186> 643 30<618.08 686.186> 739 29<190 311.875> 771 30<487.481 556.186> 883 30<487.814 556.186> 991 10<-190 -116 -102 -16 -2 84 98 184 198 283 298 383 397 483 497 583 597 683 697 783>
LayerCount: 2
Fore
SplineSet
990 697 m 1
 990 783 l 1
 828 621 l 1
 821 620 815 618 809 616 c 1
 983 790 l 1
 897 790 l 1
 637 530 l 1
 636 543 l 1
 883 790 l 1
 797 790 l 1
 692 685 l 1
 691 688 690 693 688 696 c 1
 783 790 l 1
 697 790 l 1
 647 740 l 1
 644 742 641 744 638 745 c 1
 683 790 l 1
 597 790 l 1
 489 682 l 1
 488 686 487 690 486 693 c 1
 583 790 l 1
 497 790 l 1
 446 739 l 1
 443 741 440 743 437 744 c 1
 483 790 l 1
 397 790 l 1
 212 605 l 1
 209 607 206 608 203 610 c 1
 383 790 l 1
 297 790 l 1
 122 615 l 1
 99 605 81 587 71 564 c 1
 10 503 l 1
 10 417 l 1
 72 479 l 1
 73 476 74 472 76 469 c 1
 10 403 l 1
 10 317 l 1
 122 429 l 1
 125 428 129 426 133 425 c 1
 10 303 l 1
 10 217 l 1
 174 382 l 1
 178 371 l 1
 10 203 l 1
 10 117 l 1
 195 302 l 1
 197 290 l 1
 10 103 l 1
 10 17 l 1
 206 213 l 1
 206 208 207 205 207 200 c 1
 10 3 l 1
 10 -83 l 1
 214 121 l 2
 215 120 216 121 217 120 c 0
 219 119 222 118 224 117 c 1
 193 86 l 1
 148 55 117 22 98 2 c 0
 93 -3 91 -9 91 -16 c 1
 10 -97 l 1
 10 -183 l 1
 153 -40 l 1
 167 -40 l 1
 17 -190 l 1
 103 -190 l 1
 253 -40 l 1
 267 -40 l 1
 117 -190 l 1
 203 -190 l 1
 353 -40 l 1
 367 -40 l 1
 217 -190 l 1
 303 -190 l 1
 453 -40 l 1
 467 -40 l 1
 317 -190 l 1
 403 -190 l 1
 553 -40 l 1
 567 -40 l 1
 417 -190 l 1
 503 -190 l 1
 653 -40 l 1
 667 -40 l 1
 517 -190 l 1
 603 -190 l 1
 753 -40 l 1
 767 -40 l 1
 617 -190 l 1
 703 -190 l 1
 853 -40 l 1
 867 -40 l 1
 717 -190 l 1
 803 -190 l 1
 991 -2 l 1
 991 84 l 1
 909 2 l 2
 908 3 l 0
 907 4 905 6 902 9 c 1
 991 98 l 1
 991 184 l 1
 858 51 l 1
 851 58 l 1
 991 198 l 1
 991 283 l 1
 801 94 l 1
 792 99 l 1
 991 298 l 1
 990 383 l 1
 793 186 l 1
 793 187 l 2
 793 191 793 196 793 200 c 1
 990 397 l 1
 990 483 l 1
 804 297 l 1
 805 303 806 309 807 315 c 1
 990 497 l 1
 990 583 l 1
 938 531 l 1
 938 535 937 539 936 543 c 1
 990 597 l 1
 990 683 l 1
 905 598 l 1
 903 600 900 602 897 604 c 1
 990 697 l 1
991 -102 m 1
 991 -16 l 1
 817 -190 l 1
 903 -190 l 1
 991 -102 l 1
991 -116 m 1
 917 -190 l 1
 991 -190 l 1
 991 -116 l 1
10 603 m 1
 10 517 l 1
 283 790 l 1
 197 790 l 1
 10 603 l 1
10 703 m 1
 10 617 l 1
 183 790 l 1
 97 790 l 1
 10 703 l 1
10 717 m 1
 83 790 l 1
 10 790 l 1
 10 717 l 1
468 175 m 1
 487 194 l 1
 491 194 496 194 500 194 c 2
 501 194 l 1
 483 176 l 1
 478 176 473 175 468 175 c 1
369 162 m 1
 363 161 357 160 351 158 c 1
 367 175 l 1
 374 177 380 178 387 180 c 1
 369 162 l 1
566 173 m 1
 580 188 l 1
 584 187 588 186 592 185 c 1
 578 171 l 1
 574 172 570 173 566 173 c 1
651 158 m 1
 659 166 l 1
 669 162 l 1
 662 155 l 1
 651 158 l 1
253 446 m 1
 245 452 l 1
 355 562 l 1
 358 560 362 559 365 558 c 1
 253 446 l 1
308 401 m 1
 300 407 l 1
 356 463 l 1
 355 457 355 452 354 447 c 1
 308 401 l 1
313 606 m 1
 252 544 l 1
 251 548 249 552 248 556 c 1
 309 616 l 1
 310 613 311 609 313 606 c 1
456 549 m 1
 452 559 l 1
 512 619 l 1
 513 616 514 612 516 609 c 1
 456 549 l 1
487 480 m 1
 482 489 l 1
 546 553 l 1
 537 530 l 1
 487 480 l 1
648 441 m 1
 647 445 647 449 646 453 c 1
 753 560 l 1
 750 554 749 548 748 541 c 1
 648 441 l 1
695 402 m 1
 761 468 l 1
 762 466 764 464 765 462 c 1
 741 440 716 417 695 402 c 1
117 522 m 0
 117 496 136 477 158 477 c 0
 180 477 199 496 199 522 c 0
 199 548 180 567 158 567 c 0
 136 567 117 548 117 522 c 0
158 597 m 0
 198 597 229 563 229 522 c 0
 229 497 218 475 200 461 c 1
 202 459 306 355 346 355 c 1
 346 355 349 355 353 360 c 0
 383 395 392 573 392 577 c 1
 355 581 327 614 327 652 c 0
 327 693 358 727 398 727 c 0
 438 727 469 693 469 652 c 0
 469 618 447 589 417 580 c 1
 458 476 480 425 502 425 c 0
 524 425 544 476 583 580 c 1
 553 589 531 618 531 652 c 0
 531 693 562 727 602 727 c 0
 642 727 673 693 673 652 c 0
 673 614 645 581 608 577 c 1
 610 564 621 355 654 355 c 0
 695 355 799 460 800 461 c 1
 782 475 771 497 771 522 c 0
 771 563 802 597 842 597 c 0
 882 597 913 563 913 522 c 0
 913 481 882 447 842 447 c 0
 835 447 828 448 822 450 c 1
 794 368 768 284 768 187 c 0
 768 172 769 157 770 141 c 1
 669 194 603 219 500 219 c 0
 396 219 330 193 230 141 c 1
 231 179 232 184 232 189 c 0
 232 282 203 382 178 450 c 1
 172 448 165 447 158 447 c 0
 118 447 87 481 87 522 c 0
 87 563 118 597 158 597 c 0
357 652 m 0
 357 626 376 607 398 607 c 0
 420 607 439 626 439 652 c 0
 439 678 420 697 398 697 c 0
 376 697 357 678 357 652 c 0
643 652 m 0
 643 678 624 697 602 697 c 0
 580 697 561 678 561 652 c 0
 561 626 580 607 602 607 c 0
 624 607 643 626 643 652 c 0
883 522 m 0
 883 548 864 567 842 567 c 0
 820 567 801 548 801 522 c 0
 801 496 820 477 842 477 c 0
 864 477 883 496 883 522 c 0
189 15 m 1
 817 15 l 1
 740 79 625 121 500 121 c 0
 375 121 265 79 189 15 c 1
500 151 m 0
 757 151 877 -2 890 -15 c 1
 116 -15 l 1
 161 31 270 151 500 151 c 0
500 393 m 0
 456 393 446 434 417 506 c 1
 408 416 395 364 376 341 c 0
 364 326 352 325 346 325 c 0
 313 325 265 361 227 394 c 1
 246 330 261 263 261 190 c 1
 345 230 404 249 500 249 c 0
 596 249 655 230 739 190 c 1
 739 263 754 330 773 394 c 1
 735 361 687 325 654 325 c 0
 642 325 632 331 624 340 c 0
 603 366 591 424 584 505 c 1
 557 434 550 393 500 393 c 0
0 -200 m 1
 0 800 l 1
 1000 800 l 1
 1001 -200 l 1
 0 -200 l 1
EndSplineSet
Validated: 1
EndChar

StartChar: bracketleft
Encoding: 91 91 106
Width: 1000
VWidth: 0
Flags: W
HStem: -200 10<17 103 117 203 217 303 317 403 417 503 517 603 617 703 717 803 817 903 917 991> -15 30<186 814> 0 21G<900 927> 121 30<372.457 622.882> 154 15<655 668> 224 30<382.109 615.172> 401 30<348.741 650.025> 487 30<366.169 627.831> 618 30<342.208 400.79 593.209 651.792> 665 30<262.831 310.98 683.02 731.169> 709 30<466.21 527.791> 790 10<10 83 97 183 197 283 297 383 397 483 497 583 597 683 697 783 797 883 897 983>
VStem: 0 10<-183 -97 -83 3 17 103 117 203 217 303 317 403 417 503 517 603 617 703 717 790> 231 30<576.032 664.017> 317 30<288.827 392.894> 733 30<580.984 664.017> 991 10<-190 -116 -102 -16 -2 84 98 184 198 283 298 383 397 483 497 583 597 683 697 783>
LayerCount: 2
Fore
SplineSet
1001 -200 m 1x9fff80
 0 -200 l 1
 0 800 l 1
 1000 800 l 1
 1001 -200 l 1x9fff80
54 -39 m 0
 67 -40 l 1
 10 -97 l 1
 10 -183 l 1
 153 -40 l 1
 167 -40 l 1
 17 -190 l 1
 103 -190 l 1
 253 -40 l 1
 267 -40 l 1
 117 -190 l 1
 203 -190 l 1
 353 -40 l 1
 367 -40 l 1
 217 -190 l 1
 303 -190 l 1
 453 -40 l 1
 467 -40 l 1
 317 -190 l 1
 403 -190 l 1
 553 -40 l 1
 567 -40 l 1
 417 -190 l 1
 503 -190 l 1
 653 -40 l 1
 667 -40 l 1
 517 -190 l 1
 603 -190 l 1
 753 -40 l 1
 767 -40 l 1
 617 -190 l 1
 703 -190 l 1
 853 -40 l 1
 867 -40 l 1
 717 -190 l 1
 803 -190 l 1
 991 -2 l 1
 991 84 l 1
 907 0 l 1xbfff80
 900 7 l 1
 991 98 l 1
 991 184 l 1
 857 50 l 1
 850 57 l 1
 991 198 l 1
 991 283 l 1
 800 93 l 1
 791 98 l 1
 796 103 l 1
 802 100 l 1
 799 106 l 1
 991 298 l 1
 990 383 l 1
 774 167 l 1
 770 177 l 1
 990 397 l 1
 990 483 l 1
 745 238 l 1
 741 248 l 1
 990 497 l 1
 990 583 l 1
 720 313 l 1
 717 325 l 1
 990 597 l 1
 990 683 l 1
 706 399 l 1
 706 401 706 402 706 404 c 2
 706 413 l 1
 990 697 l 1
 990 783 l 1
 771 564 l 1
 774 572 776 578 778 585 c 1
 983 790 l 1
 897 790 l 1
 781 674 l 1
 780 677 778 681 776 684 c 1
 883 790 l 1
 797 790 l 1
 726 719 l 1
 721 720 716 720 713 720 c 1
 783 790 l 1
 697 790 l 1
 599 692 l 1
 593 701 l 1
 683 790 l 1
 597 790 l 1
 553 746 l 1
 550 748 547 749 544 751 c 1
 583 790 l 1
 497 790 l 1
 466 759 l 1
 419 743 401 693 380 677 c 0
 376 674 375 673 370 673 c 1
 368 671 366 670 364 671 c 1
 483 790 l 1
 397 790 l 1
 317 710 l 1
 314 712 310 713 307 714 c 1
 383 790 l 1
 297 790 l 1
 10 503 l 1
 10 417 l 1
 208 615 l 1
 209 611 209 607 210 603 c 1
 10 403 l 1
 10 317 l 1
 232 539 l 1
 236 529 l 1
 10 303 l 1
 10 217 l 1
 270 478 l 1
 277 470 l 1
 10 203 l 1
 10 117 l 1
 292 399 l 1
 292 394 291 389 291 384 c 1
 10 103 l 1
 10 17 l 1
 275 282 l 1
 270 263 l 1
 10 3 l 1
 10 -83 l 1
 54 -39 l 0
991 -102 m 1
 991 -16 l 1
 817 -190 l 1
 903 -190 l 1
 991 -102 l 1
991 -116 m 1
 917 -190 l 1
 991 -190 l 1
 991 -116 l 1
10 603 m 1
 10 517 l 1
 283 790 l 1
 197 790 l 1
 10 603 l 1
10 703 m 1
 10 617 l 1
 183 790 l 1
 97 790 l 1
 10 703 l 1
10 717 m 1
 83 790 l 1
 10 790 l 1
 10 717 l 1
150 57 m 1
 233 141 l 1
 227 120 l 1
 201 94 l 1
 183 82 165 70 150 57 c 1
468 175 m 1
 492 199 l 1
 494 199 495 199 497 199 c 0
 500 199 503 199 506 199 c 1
 483 176 l 1
 478 176 473 175 468 175 c 1
369 162 m 1
 363 161 357 160 351 158 c 1
 374 181 l 1
 380 183 386 184 393 186 c 1
 369 162 l 1
565 172 m 1
 584 191 l 1
 588 190 592 189 596 188 c 1
 578 171 l 1
 574 172 569 172 565 172 c 1
650 157 m 1
 662 169 l 1
 672 165 l 1
 661 154 l 1
 650 157 l 1
624 648 m 0
 651 648 667 695 713 695 c 0
 743 695 763 669 763 642 c 0
 763 629 758 552 678 466 c 2
 672 459 l 1
 663 462 l 2
 616 478 558 487 497 487 c 0
 436 487 378 478 331 462 c 2
 323 459 l 1
 316 465 l 2
 236 541 231 624 231 642 c 0
 231 669 251 695 281 695 c 0
 327 695 343 648 370 648 c 0
 419 648 428 739 497 739 c 0
 566 739 575 648 624 648 c 0
497 709 m 0
 448 709 439 618 370 618 c 0
 327 618 312 665 281 665 c 0
 269 665 261 651 261 642 c 0
 261 629 265 559 331 493 c 1
 380 508 436 517 497 517 c 0
 558 517 614 508 663 493 c 1
 731 570 733 635 733 642 c 0
 733 651 725 665 713 665 c 0
 682 665 667 618 624 618 c 0
 555 618 546 709 497 709 c 0
652 390 m 1
 607 397 554 401 497 401 c 0
 442 401 391 397 347 391 c 1
 346 351 337 298 315 219 c 1
 374 242 434 254 497 254 c 0
 563 254 631 241 694 215 c 1
 662 300 654 356 652 390 c 1
736 192 m 2
 752 154 l 1
 715 173 l 2
 647 207 571 224 497 224 c 0
 427 224 361 208 297 178 c 2
 267 164 l 1
 277 196 l 2
 309 299 317 362 317 404 c 2
 317 417 l 1
 330 419 l 2
 378 427 435 431 497 431 c 0
 561 431 620 426 669 418 c 2
 681 416 l 1
 681 404 l 2
 682 372 688 307 736 192 c 2
497 151 m 0
 645 151 781 96 863 10 c 2
 887 -15 l 1
 113 -15 l 1xdfff80
 137 10 l 2
 219 95 349 151 497 151 c 0
186 15 m 1
 814 15 l 1
 737 79 622 121 497 121 c 0
 372 121 262 79 186 15 c 1
EndSplineSet
Validated: 1
EndChar

StartChar: backslash
Encoding: 92 92 107
Width: 1000
VWidth: 0
Flags: W
HStem: -200 10<17 103 117 203 217 303 317 403 417 503 517 603 617 703 717 803 817 903 917 991> -15 30<186 814> 0 21G<900 927> 121 30<372.457 622.882> 154 15<655 668> 224 30<376.865 616.455> 347 30<469.159 528.841> 790 10<10 83 97 183 197 283 297 383 397 481 513 583 597 683 697 783 797 883 897 983>
VStem: 0 10<-183 -97 -83 3 17 103 117 203 217 303 317 403 417 503 517 603 617 703 717 790> 208 30<300.985 461.85> 428 30<388.042 520.299> 540 30<387.814 467.234> 756 30<298.294 462.194> 991 10<-190 -116 -102 -16 -2 84 98 184 198 283 298 383 397 483 497 583 597 683 697 783>
LayerCount: 2
Fore
SplineSet
53 -40 m 1xbffc
 67 -40 l 1
 10 -97 l 1
 10 -183 l 1
 153 -40 l 1
 167 -40 l 1
 17 -190 l 1
 103 -190 l 1
 253 -40 l 1
 267 -40 l 1
 117 -190 l 1
 203 -190 l 1
 353 -40 l 1
 367 -40 l 1
 217 -190 l 1
 303 -190 l 1
 453 -40 l 1
 467 -40 l 1
 317 -190 l 1
 403 -190 l 1
 553 -40 l 1
 567 -40 l 1
 417 -190 l 1
 503 -190 l 1
 653 -40 l 1
 667 -40 l 1
 517 -190 l 1
 603 -190 l 1
 753 -40 l 1
 767 -40 l 1
 617 -190 l 1
 703 -190 l 1
 853 -40 l 1
 867 -40 l 1
 717 -190 l 1
 803 -190 l 1
 991 -2 l 1
 991 84 l 1
 907 0 l 1
 900 7 l 1
 991 98 l 1
 991 184 l 1
 857 50 l 1
 850 57 l 1
 991 198 l 1
 991 283 l 1
 800 93 l 1
 791 98 l 1
 991 298 l 1
 990 383 l 1
 752 144 l 1
 757 164 l 1
 990 397 l 1
 990 483 l 1
 795 288 l 1
 797 295 798 302 800 308 c 1
 990 497 l 1
 990 583 l 1
 811 404 l 1
 811 409 810 414 810 418 c 1
 990 597 l 1
 990 683 l 1
 792 485 l 1
 790 488 789 491 787 494 c 1
 990 697 l 1
 990 783 l 1
 752 545 l 1
 746 553 l 1
 983 790 l 1
 897 790 l 1
 705 598 l 1
 698 605 l 1
 883 790 l 1
 797 790 l 1
 656 649 l 1
 649 656 l 1
 783 790 l 1
 697 790 l 1
 606 699 l 1
 599 706 l 1
 683 790 l 1
 597 790 l 1
 556 749 l 1
 549 756 l 1
 583 790 l 1
 513 790 l 1
 502 800 l 1
 1000 800 l 1
 1001 -200 l 1
 0 -200 l 1
 0 800 l 1
 490 800 l 1
 481 790 l 1
 397 790 l 1
 10 403 l 1
 10 317 l 1
 402 709 l 1
 302 607 248 552 219 512 c 1
 10 303 l 1
 10 217 l 1
 183 390 l 1
 183 385 184 380 184 376 c 1
 10 203 l 1
 10 117 l 1
 195 302 l 1
 198 291 l 1
 10 103 l 1
 10 17 l 1
 219 226 l 1
 222 215 l 1
 10 3 l 1
 10 -83 l 1
 53 -40 l 1xbffc
991 -102 m 1
 991 -16 l 1
 817 -190 l 1
 903 -190 l 1
 991 -102 l 1
991 -116 m 1
 917 -190 l 1
 991 -190 l 1
 991 -116 l 1
10 503 m 1
 10 417 l 1
 383 790 l 1
 297 790 l 1
 10 503 l 1
10 603 m 1
 10 517 l 1
 283 790 l 1
 197 790 l 1
 10 603 l 1
10 703 m 1
 10 617 l 1
 183 790 l 1
 97 790 l 1
 10 703 l 1
10 717 m 1
 83 790 l 1
 10 790 l 1
 10 717 l 1
662 169 m 1
 672 165 l 1
 661 154 l 1
 650 157 l 1
 662 169 l 1
584 191 m 1
 588 190 592 190 596 189 c 1
 578 171 l 1
 574 172 569 172 565 172 c 1
 584 191 l 1
506 199 m 1
 483 176 l 1
 478 176 473 175 468 175 c 1
 492 199 l 1
 494 199 495 199 497 199 c 0
 500 199 503 199 506 199 c 1
395 188 m 1
 369 162 l 1
 363 161 357 160 351 158 c 1
 377 184 l 1
 383 186 389 187 395 188 c 1
148 55 m 1
 241 148 l 1
 244 137 l 1
 201 94 l 1
 182 82 164 69 148 55 c 1
186 15 m 1xdffc
 814 15 l 1
 737 79 622 121 497 121 c 0
 372 121 262 79 186 15 c 1xdffc
497 151 m 0
 645 151 781 96 863 10 c 2
 887 -15 l 1
 113 -15 l 1
 137 10 l 2
 219 95 349 151 497 151 c 0
508 761 m 2
 722 545 786 498 786 402 c 0
 786 313 768 296 736 182 c 2
 731 164 l 1
 715 173 l 2
 648 207 573 224 497 224 c 0
 423 224 348 208 279 173 c 2
 263 164 l 1
 258 182 l 2
 226 296 208 313 208 402 c 0
 208 509 325 608 352 608 c 0
 385 608 464 521 464 475 c 0
 464 460 458 441 458 422 c 0
 458 396 477 377 499 377 c 0
 521 377 540 396 540 422 c 0
 540 448 537 452 521 473 c 2
 383 653 l 1
 497 771 l 1
 508 761 l 2
282 207 m 1
 351 238 424 254 497 254 c 0
 570 254 644 238 713 207 c 1
 743 309 756 323 756 402 c 0
 756 459 717 507 687 537 c 0
 676 549 593 632 497 729 c 1
 423 651 l 1
 545 491 l 2
 564 467 570 457 570 422 c 0
 570 381 539 347 499 347 c 0
 459 347 428 381 428 422 c 0
 428 443 434 464 434 475 c 0
 434 505 374 576 352 579 c 1
 352 579 238 500 238 402 c 0
 238 323 252 309 282 207 c 1
EndSplineSet
Validated: 1
EndChar

StartChar: bracketright
Encoding: 93 93 108
Width: 1000
VWidth: 0
Flags: W
HStem: -200 10<17 103 117 203 217 303 317 403 417 503 517 603 617 703 717 803 817 903 917 991> -15 30<202 830> 121 30<387.594 638.019> 224 30<392.063 631.461> 329 30<148.884 185.889> 369 30<210.335 328.454> 421 30<366.133 394.76> 508 64<269.534 326.466> 790 10<10 83 97 183 197 283 297 318 322 370 373 383 397 483 497 583 597 683 697 783 797 883 897 983>
VStem: 0 10<-183 -97 -83 3 17 103 117 203 217 303 317 403 417 503 517 603 617 703 717 790> 268 60<509.19 570.81> 338 30<662.01 729.688> 396 30<367.875 420.506> 714 30<211.633 495.245> 991 10<-190 -116 -102 -16 -2 84 98 184 198 283 298 383 397 483 497 583 597 683 697 783>
LayerCount: 2
Fore
SplineSet
1001 -200 m 5
 0 -200 l 5
 0 800 l 5
 1000 800 l 5
 1001 -200 l 5
990 697 m 5
 990 783 l 5
 741 533 l 5
 739 536 737 539 735 542 c 5
 983 790 l 5
 897 790 l 5
 695 588 l 5
 688 595 l 5
 883 790 l 5
 797 790 l 5
 639 632 l 5
 631 638 l 5
 783 790 l 5
 697 790 l 5
 574 667 l 5
 564 671 l 5
 683 790 l 5
 597 790 l 5
 506 699 l 5
 497 704 l 5
 583 790 l 5
 497 790 l 5
 444 737 l 5
 436 743 l 5
 483 790 l 5
 397 790 l 5
 387 780 l 5
 379 786 l 5
 383 790 l 5
 373 790 l 5
 370 793 l 5
 358 790 l 5
 341 790 l 5
 322 795 l 5
 318 790 l 5
 297 790 l 5
 10 503 l 5
 10 417 l 5
 176 583 l 5
 170 573 164 562 158 551 c 5
 10 403 l 5
 10 317 l 5
 74 381 l 5
 78 377 l 5
 80 373 l 5
 10 303 l 5
 10 217 l 5
 118 325 l 5
 120 323 123 321 126 319 c 5
 10 203 l 5
 10 117 l 5
 235 342 l 6
 236 343 238 343 239 343 c 4
 241 344 246 344 246 344 c 5
 248 344 l 6
 249 344 250 344 251 344 c 6
 10 103 l 5
 10 17 l 5
 303 310 l 5
 296 298 290 288 284 277 c 5
 10 3 l 5
 10 -83 l 5
 225 132 l 5
 217 109 l 5
 142 35 l 5
 135 27 l 5
 10 -97 l 5
 10 -183 l 5
 153 -40 l 5
 167 -40 l 5
 17 -190 l 5
 103 -190 l 5
 253 -40 l 5
 267 -40 l 5
 117 -190 l 5
 203 -190 l 5
 353 -40 l 5
 367 -40 l 5
 217 -190 l 5
 303 -190 l 5
 453 -40 l 5
 467 -40 l 5
 317 -190 l 5
 403 -190 l 5
 553 -40 l 5
 567 -40 l 5
 417 -190 l 5
 503 -190 l 5
 653 -40 l 5
 667 -40 l 5
 517 -190 l 5
 603 -190 l 5
 753 -40 l 5
 767 -40 l 5
 617 -190 l 5
 703 -190 l 5
 853 -40 l 5
 867 -40 l 5
 717 -190 l 5
 803 -190 l 5
 953 -40 l 5
 961 -40 l 5
 957 -36 l 5
 991 -2 l 5
 991 84 l 5
 915 8 l 5
 908 15 l 5
 991 98 l 5
 991 184 l 5
 864 57 l 5
 857 64 l 5
 991 198 l 5
 991 283 l 5
 806 99 l 5
 797 104 l 5
 991 298 l 5
 990 383 l 5
 778 171 l 5
 778 185 l 5
 990 397 l 5
 990 483 l 5
 772 265 l 5
 771 270 770 273 770 277 c 5
 990 497 l 5
 990 583 l 5
 771 364 l 5
 772 379 l 5
 990 597 l 5
 990 683 l 5
 768 461 l 5
 767 465 766 468 765 472 c 5
 990 697 l 5
991 -102 m 5
 991 -16 l 5
 817 -190 l 5
 903 -190 l 5
 991 -102 l 5
991 -116 m 5
 917 -190 l 5
 991 -190 l 5
 991 -116 l 5
10 603 m 5
 10 517 l 5
 283 790 l 5
 197 790 l 5
 10 603 l 5
10 703 m 5
 10 617 l 5
 183 790 l 5
 97 790 l 5
 10 703 l 5
10 717 m 5
 83 790 l 5
 10 790 l 5
 10 717 l 5
467 174 m 5
 491 199 l 5
 496 199 501 199 506 199 c 5
 482 175 l 5
 477 175 472 174 467 174 c 5
364 157 m 5
 357 155 351 154 345 152 c 5
 370 177 l 5
 377 179 383 181 390 183 c 5
 364 157 l 5
567 174 m 5
 586 193 l 5
 590 192 594 192 598 191 c 5
 579 172 l 5
 575 172 571 174 567 174 c 5
653 160 m 5
 666 173 l 5
 677 170 l 5
 664 157 l 5
 653 160 l 5
729 136 m 5
 735 142 l 5
 745 137 l 5
 739 132 l 5
 729 136 l 5
279 672 m 5
 273 670 265 668 258 665 c 5
 309 716 l 5
 312 705 l 5
 279 672 l 5
268 540 m 0
 268 558 281 572 298 572 c 0
 315 572 328 558 328 540 c 0
 328 522 315 508 298 508 c 0
 281 508 268 522 268 540 c 0
164 329 m 1
 132 334 114 371 98 392 c 1
 98 397 l 2
 98 441 133 457 150 484 c 0
 181 533 193 576 238 622 c 0
 272 657 314 642 332 672 c 0
 335 676 338 684 338 696 c 0
 338 705 328 731 328 747 c 0
 328 753 330 761 334 768 c 2
 342 781 l 1
 356 772 l 2
 403 739 425 717 472 689 c 0
 539 649 588 642 646 597 c 0
 719 541 748 493 748 403 c 0
 748 381 744 337 744 292 c 0
 744 271 751 237 752 186 c 2
 754 161 l 1
 730 173 l 2
 663 207 588 224 512 224 c 0
 438 224 363 208 294 173 c 2
 260 156 l 1
 274 191 l 2
 295 250 310 271 336 316 c 0
 359 356 396 368 396 398 c 0
 396 414 386 421 378 421 c 0
 376 421 374 420 372 419 c 0
 355 410 347 365 292 365 c 0
 279 365 261 369 248 369 c 0
 247 369 247 369 246 369 c 0
 200 367 207 329 166 329 c 2
 164 329 l 1
314 215 m 1
 378 241 445 254 512 254 c 0
 583 254 655 239 722 210 c 1
 720 245 714 270 714 292 c 0
 714 337 718 381 718 403 c 0
 718 486 691 525 628 573 c 0
 573 615 524 622 456 663 c 0
 416 687 393 706 362 730 c 1
 365 719 368 705 368 696 c 0
 368 688 368 673 358 656 c 0
 332 613 286 629 260 602 c 0
 219 560 211 523 176 468 c 0
 155 435 130 428 128 402 c 1
 150 370 160 359 168 359 c 0
 183 359 189 397 246 399 c 0
 247 399 249 399 250 399 c 0
 266 399 279 395 292 395 c 0
 340 395 329 449 380 451 c 0
 390 451 423 445 426 398 c 1
 426 353 382 334 362 300 c 0
 341 264 328 247 314 215 c 1
512 151 m 0
 660 151 796 96 878 10 c 2
 902 -15 l 1
 128 -15 l 1
 152 10 l 2
 234 95 364 151 512 151 c 0
202 15 m 1
 830 15 l 1
 753 79 637 121 512 121 c 0
 387 121 278 79 202 15 c 1
EndSplineSet
Validated: 1
EndChar

StartChar: asciicircum
Encoding: 94 94 109
Width: 1000
VWidth: 0
Flags: W
HStem: -200 10<17 103 117 203 217 303 317 403 417 503 517 603 617 703 717 803 817 903 917 991> -15 30<186 814> 0 21G<900 927> 121 30<372.457 622.882> 154 15<655 668> 224 30<378.648 615.765> 340 30<449.444 544.582> 395 30<439.64 554.36> 663 30<439.64 554.36> 790 10<10 83 97 183 197 283 297 383 397 483 497 583 597 683 697 783 797 883 897 983>
VStem: 0 10<-183 -97 -83 3 17 103 117 203 217 303 317 403 417 503 517 603 617 703 717 790> 348 30<486.64 601.36> 616 30<486.64 601.36> 991 10<-190 -116 -102 -16 -2 84 98 184 198 283 298 383 397 483 497 583 597 683 697 783>
LayerCount: 2
Fore
SplineSet
1001 -200 m 1x9ffc
 0 -200 l 1
 0 800 l 1
 1000 800 l 1
 1001 -200 l 1x9ffc
53 -40 m 1
 67 -40 l 1
 10 -97 l 1
 10 -183 l 1
 153 -40 l 1
 167 -40 l 1
 17 -190 l 1
 103 -190 l 1
 253 -40 l 1
 267 -40 l 1
 117 -190 l 1
 203 -190 l 1
 353 -40 l 1
 367 -40 l 1
 217 -190 l 1
 303 -190 l 1
 453 -40 l 1
 467 -40 l 1
 317 -190 l 1
 403 -190 l 1
 553 -40 l 1
 567 -40 l 1
 417 -190 l 1
 503 -190 l 1
 653 -40 l 1
 667 -40 l 1
 517 -190 l 1
 603 -190 l 1
 753 -40 l 1
 767 -40 l 1
 617 -190 l 1
 703 -190 l 1
 853 -40 l 1
 867 -40 l 1
 717 -190 l 1
 803 -190 l 1
 991 -2 l 1
 991 84 l 1
 907 0 l 1xbffc
 900 7 l 1
 991 98 l 1
 991 184 l 1
 857 50 l 1
 850 57 l 1
 991 198 l 1
 991 283 l 1
 800 93 l 1
 791 98 l 1
 991 298 l 1
 990 383 l 1
 735 127 l 1
 725 132 l 1
 990 397 l 1
 990 483 l 1
 736 229 l 1
 729 236 l 1
 990 497 l 1
 990 583 l 1
 686 279 l 1
 679 286 l 1
 990 597 l 1
 990 683 l 1
 634 327 l 1
 627 334 l 1
 990 697 l 1
 990 783 l 1
 577 370 l 1
 568 375 l 1
 590 397 l 1
 612 411 630 429 644 451 c 1
 983 790 l 1
 897 790 l 1
 670 563 l 1
 670 567 669 571 668 575 c 1
 883 790 l 1
 797 790 l 1
 644 637 l 1
 642 640 640 642 638 645 c 1
 783 790 l 1
 697 790 l 1
 595 688 l 1
 592 690 589 691 586 693 c 1
 683 790 l 1
 597 790 l 1
 523 716 l 1
 519 717 514 717 510 717 c 1
 583 790 l 1
 497 790 l 1
 10 303 l 1
 10 217 l 1
 324 531 l 1
 324 527 324 522 325 518 c 1
 10 203 l 1
 10 117 l 1
 348 455 l 1
 350 452 351 449 353 446 c 1
 10 103 l 1
 10 17 l 1
 396 403 l 1
 399 401 401 399 404 397 c 1
 10 3 l 1
 10 -83 l 1
 53 -40 l 1
991 -102 m 1
 991 -16 l 1
 817 -190 l 1
 903 -190 l 1
 991 -102 l 1
991 -116 m 1
 917 -190 l 1
 991 -190 l 1
 991 -116 l 1
10 403 m 1
 10 317 l 1
 483 790 l 1
 397 790 l 1
 10 403 l 1
10 503 m 1
 10 417 l 1
 383 790 l 1
 297 790 l 1
 10 503 l 1
10 603 m 1
 10 517 l 1
 283 790 l 1
 197 790 l 1
 10 603 l 1
10 703 m 1
 10 617 l 1
 183 790 l 1
 97 790 l 1
 10 703 l 1
10 717 m 1
 83 790 l 1
 10 790 l 1
 10 717 l 1
201 94 m 1
 181 81 162 67 145 52 c 1
 247 155 l 1
 250 153 253 150 256 149 c 1
 201 94 l 1
468 175 m 1
 492 199 l 1
 494 199 495 199 497 199 c 0
 500 199 503 199 506 199 c 1
 483 176 l 1
 478 176 473 175 468 175 c 1
369 162 m 1
 363 161 357 160 351 158 c 1
 376 183 l 1
 382 185 389 186 395 187 c 1
 369 162 l 1
565 172 m 1
 584 191 l 1
 588 190 591 189 595 188 c 1
 578 171 l 1
 574 172 569 172 565 172 c 1
650 157 m 1
 662 169 l 1
 672 165 l 1
 661 154 l 1
 650 157 l 1
497 693 m 0
 579 693 646 626 646 544 c 0
 646 462 579 395 497 395 c 0
 415 395 348 462 348 544 c 0
 348 626 415 693 497 693 c 0
378 544 m 0
 378 478 431 425 497 425 c 0
 563 425 616 478 616 544 c 0
 616 610 563 663 497 663 c 0
 431 663 378 610 378 544 c 0
336 228 m 1
 389 245 443 254 497 254 c 0
 551 254 606 245 659 228 c 1
 578 307 537 340 497 340 c 0
 457 340 416 307 336 228 c 1
497 370 m 0
 564 370 632 298 733 197 c 0
 738 192 739 183 734 177 c 0
 729 171 722 170 715 173 c 0
 647 207 571 224 497 224 c 0
 423 224 347 207 279 173 c 0
 272 170 265 171 260 177 c 0
 255 183 256 192 261 197 c 0
 362 298 430 370 497 370 c 0
497 151 m 0
 645 151 781 96 863 10 c 2
 887 -15 l 1
 113 -15 l 1xdffc
 137 10 l 2
 219 95 349 151 497 151 c 0
186 15 m 1
 814 15 l 1
 737 79 622 121 497 121 c 0
 372 121 262 79 186 15 c 1
EndSplineSet
Validated: 1
EndChar

StartChar: s
Encoding: 115 115 110
Width: 1000
VWidth: 0
Flags: W
HStem: -200 10<10 991> 0 136<420.721 591.921> 239 55<365.685 422.864 596.505 652.007> 532 143<226.5 393.5 620.5 783> 532 42<401 414 596 607> 790 10<10 990>
VStem: 0 10<-190 790> 126 165<386 583.5> 454 109<331.6 496.597 652.209 743.619> 490 30<574 647.539> 726 148<367.5 576> 991 10<-190 790>
LayerCount: 2
Fore
SplineSet
157 0 m 1xe730
 236 82 362 136 506 136 c 0
 650 136 782 82 861 0 c 1
 157 0 l 1xe730
731 186 m 1
 661 221 582 239 506 239 c 0
 434 239 366 223 300 192 c 1
 171 337 126 450 126 530 c 0
 126 637 201 675 252 675 c 0xf770
 336 675 401 582 490 574 c 1
 490 642 l 1
 466 649 448 672 448 698 c 0
 448 730 474 756 506 756 c 0
 538 756 564 730 564 698 c 0
 564 671 545 648 520 642 c 1
 520 573 l 1xef70
 607 582 669 674 750 674 c 0
 816 674 874 621 874 531 c 0
 874 462 844 377 731 186 c 1
645 532 m 4
 596 532 563 482 563 416 c 4xf7b0
 563 356 590 294 645 294 c 4
 682 294 726 325 726 410 c 4
 726 494 686 532 645 532 c 4
373 532 m 4
 324 532 291 482 291 416 c 4
 291 356 318 294 373 294 c 4
 410 294 454 325 454 410 c 4
 454 494 414 532 373 532 c 4
0 -200 m 5
 0 800 l 5
 1000 800 l 5
 1001 -200 l 5
 0 -200 l 5
10 -190 m 5
 991 -190 l 5
 990 790 l 5
 10 790 l 5
 10 -190 l 5
EndSplineSet
Validated: 1
EndChar

StartChar: t
Encoding: 116 116 111
Width: 1000
VWidth: 0
Flags: W
HStem: -200 10<10 991> 0 136<414.721 585.921> 234 174<467.745 536.631> 462 120<114.764 201.236 798.764 885.236> 592 120<354.764 441.236 558.764 645.236> 790 10<10 990>
VStem: 0 10<-190 790> 102 112<474.839 569.161> 342 112<604.839 699.161> 546 112<604.839 699.161> 786 112<474.839 569.161> 991 10<-190 790>
LayerCount: 2
Fore
SplineSet
500 408 m 3
 550 408 544 462 594 568 c 1
 605 383 630 340 654 340 c 0
 689 340 757 397 804 444 c 1
 778 364 754 281 754 189 c 0
 754 182 754 174 754 166 c 5
 660 212 603 234 500 234 c 28
 397 234 340 212 246 166 c 5
 246 174 246 182 246 189 c 0
 246 281 222 364 196 444 c 1
 243 397 311 340 346 340 c 0
 370 340 395 384 406 568 c 1
 456 462 458 408 500 408 c 3
151 0 m 1
 230 82 356 136 500 136 c 0
 644 136 776 82 855 0 c 1
 151 0 l 1
898 522 m 0
 898 489 873 462 842 462 c 0
 811 462 786 489 786 522 c 0
 786 555 811 582 842 582 c 0
 873 582 898 555 898 522 c 0
658 652 m 0
 658 619 633 592 602 592 c 0
 571 592 546 619 546 652 c 0
 546 685 571 712 602 712 c 0
 633 712 658 685 658 652 c 0
342 652 m 0
 342 685 367 712 398 712 c 0
 429 712 454 685 454 652 c 0
 454 619 429 592 398 592 c 0
 367 592 342 619 342 652 c 0
102 522 m 0
 102 555 127 582 158 582 c 0
 189 582 214 555 214 522 c 0
 214 489 189 462 158 462 c 0
 127 462 102 489 102 522 c 0
0 -200 m 5
 0 800 l 5
 1000 800 l 5
 1001 -200 l 5
 0 -200 l 5
10 -190 m 5
 991 -190 l 5
 990 790 l 5
 10 790 l 5
 10 -190 l 5
EndSplineSet
Validated: 1
EndChar

StartChar: u
Encoding: 117 117 112
Width: 1000
VWidth: 0
Flags: W
HStem: -200 10<10 991> 0 136<411.721 582.921> 239 177<355.713 643.194> 502 131<341.015 413.958 580.042 652.985> 790 10<10 990>
VStem: 0 10<-190 790> 991 10<-190 790>
LayerCount: 2
Fore
SplineSet
497 724 m 24
 557 724 564 633 624 633 c 0
 659 633 674 680 713 680 c 0
 733 680 748 661 748 642 c 0
 748 632 744 559 667 476 c 1
 618 492 560 502 497 502 c 0
 434 502 376 492 327 476 c 1
 251 548 246 626 246 642 c 0
 246 661 261 680 281 680 c 0
 320 680 335 633 370 633 c 0
 430 633 437 724 497 724 c 24
666 403 m 1
 667 370 673 302 722 186 c 1
 652 221 573 239 497 239 c 0
 425 239 357 223 291 192 c 1
 323 296 332 360 332 404 c 1
 379 412 436 416 497 416 c 0
 560 416 618 411 666 403 c 1
148 0 m 1
 227 82 353 136 497 136 c 0
 641 136 773 82 852 0 c 1
 148 0 l 1
0 -200 m 5
 0 800 l 5
 1000 800 l 5
 1001 -200 l 5
 0 -200 l 5
10 -190 m 5
 991 -190 l 5
 990 790 l 5
 10 790 l 5
 10 -190 l 5
EndSplineSet
Validated: 1
EndChar

StartChar: v
Encoding: 118 118 113
Width: 1000
VWidth: 0
Flags: W
HStem: -200 10<10 991> 0 136<411.721 582.921> 239 123<457.608 539.987> 790 10<10 990>
VStem: 0 10<-190 790> 223 220<376.138 480.759> 555 216<375.489 480.124> 991 10<-190 790>
LayerCount: 2
Fore
SplineSet
497 750 m 13
 576 670 698 548 699 546 c 0
 727 518 771 465 771 402 c 27
 771 316 755 302 722 186 c 1
 652 221 573 238 497 239 c 0
 421 239 342 221 272 186 c 1
 239 302 223 316 223 402 c 27
 223 465 265 520 295 546 c 0
 295 547 335 594 351 594 c 3
 376 594 449 513 449 475 c 0
 449 459 443 444 443 422 c 0
 443 389 468 362 499 362 c 0
 530 362 555 389 555 422 c 0
 555 455 548 462 533 482 c 26
 403 652 l 17
 497 750 l 13
148 0 m 1
 227 82 353 136 497 136 c 0
 641 136 773 82 852 0 c 1
 148 0 l 1
0 -200 m 5
 0 800 l 5
 1000 800 l 5
 1001 -200 l 5
 0 -200 l 5
10 -190 m 5
 991 -190 l 5
 990 790 l 5
 10 790 l 5
 10 -190 l 5
EndSplineSet
Validated: 1
EndChar

StartChar: w
Encoding: 119 119 114
Width: 1000
VWidth: 0
Flags: W
HStem: -200 10<10 991> 0 136<436.828 608.028> 380 128<268.141 336.114> 790 10<10 990>
VStem: 0 10<-190 790> 991 10<-190 790>
LayerCount: 2
Fore
SplineSet
278 540 m 0
 278 522 291 508 308 508 c 0
 325 508 338 522 338 540 c 0
 338 558 325 572 308 572 c 0
 291 572 278 558 278 540 c 0
302 380 m 4
 287 380 272 384 256 384 c 4
 208 384 206 344 176 344 c 5
 156 348 137 376 122 397 c 5
 122 434 153 445 172 476 c 28
 206 529 214 567 258 612 c 28
 288 643 332 628 354 664 c 20
 361 675 364 685 364 696 c 4
 364 711 354 731 354 747 c 4
 354 752 354 756 356 760 c 13
 402 727 426 705 474 676 c 28
 539 637 591 627 646 585 c 4
 714 533 742 489 742 403 c 4
 742 381 740 337 740 292 c 4
 740 268 747 236 748 186 c 5
 678 221 598 238 522 239 c 4
 446 239 368 221 298 186 c 5
 319 244 331 262 358 308 c 28
 380 345 422 360 422 398 c 4
 422 417 408 436 390 436 c 4
 351 436 359 380 302 380 c 4
174 0 m 1
 253 82 378 136 522 136 c 0
 666 136 799 82 878 0 c 1
 174 0 l 1
0 -200 m 5
 0 800 l 5
 1000 800 l 5
 1001 -200 l 5
 0 -200 l 5
10 -190 m 5
 991 -190 l 5
 990 790 l 5
 10 790 l 5
 10 -190 l 5
EndSplineSet
Validated: 1
EndChar

StartChar: x
Encoding: 120 120 115
Width: 1000
VWidth: 0
Flags: W
HStem: -200 10<10 991> 0 136<411.721 582.921> 239 116<441.053 558.37> 412 268<424.778 569.222> 790 10<10 990>
VStem: 0 10<-190 790> 363 268<473.778 618.222> 991 10<-190 790>
LayerCount: 2
Fore
SplineSet
148 0 m 1
 227 82 353 136 497 136 c 0
 641 136 773 82 852 0 c 1
 148 0 l 1
498 355 m 3
 563 355 638 268 699 202 c 1
 624 226 578 239 498 239 c 27
 418 239 373 225 297 203 c 1
 356 268 442 355 498 355 c 3
363 546 m 0
 363 620 423 680 497 680 c 0
 571 680 631 620 631 546 c 0
 631 472 571 412 497 412 c 0
 423 412 363 472 363 546 c 0
0 -200 m 5
 0 800 l 5
 1000 800 l 5
 1001 -200 l 5
 0 -200 l 5
10 -190 m 5
 991 -190 l 5
 990 790 l 5
 10 790 l 5
 10 -190 l 5
EndSplineSet
Validated: 1
EndChar

StartChar: y
Encoding: 121 121 116
Width: 1000
VWidth: 0
Flags: W
HStem: -200 10<17 103 117 203 217 303 317 403 417 503 517 603 617 703 717 803 817 903 917 991> 0 136<420.721 591.921> 239 55<365.685 422.864 596.505 652.007> 532 143<226.5 393.5 620.5 783> 532 42<401 414 596 607> 790 10<10 83 97 183 197 283 297 383 397 583 597 683 697 783 797 883 897 983>
VStem: 0 10<-183 -97 -83 3 17 103 117 203 217 303 317 403 417 503 517 603 617 703 717 790> 126 165<386 583.5> 454 109<331.6 496.597 652.209 743.619> 490 30<574 647.539> 726 148<367.5 576> 991 9<-190 -116 -102 -16 -2 84 98 184 198 283 298 383 397 483 497 583 597 683 697 783>
LayerCount: 2
Fore
SplineSet
373 532 m 0xf7b0
 324 532 291 482 291 416 c 0
 291 356 318 294 373 294 c 0
 410 294 454 325 454 410 c 0
 454 494 414 532 373 532 c 0xf7b0
645 532 m 0
 596 532 563 482 563 416 c 0
 563 356 590 294 645 294 c 0
 682 294 726 325 726 410 c 0
 726 494 686 532 645 532 c 0
731 186 m 1
 661 221 582 239 506 239 c 0
 434 239 366 223 300 192 c 1
 171 337 126 450 126 530 c 0
 126 637 201 675 252 675 c 0xf770
 336 675 401 582 490 574 c 1
 490 642 l 1
 466 649 448 672 448 698 c 0
 448 730 474 756 506 756 c 0
 538 756 564 730 564 698 c 0
 564 671 545 648 520 642 c 1
 520 573 l 1xef70
 607 582 669 674 750 674 c 0
 816 674 874 621 874 531 c 0
 874 462 844 377 731 186 c 1
157 0 m 1
 236 82 362 136 506 136 c 0
 650 136 782 82 861 0 c 1
 157 0 l 1
263 170 m 1
 269 162 l 1
 190 83 l 1
 166 66 143 47 124 27 c 2
 100 2 l 2
 96 -3 93 -8 93 -14 c 1
 10 -97 l 1
 10 -183 l 1
 153 -40 l 1
 167 -40 l 1
 17 -190 l 1
 103 -190 l 1
 253 -40 l 1
 267 -40 l 1
 117 -190 l 1
 203 -190 l 1
 353 -40 l 1
 367 -40 l 1
 217 -190 l 1
 303 -190 l 1
 453 -40 l 1
 467 -40 l 1
 317 -190 l 1
 403 -190 l 1
 553 -40 l 1
 567 -40 l 1
 417 -190 l 1
 503 -190 l 1
 653 -40 l 1
 667 -40 l 1
 517 -190 l 1
 603 -190 l 1
 753 -40 l 1
 767 -40 l 1
 617 -190 l 1
 703 -190 l 1
 853 -40 l 1
 867 -40 l 1
 717 -190 l 1
 803 -190 l 1
 991 -2 l 1
 991 84 l 1
 910 3 l 1
 903 10 l 1
 991 98 l 1
 991 184 l 1
 860 53 l 1
 852 59 l 1
 991 198 l 1
 991 283 l 1
 802 95 l 1
 793 100 l 1
 990 298 l 1
 990 383 l 1
 736 129 l 1
 726 133 l 1
 990 397 l 1
 990 483 l 1
 864 357 l 1
 875 382 l 1
 990 497 l 1
 990 583 l 1
 909 502 l 1
 910 507 910 512 910 517 c 1
 990 597 l 1
 990 683 l 1
 901 594 l 1
 900 598 899 602 898 605 c 1
 990 697 l 1
 990 783 l 1
 866 659 l 1
 864 662 861 664 859 666 c 1
 983 790 l 1
 897 790 l 1
 808 701 l 1
 805 702 801 704 798 705 c 1
 883 790 l 1
 797 790 l 1
 718 711 l 1
 712 710 706 709 700 707 c 1
 783 790 l 1
 697 790 l 1
 600 693 l 1
 600 695 600 696 600 698 c 0
 600 701 600 704 600 707 c 1
 683 790 l 1
 597 790 l 1
 573 766 l 1
 571 768 569 771 566 773 c 1
 583 790 l 1
 397 790 l 1
 310 703 l 1
 307 704 304 706 300 707 c 1
 383 790 l 1
 297 790 l 1
 219 712 l 1
 213 711 206 709 200 707 c 1
 283 790 l 1
 197 790 l 1
 10 603 l 1
 10 517 l 1
 93 600 l 1
 91 594 90 588 88 581 c 1
 10 503 l 1
 10 417 l 1
 85 492 l 1
 86 488 86 484 87 480 c 1
 10 403 l 1
 10 317 l 1
 106 413 l 1
 110 403 l 1
 10 303 l 1
 10 217 l 1
 138 345 l 1
 143 336 l 1
 10 203 l 1
 10 117 l 1
 176 283 l 1
 181 274 l 1
 10 103 l 1
 10 17 l 1
 218 225 l 1
 224 217 l 1
 10 3 l 1
 10 -83 l 1
 263 170 l 1
10 617 m 1
 183 790 l 1
 97 790 l 1
 10 703 l 1
 10 617 l 1
10 717 m 1
 83 790 l 1
 10 790 l 1
 10 717 l 1
991 -16 m 1
 817 -190 l 1
 903 -190 l 1
 991 -102 l 1
 991 -16 l 1
991 -190 m 1
 991 -116 l 1
 917 -190 l 1
 991 -190 l 1
1000 -200 m 1
 0 -200 l 1
 0 800 l 1
 1000 800 l 1
 1000 -200 l 1
376 669 m 1
 367 674 l 1
 406 713 l 1
 405 708 404 703 404 698 c 2
 404 697 l 1
 376 669 l 1
663 170 m 1
 674 167 l 1
 662 155 l 1
 651 158 l 1
 663 170 l 1
585 192 m 1
 589 191 593 190 597 189 c 1
 578 171 l 1
 574 172 570 173 566 173 c 1
 585 192 l 1
506 199 m 1
 483 176 l 1
 478 176 473 175 468 175 c 1
 492 199 l 1
 496 199 498 199 502 199 c 2
 506 199 l 1
391 184 m 1
 368 161 l 1
 362 160 355 158 349 156 c 1
 371 178 l 1
 378 180 384 182 391 184 c 1
EndSplineSet
Validated: 1
EndChar

